<?xml version="1.0" encoding="utf-8"?>
<!-- Generator: Adobe Illustrator 22.0.1, SVG Export Plug-In . SVG Version: 6.00 Build 0)  -->
<svg version="1.1" id="레이어_1" xmlns="http://www.w3.org/2000/svg" xmlns:xlink="http://www.w3.org/1999/xlink" x="0px"
	 y="0px" viewBox="0 0 1015 340" style="enable-background:new 0 0 1015 340;" xml:space="preserve">
<style type="text/css">
	.st0{fill:#FFFFFF;}
</style>
<path d="M952.4,0H62C8.9,0,0,18.4,0,62.2v216.1C0,322,18.2,340,61.9,340h890.5c43.8,0,62.6-18.1,62.6-61.8v-216
	C1015,18.4,996.2,0,952.4,0z"/>
<path class="st0" d="M264.6,211.6c-5.1,11.3-7.6,16.4-14.1,26.4c-9.2,14-22.1,31.4-38.2,31.5c-14.3,0.1-17.9-9.3-37.3-9.2
	c-19.3,0.1-23.4,9.3-37.6,9.2c-16-0.1-28.3-15.9-37.5-29.8c-25.7-39.1-28.4-85-12.5-109.4c11.3-17.3,29-27.5,45.7-27.5
	c17,0,27.7,9.3,41.7,9.3c13.6,0,21.9-9.3,41.6-9.3c14.9,0,30.6,8.1,41.8,22.1C221.5,145.1,227.5,197.6,264.6,211.6z"/>
<path class="st0" d="M201.6,87.3c7.1-9.2,12.6-22.1,10.6-35.3c-11.7,0.8-25.3,8.2-33.3,17.9c-7.2,8.8-13.2,21.8-10.9,34.5
	C180.7,104.7,193.9,97.1,201.6,87.3z"/>
<path class="st0" d="M321.2,78.6V135h19.9c16.8,0,26.7-10.5,26.7-28.3c0-17.8-9.9-28.1-26.7-28.1H321.2z M329.9,86.2h10.3
	c11.9,0,18.6,7.3,18.6,20.6c0,13.3-6.6,20.6-18.6,20.6h-10.3V86.2z"/>
<path class="st0" d="M392.8,135.8c11.8,0,19.5-8.1,19.5-21.3c0-13.2-7.8-21.3-19.5-21.3s-19.5,8.1-19.5,21.3
	C373.3,127.7,381,135.8,392.8,135.8z M392.8,128.8c-6.6,0-10.9-5.2-10.9-14.4c0-9.1,4.3-14.3,10.9-14.3c6.6,0,10.9,5.2,10.9,14.3
	C403.7,123.6,399.4,128.8,392.8,128.8z"/>
<path class="st0" d="M472.8,93.9h-8.4l-7.5,32.3h-0.2l-8.6-32.3h-8.1l-8.6,32.3h-0.2l-7.5-32.3h-8.4l11.3,41.1h8.7l8.6-30.8h0.2
	l8.6,30.8h8.8L472.8,93.9z"/>
<path class="st0" d="M478,135h8.4v-23.9c0-6.4,3.8-10.6,9.8-10.6c5.9,0,8.8,3.4,8.8,9.6v25h8.5v-26.6c0-9.4-5.2-15.2-14.3-15.2
	c-6.3,0-10.7,2.9-12.9,7.6H486v-6.9h-8V135z"/>
<path class="st0" d="M521.9,135h8.4V78.6h-8.4V135z"/>
<path class="st0" d="M556.7,135.8c11.8,0,19.5-8.1,19.5-21.3c0-13.2-7.8-21.3-19.5-21.3s-19.5,8.1-19.5,21.3
	C537.2,127.7,544.9,135.8,556.7,135.8z M556.7,128.8c-6.6,0-10.9-5.2-10.9-14.4c0-9.1,4.3-14.3,10.9-14.3s10.9,5.2,10.9,14.3
	C567.6,123.6,563.3,128.8,556.7,128.8z"/>
<path class="st0" d="M597.1,129c-4.5,0-7.5-2.3-7.5-5.9c0-3.5,2.9-5.7,7.9-6.1l10.1-0.6v3.2C607.6,125,603,129,597.1,129z
	 M594.7,135.7c5.4,0,10.6-2.9,13-7.5h0.2v6.8h8.1v-28.3c0-8.2-6.4-13.5-16.3-13.5c-10.2,0-16.5,5.5-17,12.9h8c0.7-3.7,3.8-6,8.7-6
	c5.2,0,8.2,2.7,8.2,7.3v3.2l-11.3,0.7c-9.8,0.5-15.3,5-15.3,12.1C581,130.7,586.7,135.7,594.7,135.7z"/>
<path class="st0" d="M639.6,135.7c6,0,10.7-3,13.1-7.7h0.2v7h8.2V78.6h-8.5v22.1h-0.2c-2.3-4.5-7-7.5-12.9-7.5
	c-10.3,0-17.2,8.2-17.2,21.2S629.2,135.7,639.6,135.7z M641.8,100.4c6.5,0,10.8,5.6,10.8,14.1c0,8.6-4.3,14.1-10.8,14.1
	c-6.7,0-10.9-5.4-10.9-14.1C631,105.8,635.1,100.4,641.8,100.4z"/>
<path class="st0" d="M703.6,135.8c11.8,0,19.5-8.1,19.5-21.3c0-13.2-7.8-21.3-19.5-21.3s-19.5,8.1-19.5,21.3
	C684.1,127.7,691.9,135.8,703.6,135.8z M703.6,128.8c-6.6,0-10.9-5.2-10.9-14.4c0-9.1,4.3-14.3,10.9-14.3c6.6,0,10.9,5.2,10.9,14.3
	C714.5,123.6,710.3,128.8,703.6,128.8z"/>
<path class="st0" d="M729.6,135h8.4v-23.9c0-6.4,3.8-10.6,9.8-10.6c5.9,0,8.8,3.4,8.8,9.6v25h8.5v-26.6c0-9.4-5.2-15.2-14.3-15.2
	c-6.3,0-10.7,2.9-12.9,7.6h-0.2v-6.9h-8V135z"/>
<path class="st0" d="M791.9,84.2v9.7h-6v6.7h6v23.6c0,7.9,3.2,11.1,11.6,11.1c1.9,0,3.8-0.2,4.7-0.4v-6.7c-0.5,0.1-1.9,0.2-2.8,0.2
	c-3.4,0-5-1.6-5-5.2v-22.7h7.8v-6.7h-7.8v-9.7H791.9z"/>
<path class="st0" d="M815.5,135h8.4v-23.8c0-6.5,3.8-10.8,10.1-10.8c5.9,0,9,3.6,9,9.7V135h8.5v-26.5c0-9.3-5.4-15.3-14.4-15.3
	c-6.3,0-10.7,2.8-13,7.6h-0.2V78.6h-8.4V135z"/>
<path class="st0" d="M876.8,100c5.9,0,9.9,4.4,10.1,10.7h-20.5C866.8,104.5,870.9,100,876.8,100z M886.9,122.9c-1.1,3.6-4.7,6-9.5,6
	c-6.8,0-11.1-4.7-11.1-11.9v-0.5h29v-2.9c0-12.5-7.1-20.5-18.5-20.5c-11.6,0-19,8.6-19,21.5c0,13,7.3,21.1,19.4,21.1
	c9.4,0,16.5-5.4,17.7-12.9H886.9z"/>
<path class="st0" d="M384.4,267.5h16.8l-37-101.8H347l-37,101.8h16.6l9.4-27.5H375L384.4,267.5z M355.3,182.6h0.4l15.3,44.6h-31
	L355.3,182.6z"/>
<path class="st0" d="M449.5,192.1c-10.8,0-19.4,5.4-23.8,14h-0.3v-12.8h-14.9V292h15.4v-36.7h0.4c4.3,8.3,12.8,13.5,23.5,13.5
	c18.8,0,31.2-14.9,31.2-38.4C481,206.9,468.5,192.1,449.5,192.1z M445.5,255.8c-11.8,0-19.6-10-19.6-25.5c0-15.3,7.9-25.5,19.6-25.5
	c12.2,0,19.8,9.9,19.8,25.5C465.2,245.9,457.6,255.8,445.5,255.8z"/>
<path class="st0" d="M531.7,192.1c-10.8,0-19.4,5.4-23.8,14h-0.3v-12.8h-14.9V292h15.4v-36.7h0.4c4.3,8.3,12.8,13.5,23.5,13.5
	c18.8,0,31.2-14.9,31.2-38.4C563.2,206.9,550.7,192.1,531.7,192.1z M527.6,255.8c-11.8,0-19.6-10-19.6-25.5
	c0-15.3,7.9-25.5,19.6-25.5c12.2,0,19.8,9.9,19.8,25.5C547.4,245.9,539.8,255.8,527.6,255.8z"/>
<path class="st0" d="M601.6,239.1c1,18.4,16.3,30,39.1,30c24.3,0,39.6-11.9,39.6-31c0-14.9-8.7-23.3-29.8-28.2l-11.3-2.8
	c-13.2-3.2-18.6-7.5-18.6-14.7c0-9,8.5-15.2,20.8-15.2s20.8,6.1,21.8,16.3h15.5c-0.5-17.6-15.4-29.6-37-29.6
	c-21.9,0-37.3,12.1-37.3,29.6c0,14.2,8.7,22.9,27.6,27.4l13.3,3.2c13.3,3.2,18.9,8,18.9,15.9c0,9.1-9.3,15.7-22.2,15.7
	c-13.5,0-23.4-6.6-24.5-16.7H601.6z"/>
<path class="st0" d="M697.1,175.7v17.6h-10.9v12.1h10.9v42.6c0,14.3,5.9,20,21,20c3.4,0,6.8-0.3,8.5-0.7v-12.1c-1,0.2-3.5,0.4-5,0.4
	c-6.3,0-9.1-2.9-9.1-9.3v-40.9h14.2v-12.1h-14.2v-17.6H697.1z"/>
<path class="st0" d="M769.5,268.9c21.4,0,35.5-14.6,35.5-38.5c0-23.8-14.1-38.4-35.5-38.4c-21.3,0-35.5,14.6-35.5,38.4
	C734,254.3,748.1,268.9,769.5,268.9z M769.5,256.3c-12,0-19.8-9.4-19.8-26c0-16.4,7.8-25.9,19.8-25.9c12,0,19.8,9.5,19.8,25.9
	C789.3,246.9,781.6,256.3,769.5,256.3z"/>
<path class="st0" d="M816.7,267.5H832V223c0-10.5,6.1-17.1,16-17.1c3,0,5.7,0.4,6.9,0.8v-14.2c-1.1-0.2-3.1-0.6-5.3-0.6
	c-8.8,0-15.5,5.1-18,13.8h-0.4v-12.6h-14.6V267.5z"/>
<path class="st0" d="M892.3,204.2c10.7,0,18,8,18.3,19.3h-37.4C874,212.3,881.6,204.2,892.3,204.2z M910.6,245.7
	c-2.1,6.5-8.5,10.9-17.3,10.9c-12.3,0-20.1-8.5-20.1-21.4v-0.9H926V229c0-22.5-12.9-37-33.7-37c-21.1,0-34.6,15.5-34.6,38.8
	c0,23.4,13.3,38.2,35.3,38.2c17.1,0,30.1-9.7,32.2-23.2H910.6z"/>
</svg>
