<svg width="630" height="630" viewBox="0 0 630 630" fill="none" xmlns="http://www.w3.org/2000/svg">
    <path d="M201.171 68.818c66.675-43.94 160.371-34.983 219.314 30.237 32.227 35.672 45.317 84.74 78.769 119.646 37.662 39.27 82.673 77.468 99.743 131.052 18.143 56.953 2.22 122.249-38.351 165.806-49.374 52.972-121.943 37.05-190.531 36.208-280.859-3.522-489.608-190.991-223.983-422.093 22.2-19.443 32.993-46.389 55.039-60.856z" fill="#D2D9FD"/>
    <path d="M548.552 237.915c-1.455.459-9.11 6.124-9.11 6.124l-9.033 5.818-.382-3.292s-3.675-7.349-8.191-7.042c0 0 5.435 6.659 6.124 11.099.689 4.44.995 7.502.995 7.502l-5.971 5.894 9.952 12.784 23.347-17.453s-6.277-21.893-7.731-21.434z" fill="#DBA17B"/>
    <path d="m553.221 237.915-4.057 32.533-16.228.383-3.904-32.916h24.189z" fill="#FFBE55"/>
    <path d="M556.742 238.374h-30.619v-3.215h2.908v-5.052l24.879 3.674.076 1.837h2.756v3.139" fill="#0E538C"/>
    <path d="M554.676 259.961c5.664.536-1.455-15.004-1.455-15.004s-15.31-1.071-15.463-.229c-.153.842-.076 2.22 1.148 2.526 1.225.306 10.794 1.607 10.794 1.607s-9.952.46-9.798 1.531c.306 1.608 1.454 1.761 4.439 2.22 2.527.383 8.038.536 8.038.536s-10.487.23-10.257.919c.229.689-.46 2.832 3.138 2.296 8.191-1.071 9.416 3.598 9.416 3.598z" fill="#DBA17B"/>
    <path d="M485.781 322.502s15.54 109.848 8.344 133.195c-7.195 23.348-10.028 44.399-10.028 44.399l-36.131-10.564s11.942-54.962 13.779-65.526c1.76-10.564-16.688-96.375-16.688-96.375l40.724-5.129z" fill="#0B4870"/>
    <path d="M468.711 330.386 451.64 506.985h-34.523s11.176-186.933 9.186-188.54c-1.991-1.455 42.408 11.941 42.408 11.941zm13.626-107.628s3.674 59.249 11.559 57.106c7.961-2.067 29.241-17.53 29.241-17.53l12.937 14.238s-39.423 43.863-55.651 25.95c-16.152-17.989 1.914-79.764 1.914-79.764zm-10.641 313.775 2.373-11.941-25.184-10.105-3.981 17.76 1.378.229c5.665 2.603 33.146 15.31 37.433 15.693 4.746.459-12.019-11.636-12.019-11.636z" fill="#0B4870"/>
    <path d="m411.835 362.69 2.756 3.981s1.301 2.679 4.516 6.736c.842 1.072 1.837 1.99 2.986 2.679 1.377.842 3.291 1.914 4.516 2.22 1.531.306 1.837 2.297.536 2.909-1.302.536-5.435-.23-9.416-3.292-3.98-2.985-2.143 4.593-1.454 7.426.612 2.756 2.143 11.482 1.454 12.401-.995 1.301-2.602.382-3.138-2.373-.536-2.833-2.833-11.1-4.287-10.641-1.454.383 1.914 14.545 1.914 14.545s1.225 2.909-.46 3.444c-2.985.919-5.511-14.391-5.664-15.845-.153-.995-1.761-.613-1.531.459.229 1.148 3.674 14.009.689 15.004-2.373.765-2.144-12.554-4.364-14.851-2.219-2.296.919 10.105-1.377 10.717-.842.23-1.531.306-2.297-7.119-.765-7.578.459-28.323.459-28.323l14.392.153" fill="#FFE3CA"/>
    <path d="M461.821 202.855c-.306-2.373.919-12.247.919-12.247s9.033-.689 9.875-9.569c.842-8.956.918-29.625.918-29.625l-16.151-8.573-18.525 13.09-4.211 9.798 5.512 23.348v11.712l21.663 2.066z" fill="#DBA17B"/>
    <path d="M462.74 190.608s-6.048-.154-11.712-4.364c0 0 2.449 6.66 11.482 6.583l.23-2.219z" fill="#C68C6B"/>
    <path d="M434.953 175.527c2.449 5.435 3.904 13.396 3.904 13.396 1.301 2.45 1.76-5.358 1.76-5.358s1.149-7.502.077-10.411c0 0-4.593 1.455-5.588-6.736-.536-4.057 5.588-5.971 7.272-1.072l3.828.383s.306-15.31 9.109-12.477c0 0 6.353 3.904 10.181 1.531 3.827-2.373 3.521-3.216 3.521-3.216s1.837 4.058 6.737 1.378c4.899-2.679 5.511-7.348 3.827-9.568-.995-1.302-1.914-2.756-3.521-3.062-1.608-.306-3.368.382-4.364 1.607 1.225-1.76.383-4.363-1.454-5.588-1.761-1.148-4.134-1.072-6.124-.306-1.99.765-3.674 2.143-5.282 3.521-1.148-3.215-4.593-5.511-7.961-5.205-3.445.306-6.43 3.062-7.043 6.43-1.837-2.296-5.358-2.832-8.037-1.531-2.679 1.301-4.363 4.057-4.899 6.966-.536 2.909.076 5.894 1.224 8.65-2.066-1.148-4.899-.306-6.277 1.608-1.377 1.913-1.377 4.593-.382 6.736s2.909 3.751 4.975 4.823c-1.531 1.224-2.066 3.674-1.071 5.435.995 1.76 3.291 2.679 5.128 1.99" fill="#0E538C"/>
    <path d="M404.027 226.356s6.2-28.553 36.131-25.567l27.405 2.755s18.831 7.962 16.152 30.39c-2.603 22.429-3.904 42.945-3.215 46.849.688 3.98 7.272 39.269 5.281 41.719-19.749 24.036-70.195-14.315-70.195-14.315l-11.559-81.831z" fill="#FFBE55"/>
    <path d="m440.158 200.789-6.966 166.8-20.745-11.252 2.144-147.97s5.588-9.569 25.567-7.578z" fill="#0E538C"/>
    <path d="m396.908 365.676 7.119-139.396c2.22-8.574 6.966-15.157 13.09-20.669v161.902l-20.209-1.837zm64.913-162.821s18.678 9.263 17.836 40.572c-.918 31.308 11.253 119.799 11.253 119.799l15.616-3.138s-18.065-83.898-18.831-98.596c-.765-15.003.536-36.208-9.569-50.829-7.272-10.487-16.305-7.808-16.305-7.808z" fill="#0E538C"/>
    <path d="M440.158 200.789s-6.124 13.778-5.512 18.754c.613 5.052 2.756 15.616 2.756 15.616s-4.516 2.756-4.133 5.129c.306 2.373 3.904 39.882 3.904 39.882l2.985-79.381zm-23.041 166.8c1.913-33.681 1.454-99.054 3.368-132.813z" fill="#0B4870"/>
    <path d="M471.849 523.75c-.306-.153 6.354-25.338 6.354-25.338l-22.123-6.43-4.669 23.577 20.438 8.191zm-50.981-16.688h25.184v19.75h-25.184v-19.75z" fill="#DBA17B"/>
    <path d="m448.502 537.529-2.297-11.942H419.03l2.833 17.606 1.454.077c6.2.306 36.437 1.914 40.571.689 4.746-1.455-15.386-6.43-15.386-6.43z" fill="#0B4870"/>
    <path d="m235.695 150.036 6.43 21.587c.307.995.613 1.991.536 2.986-.076 3.062-2.909 5.435-5.894 5.971-2.986.535-6.048-.23-8.956-1.072-.766 3.062-4.44 4.363-7.579 4.976-13.932 2.602-28.706.765-41.566-5.206 5.512-7.961 10.028-16.534 13.396-25.644 10.947.459 21.893.995 32.84 1.455 1.913.076 3.904.153 5.741-.46 1.837-.689 3.445-2.22 3.598-4.133" fill="#0E538C"/>
    <path d="m108.623 244.728-3.215-3.751s-2.296-1.914-5.588-6.201c-.842-1.071-1.454-2.373-1.913-3.674-.536-1.607-1.149-3.751-1.072-5.052.076-1.608-1.837-2.373-2.756-1.225-.919 1.148-1.072 5.512.919 10.181 1.99 4.67-5.13.995-7.732-.383-2.603-1.301-10.87-4.975-11.942-4.516-1.53.689-1.071 2.45 1.608 3.751 2.68 1.301 10.258 5.588 9.569 6.889-.766 1.302-13.932-5.511-13.932-5.511s-2.603-1.914-3.522-.383c-1.684 2.756 12.937 9.033 14.315 9.569.995.382.23 1.913-.842 1.378-1.072-.46-13.013-7.12-14.774-4.364-1.301 2.144 11.942 5.282 13.626 8.038 1.684 2.756-9.799-3.368-11.023-1.301-.46.765-.69 1.454 6.506 3.98 7.273 2.603 28.247 6.583 28.247 6.583l3.368-14.391" fill="#FF957E"/>
    <path d="M167.796 210.74s-11.942 34.524-15.616 34.83c-25.185 2.296-52.59-8.574-52.59-8.574l-6.889 19.444s71.344 31.921 86.654 1.148c16.305-32.61 15.463-37.739 15.463-37.739l-27.022-9.109z" fill="#FCD2B1"/>
    <path d="M169.403 405.94c12.784 58.714 96.835 113.293 96.835 113.293l14.315-17.529s-67.593-60.245-70.426-87.037c-2.908-26.792 19.521-68.818 19.521-68.818l-23.271-9.875-36.974 69.966z" fill="#0B4870"/>
    <path d="M197.803 192.139c.383-2.45-.536-12.555-.536-12.555s-9.262-.995-9.798-10.181c-.536-9.185 0-30.313 0-30.313l16.841-8.267 18.525 14.008-2.832 45.853-22.2 1.455z" fill="#FFE3CA"/>
    <path d="M221.533 152.027s-15.156-1.455-17.759-15.157l-16.382 15.157s-4.975-10.181 4.134-19.597c9.109-9.415 15.31-7.502 18.908-7.502 3.291 0 20.132 3.598 25.108 22.659.383 1.378.689 4.822.918 6.353l-14.927-1.913z" fill="#0E538C"/>
    <path d="M197.344 179.661s6.2.077 12.171-4.134c0 0-2.756 6.737-11.942 6.354l-.229-2.22z" fill="#FCD2B1"/>
    <path d="M178.283 295.557c0 3.291 1.148 7.808 1.148 7.808l65.067 18.754s4.67-29.395-7.195-45.776c-5.435-7.502-4.211-18.066-1.991-27.099l7.655-30.849-10.257-29.012-40.954 2.756s-23.73-2.373-31.998 29.012l15.234 22.888.153 8.65 3.138 42.868z" fill="#FFBE55"/>
    <path d="M241.742 284.074c.689 0 12.478 26.41 1.838 42.102a409.545 409.545 0 0 0-6.737 10.181c-15.769 24.19-51.747 81.066-52.972 89.41-1.454 10.104-30.543 116.125-30.543 116.125l-21.663-3.445 17.682-120.259 28.936-122.632 63.459-11.482zm-37.585-148.276s-3.368 6.507-1.914 11.406l-14.698 3.828c0-.077-3.368-18.678 16.612-15.234zm31.538 16.765s1.684 21.127-14.621 24.878l1.072-25.491 13.549.613z" fill="#0E538C"/>
    <path d="m168.944 251.005-36.514 15.386-59.785 1.302-29.088-49.375 61.469-4.133 26.639 47.766 37.05-14.391.229 3.445z" fill="#FFBE55"/>
    <path d="m162.361 214.721-10.257 25.031 22.964 11.406 2.144-21.893-14.851-14.544z" fill="#FFBE55"/>
    <path d="m206.607 187.546-8.344 3.597 1.684 16.841 10.564-18.907-3.904-1.531z" fill="#FFE3CA"/>
    <path d="M129.674 538.447s-19.06 5.053-14.314 6.507c4.746 1.454 37.738-2.143 37.738-2.143l1.072-3.751-24.496-.613z" fill="#0E538C"/>
    <path d="m153.098 542.81 6.737-18.142h-29.242l-.919 13.779 23.424 4.363z" fill="#0E538C"/>
    <path d="M266.468 520.458s-4.823 19.137-1.225 15.693c3.521-3.445 16.535-33.988 16.535-33.988l-2.756-2.756-12.554 21.051z" fill="#0B4870"/>
    <path d="m281.701 502.163-12.631-14.698-14.161 25.491 11.559 7.502 15.233-18.295z" fill="#0B4870"/>
    <path d="M223.906 163.586c-.076-1.531-.076-3.139.46-4.517.535-1.454 1.76-2.679 3.291-2.832 1.761-.153 3.445 1.301 3.751 2.985.306 1.761-.765 3.522-2.296 4.44-1.531.842-3.445.842-5.129.153" fill="#FFE3CA"/>
    <path d="M213.496 296.781s-.842-84.74 2.143-91.17c0 0 3.139-15.922 15.31-16.228l-5.435.459s-11.023-.765-14.238 20.898c-3.139 21.663-2.986 86.73-2.986 86.73l5.206-.689zm-23.578 2.986s-3.291-97.371-.688-107.628h-3.292s-2.909 8.343-2.373 31.691c.383 14.008 0 75.937 0 75.937h6.353z" fill="#0E538C"/>
    <path d="M151.108 256.593s-15.922 10.104-19.443 10.028c-3.445-.077-13.473-.306-12.401 1.072 1.071 1.378 12.401 3.291 12.401 3.291l19.443-14.391z" fill="#FFE3CA"/>
    <path d="M152.256 277.874s75.401 20.285 85.735-12.478c10.947-34.753 11.1-25.72 11.1-25.72l-23.654-22.812s-12.707 40.112-16.305 41.03c-19.826 5.053-42.331 1.837-50.293.383a67.757 67.757 0 0 1-3.138-2.756 11.563 11.563 0 0 1-2.45-3.291c-.765-1.531-1.684-3.522-1.837-4.823-.23-1.607-2.22-2.067-2.909-.842-.689 1.225-.229 5.588 2.526 9.875 0 0-17.989 11.559-19.443 14.315l20.668 7.119z" fill="#FFE3CA"/>
    <path d="M232.709 189.383s17.224 3.291 17.913 30.39c.689 27.098-10.258 47.843-10.258 47.843l-29.241-15.233 21.586-63" fill="#FFBE55"/>
    <path d="M382.899 456.846h-78.998a6.665 6.665 0 0 1-6.66-6.66 6.665 6.665 0 0 1 6.66-6.66h78.922a6.665 6.665 0 0 1 6.66 6.66c.076 3.674-2.909 6.66-6.584 6.66z" fill="#D3D3D3"/>
    <path d="M327.04 540.995v-6.737h67.975v6.737H327.04z" fill="#0B4870"/>
    <path d="M333.295 539.672a6.31 6.31 0 0 1-5.282 7.349 6.31 6.31 0 0 1-7.348-5.282 6.31 6.31 0 0 1 5.282-7.349 6.31 6.31 0 0 1 7.348 5.282zm24.037-87.19h6.736v84.511h-6.736v-84.511zm43.939 87.19a6.311 6.311 0 0 1-5.282 7.349 6.311 6.311 0 0 1-7.349-5.282 6.311 6.311 0 0 1 5.282-7.349 6.31 6.31 0 0 1 7.349 5.282z" fill="#0B4870"/>
    <path d="M403.568 456.846h-74.559c-5.053 0-8.727-4.976-7.273-9.952l35.596-122.785c.918-3.291 3.904-5.588 7.272-5.588h74.559c5.052 0 8.727 4.976 7.272 9.952L410.84 451.258c-.919 3.368-3.904 5.588-7.272 5.588z" fill="#D3D3D3"/>
    <path d="M393.31 456.846h-64.99c-5.053 0-8.727-4.976-7.272-9.952l35.595-122.785c.918-3.291 3.904-5.588 7.272-5.588h64.99c5.053 0 8.727 4.976 7.273 9.952l-35.596 122.785c-.918 3.368-3.904 5.588-7.272 5.588z" fill="#F2F2F2"/>
    <path d="M403.567 456.846h-78.999a6.665 6.665 0 0 1-6.659-6.66 6.665 6.665 0 0 1 6.659-6.66h78.923a6.665 6.665 0 0 1 6.659 6.66c.077 3.674-2.908 6.66-6.583 6.66z" fill="#D3D3D3"/>
    <path d="m338.271 352.586-17.53 46.618 4.134 9.11 23.654-4.134 6.736-49.834-16.994-1.76z" fill="#FCD2B1"/>
    <path d="M348.911 329.927s-13.855 7.272-16.917 31.156l18.295 10.028-1.378-41.184z" fill="#2A94F4"/>
    <path d="m371.264 320.818-21.817 9.186-17.223 76.625 57.565 22.659 30.696-87.419s-4.976-18.219-33.758-22.888l-15.463 1.837z" fill="#2A94F4"/>
    <path d="M429.441 410.763c0-.995-.612-7.043-.919-8.038l-9.492-60.703c-1.837-8.344-11.176-12.554-18.601-8.421-5.512 3.062-7.961 9.569-5.818 15.463l11.253 52.13 23.577 9.569z" fill="#FFE3CA"/>
    <path d="m416.504 397.826-64.224-4.975-3.216 11.329 61.852 20.898c9.492 3.215 19.214-4.287 18.525-14.315-.459-6.889-5.971-12.401-12.937-12.937z" fill="#FFE3CA"/>
    <path d="M412.6 331.764s8.191 3.522 11.712 24.802l-28.935 8.88s-18.908-21.204 1.301-35.366l15.922 1.684z" fill="#2A94F4"/>
    <path d="M332.147 404.869c2.373 6.277 14.238 6.583 20.592 4.21 6.277-2.373 12.783-5.971 10.41-12.324-2.373-6.277-12.86-10.028-19.749-8.497-8.344 1.913-13.626 10.257-11.253 16.611z" fill="#FFE3CA"/>
    <path d="m367.13 413.442-45.853-5.894.689-5.205 45.853 5.894c1.454.153 2.449 1.454 2.22 2.909-.23 1.454-1.531 2.449-2.909 2.296z" fill="#F2F2F2"/>
    <path d="m327.324 408.313-60.78-7.808c-3.521-.459-6.277-3.138-6.736-6.659l-6.354-44.093c-.535-3.904 2.756-7.272 6.66-6.736l55.805 7.196c2.373.306 4.21 2.143 4.516 4.439l6.889 53.661z" fill="#F2F2F2"/>
    <path d="m254.679 524.745-15.769 6.507-9.952.765c-4.592.306-8.42 3.674-9.339 8.114l-.459 2.067 54.044 6.736 1.072-21.74-19.597-2.449z" fill="#0B4870"/>
    <path d="m274.276 527.194 5.282-23.653-19.52-2.68-5.359 23.884 19.597 2.449z" fill="#FFE3CA"/>
    <path d="M389.788 429.288s-1.531 13.09-25.031 14.851h-56.493l-26.64 74.329-28.017-4.517 28.017-109.159 64.225 7.119 43.939 17.377z" fill="#0B4870"/>
    <path d="m209.439 482.03-16.918-2.526-8.956-4.516c-4.134-2.067-9.109-1.149-12.248 2.143l-1.454 1.531 42.867 33.529 12.095-18.066-15.386-12.095z" fill="#0E538C"/>
    <path d="m224.978 494.202 14.697-18.678-15.463-12.325-14.774 18.831 15.54 12.172z" fill="#FFE3CA"/>
    <path d="m332.223 406.629-43.556-13.013c-1.837-.536-3.598-1.225-5.435-1.837-3.751-1.455-13.243-3.445-20.592 7.808-9.415 14.468-47.154 68.818-47.154 68.818l23.041 16.994 50.293-64.072a22.378 22.378 0 0 1 18.142-9.263l38.887-.076-13.626-5.359z" fill="#0E538C"/>
    <path d="M388.258 296.934c.765-1.454 14.238-25.49 1.913-31.538 0 0-1.607-12.707-15.769-11.329-14.161 1.378-10.334 5.511-19.367 3.445-9.032-2.067-17.529 2.602-16.841 10.181.689 7.578 6.431 10.793 16.841 8.956 10.411-1.837 18.678-.459 18.678-.459l8.727 2.526 5.818 18.218z" fill="#FFBE55"/>
    <path d="m389.941 322.961-1.071-30.543-21.128 7.502 1.684 24.496c.383 5.664 3.522 10.104 9.186 9.721l1.761-.076c5.664-.536 9.951-5.435 9.568-11.1z" fill="#FFE3CA"/>
    <path d="M387.033 296.628s3.98 25.491-17.76 26.946l-.995-12.095 18.755-14.851z" fill="#FCD2B1"/>
    <path d="M369.121 317.909h.765c10.87-.536 19.214-9.722 18.678-20.592l-1.072-22.199a5.071 5.071 0 0 0-5.358-4.823l-25.874 1.225c-4.975.23-8.879 4.517-8.65 9.492l.842 18.142c.613 10.87 9.799 19.214 20.669 18.755z" fill="#FFE3CA"/>
    <path d="M383.588 290.657a6.56 6.56 0 0 0 6.966 6.277 6.56 6.56 0 0 0 6.277-6.966 6.561 6.561 0 0 0-6.966-6.277c-3.598.153-6.43 3.292-6.277 6.966z" fill="#FFE3CA"/>
    <path d="m380.449 272.898 1.302 24.725c.153 2.22-.766 4.517-2.679 5.741-1.149.843-2.067 1.914-4.134 1.608-5.894-.842-3.139-5.205-15.157-4.593-10.946.612-10.104 6.66-10.104 6.66s2.143 11.559 17.147 12.095c15.003.535 22.505-8.957 20.744-21.587l-1.454-26.104-5.665 1.455z" fill="#FFBE55"/>
    <path d="M348.375 277.108s6.966 1.072 17.148-1.378c10.104-2.526 18.142 5.665 18.142 5.665s2.143 3.751 2.679 3.674c.536-.076 3.598-1.301 3.598-1.301l-.153-11.406-7.426-5.818-20.591-.842-12.172 2.679-1.225 8.727z" fill="#FFBE55"/>
</svg>
