<svg width="738" height="638" viewBox="0 0 738 638" fill="none" xmlns="http://www.w3.org/2000/svg">
    <path d="M145.169 500.62c1.248 3.085 2.628 6.17 4.14 9.123 22.475 44.043 68.082 71.808 116.713 76.797 38.904 3.938 76.757-8.73 109.287-29.406 32.464-20.61 58.488-49.622 94.566-64.719 50.865-21.201 107.579-37.939 147.469-82.835 45.345-51 62.825-128.322 41.467-193.566-20.766-63.669-89.703-84.279-143.262-112.306-96.276-50.476-229.615-84.017-329.833-24.746-120.065 70.955-98.247 232.03-60.197 343.811 8.675 25.468 9.726 52.904 19.65 77.847z" fill="#D2D9FD"/>
    <path d="M199.582 383.653c2.629 4.07 4.534 7.614 4.337 12.603-.131 4.66-.854 9.255-1.248 13.849-.066.985-.132 1.904-.197 2.823-1.315-1.116-2.563-2.232-3.878-3.348-.591-.065-1.183-.065-1.84-.065 1.84 1.509 3.746 3.15 5.586 4.791-.197 3.216-.263 6.433-.263 9.649 0 1.903-.065 3.938.066 5.842-1.709-1.05-3.483-2.101-5.126-3.151-5.126-3.151-9.923-6.104-13.603-7.68-2.826-1.181-5.981-2.231-9.004-3.216-7.886-2.56-15.969-5.185-18.663-10.764-1.38-2.888-1.249-6.367.394-10.568 4.14-10.83.263-12.668-6.243-15.819-4.732-2.297-11.172-5.382-17.612-13.193a457.25 457.25 0 0 0-7.557-8.927c-6.638-7.811-10.318-12.077-9.858-14.571.131-.591.46-1.116 1.117-1.641a6.886 6.886 0 0 1 1.249-.788c2.497-1.378 4.994-.328 7.82.853 3.812 1.576 8.478 3.61 14.984.263 5.125-2.626 10.843-5.054 14.26-3.085 2.366 1.313 3.746 4.726 4.206 10.305.131 1.772.723 3.019 1.709 3.741 1.445 1.051 3.68.919 6.243.394 1.774 2.429 4.074 3.61 6.834 4.595 3.878 1.378 6.769 2.625 9.595 5.776 6.046 6.826 11.895 13.784 16.692 21.332z" fill="#2A94F4"/>
    <path d="M178.618 394.484c-3.943-2.626-7.36-8.993-10.646-15.163-4.469-8.401-9.134-17.066-15.509-16.869-10.252.263-19.386-11.815-19.518-11.88l-.854.656c.394.525 9.594 12.603 20.372 12.34 5.717-.131 10.252 8.205 14.523 16.344 3.352 6.236 6.835 12.734 10.975 15.556 2.497 1.641 7.098 4.989 12.552 9.255v-1.378c-4.797-4.004-9.069-7.024-11.895-8.861z" fill="#fff"/>
    <path d="M524.946 475.809s5.915-14.703-4.863-35.576c-10.843-20.873-19.584-17.656 6.506-33.738 26.09-16.081.131-66.622 22.344-73.055 22.212-6.432 41.467-88.283 58.356-77.846 16.889 10.436-5.651 50.541 6.441 62.618 12.026 12.078 13.669 27.371-11.238 39.777-24.907 12.406 17.678 59.796-16.101 74.236-33.778 14.441-24.052 71.086-61.445 43.584z" fill="#FFBE55"/>
    <path d="M535.264 491.365c-.066-.197-3.68-18.969 7.82-43.255 11.698-24.746 17.284-51.789 14.984-72.399-1.249-11.158 5.914-15.49 12.814-19.691 6.835-4.135 13.867-8.468 13.472-19.429-.328-9.911 3.878-33.147 4.009-34.132l1.512.263c-.066.262-4.338 24.089-4.009 33.803.394 11.881-7.032 16.41-14.195 20.742-6.835 4.135-13.209 8.073-12.092 18.247 2.366 20.807-3.286 48.178-15.115 73.186-11.237 23.827-7.754 42.14-7.689 42.337l-1.511.328z" fill="#fff"/>
    <path d="M624.967 369.41c9.398-4.463 19.387-2.429 14.195 6.958-5.192 9.386-12.946 10.108-11.5 17.525 1.445 7.417 5.257 15.49-6.966 20.216-12.224 4.661-17.941 3.873-25.367 17.591-7.492 13.719-10.055 23.892-22.87 20.611-12.814-3.348-2.168-20.217 4.469-27.306 0 0 9.003-7.614 8.872-21.332-.131-13.718-5.783-22.908 11.96-21.989 17.744.788 20.833-9.255 27.207-12.274z" fill="#0E538C"/>
    <path d="M570.422 461.894c.526-1.773 12.881-44.24 23.001-48.835 10.318-4.726 15.903-17.066 18.335-23.958 3.154-8.992 16.626-10.765 17.152-10.83l.197 1.51c-.131 0-13.077 1.706-15.903 9.78-3.023 8.729-8.806 20.15-19.124 24.876-9.463 4.332-22.015 47.457-22.146 47.916l-1.512-.459zm-325.495-34.198c-20.241-5.054-20.504-15.95-20.767-26.452-.197-8.598-.394-16.738-11.369-21.726-14.523-6.629-14.852-18.904-15.18-29.734-.263-8.073-.461-15.687-6.506-19.823-14.524-9.911-26.813-33.934-26.944-34.197l1.117-.591c.131.263 12.223 23.958 26.549 33.738 6.572 4.464 6.835 12.406 7.032 20.807.329 10.962.657 22.383 14.458 28.619 11.632 5.316 11.895 14.243 12.092 22.841.263 10.503.525 20.48 19.846 25.271l-.328 1.247z" fill="#fff"/>
    <path d="M217.654 417.982h332.462v-239.71a6.236 6.236 0 0 0-6.243-6.235H223.897c-3.417 0-6.243 2.756-6.243 6.235v239.71z" fill="#F7F7F7"/>
    <path d="M537.741 373.292H229.398V184.058h308.343v189.234z" fill="#0B4870" stroke="#fff" stroke-width=".5" stroke-miterlimit="10"/>
    <path d="M550.116 382.472h-332.33l-36.408 135.804h405.079l-36.341-135.804z" fill="#F2F2F2"/>
    <path d="M230.337 406.298h20.438c.855 0 1.512.657 1.315 1.379l-1.972 8.861c-.131.525-.657.919-1.314.919h-20.767c-.854 0-1.511-.657-1.314-1.444l2.3-8.861c.132-.46.657-.854 1.314-.854zm29.77 0h15.444l-2.038 11.224h-15.772l2.366-11.224zm23.133 0h15.443l-1.577 11.224h-15.772l1.906-11.224zm23.198 0h15.443l-1.183 11.224h-15.772l1.512-11.224zm23.132 0h15.443l-.723 11.224h-15.772l1.052-11.224zm23.132 0h15.444l-.263 11.224h-15.772l.591-11.224zm185.322 0h-23.198l2.497 11.224h23.592l-2.891-11.224zm-30.887 0h-15.444l2.037 11.224h15.773l-2.366-11.224zm-23.133 0h-15.443l1.577 11.224h15.772l-1.906-11.224zm-23.198 0h-15.443l1.183 11.224h15.772l-1.512-11.224zm-23.132 0h-15.443l.722 11.224h15.773l-1.052-11.224zm-23.132 0h-15.444l.263 11.224h15.772l-.591-11.224zm-38.642 0h15.444l.197 11.224H375.9v-11.224zm-152.331 19.56h32.201l-1.84 11.553h-32.859l2.498-11.553zm319.449 0h-39.824l2.234 11.553h40.679l-3.089-11.553zm-47.842 0h-15.903l1.774 11.553h16.298l-2.169-11.553zm-23.921 0h-15.903l1.314 11.553h16.298l-1.709-11.553zm-23.921 0h-15.903l.92 11.553h16.232l-1.249-11.553zm-23.921 0H407.51l.46 11.553h16.232l-.789-11.553zm-204.707 20.545h32.989l-2.431 11.487h-33.581l3.023-11.487zm41.204 0h16.495l-1.906 11.487h-16.823l2.234-11.487zm24.775 0h123.614l.46 11.487H282.845l1.84-11.487zm131.894 0h16.495l.92 11.487H417.17l-.591-11.487zm24.709 0h16.495l1.38 11.487H442.34l-1.052-11.487zm24.776 0h16.495l1.774 11.487h-16.758l-1.511-11.487zm24.709 0h16.495l2.235 11.487h-16.758l-1.972-11.487zm24.71 0h32.99l3.023 11.487h-33.582l-2.431-11.487zm-115.925-20.545h-15.837v11.553h16.1l-.263-11.553zm-23.921 0h-15.969l-.46 11.553h16.298l.131-11.553zm-23.921 0h-15.969l-.92 11.553h16.298l.591-11.553zm-23.92 0h-15.97l-1.38 11.553h16.298l1.052-11.553zm-23.921 0h-15.97l-1.84 11.553h16.298l1.512-11.553zm-23.921 0h-15.97l-2.234 11.553h16.232l1.972-11.553zm-48.894-26.583 2.629-9.977h7.492l-2.432 9.977h-7.689zm17.612-9.977h14.984l-2.037 9.977h-15.312l2.365-9.977zm22.541 0h14.984l-1.709 9.977h-15.246l1.971-9.977zm22.475 0h14.984l-1.314 9.977h-15.247l1.577-9.977zm22.476 0h14.983l-.92 9.977h-15.246l1.183-9.977zm22.475 0h14.983l-.526 9.977H337.85l.789-9.977zm22.475 0h14.983l-.131 9.977H360.72l.394-9.977zm22.475 0h14.984l.262 9.977h-15.246v-9.977zm22.475 0h14.984l.657 9.977h-15.246l-.395-9.977zm22.475 0h15.05l.985 9.977h-15.246l-.789-9.977zm22.541 0h14.984l1.446 9.977h-15.247l-1.183-9.977zm22.475 0h14.984l1.84 9.977h-15.246l-1.578-9.977zm22.476 0h14.983l2.234 9.977h-15.246l-1.971-9.977zm22.475 0h14.983l2.629 9.977h-15.246l-2.366-9.977z" fill="#0B4870" stroke="#fff" stroke-width=".5" stroke-miterlimit="10"/>
    <path d="M575.877 528.844H191.959c-5.849 0-10.581-4.726-10.581-10.568h405.079c0 5.842-4.732 10.568-10.58 10.568zm-144.84-54.479c-.395-2.363-2.498-4.136-4.863-4.136h-84.447c-2.431 0-4.468 1.773-4.863 4.136l-5.257 31.834c-.526 3.019 1.84 5.776 4.863 5.776h94.895a4.918 4.918 0 0 0 4.863-5.776l-5.191-31.834z" fill="#D3D3D3"/>
    <path d="M459.427 239.972s5.783 9.78 8.214 11.355c3.286 2.166 1.249 4.332-.328 4.398-1.578 0-9.595.591-11.369-1.444-1.775-2.035-2.629-8.008-4.272-9.583-1.643-1.576-3.352-7.811.789-9.321 3.614-1.378 6.966 4.595 6.966 4.595z" fill="#FFB750"/>
    <path d="M456.864 235.705s6.637 11.487 7.754 13.128c1.118 1.707-2.168 1.707-4.206.919-2.037-.788-7.163-8.992-7.886-10.502-.854-1.772-.131-3.807-.131-3.807l4.469.262z" fill="#FFE3CA"/>
    <path d="m450.16 241.81 1.577 11.749.789.066-.263-8.468-2.103-3.347zm-48.104-1.838s5.783 9.78 8.214 11.355c3.286 2.166 1.249 4.332-.328 4.398-1.578 0-9.595.591-11.369-1.444-1.775-2.035-2.629-8.008-4.272-9.583-1.643-1.575-3.417-8.008.789-9.321 3.68-1.181 6.966 4.595 6.966 4.595z" fill="#FFB750"/>
    <path d="M399.887 235.705s6.243 11.421 7.426 13.128c1.117 1.707-2.169 1.707-4.206.919-2.037-.788-7.163-8.992-7.886-10.502-.854-1.772-.131-3.807-.131-3.807l4.797.262z" fill="#FFE3CA"/>
    <path d="m392.855 241.81 1.512 11.749.854.066-.263-8.468-2.103-3.347z" fill="#FFB750"/>
    <path d="m376.426 150.901 52.311 23.827s5.849 1.903 6.506 8.402c2.037 20.216 17.152 52.247 17.152 52.247 4.863 2.363 4.469.329 4.469.329-3.089-9.846-6.769-50.279-8.149-66.492a979.78 979.78 0 0 0-.526-6.563c0-.526-.591-1.182-1.577-1.97-7.163-5.841-36.736-17.853-36.736-17.853-22.015-.591-33.45 8.073-33.45 8.073z" fill="#FFE3CA"/>
    <path d="M366.569 161.141c1.643 14.112 21.818 12.537 21.818 12.537h24.446s-6.44 14.309-8.937 26.32c-2.629 12.8-8.872 35.379-8.872 35.379s.394.788 4.863.328c0 0 19.19-38.201 26.55-47.85 1.577-2.034 6.111-13.324 6.9-20.019.263-2.232.131-4.004-.723-4.726-.854-.722-2.826-2.035-5.389-3.676-7.688-4.857-20.963-12.274-28.389-13.915-9.923-2.232-25.63-6.433-25.63-6.433s-8.28 7.943-6.637 22.055z" fill="#FFE3CA"/>
    <path d="M383.195 52.313s-3.68-6.957-1.906-14.309c1.775-7.417 8.675-14.768 18.729-11.355 10.055 3.413 18.204 11.158 12.158 20.216-6.046 8.993 5.455 13.128 2.497 17.394-2.957 4.267-1.84 8.796-.591 9.78 1.248.985 5.257 4.53 4.797 8.796-.46 4.2-19.518-12.274-19.518-12.274s-10.317-20.939-16.166-18.248z" fill="#0E538C"/>
    <path d="M413.884 141.056s-1.511 7.351-40.613-1.904c0 0 13.078-4.332 40.613 1.904z" fill="#EB4747"/>
    <path d="M372.812 141.187a90.6 90.6 0 0 1-1.84 3.479c14.26.394 28.586.853 42.847 1.247-2.234-7.548-1.512-17.788-1.117-25.533.46-9.518 5.717-16.082 5.191-25.665 2.826.46 3.286.525 6.112.985-4.337-12.34-5.783-18.444-19.255-23.17-4.403-1.576-7.229-1.838-11.96-1.444-15.575 1.312-20.241 1.444-27.93 15.556 11.96 1.903 9.989 6.17 13.603 18.116 1.775 5.776 3.615 12.274 2.695 18.379-.92 5.973-8.346 12.602-8.346 18.05z" fill="#fff"/>
    <path d="M397.653 75.484c-6.375-1.182-4.995-4.726-4.995-4.726s.263-1.97.395-4.53c0-.656.065-1.312.065-2.034 0-1.05-.065-2.1-.197-3.15-.526-4.267 11.566-1.707 11.566-1.707s-.723 8.664.986 11.224c1.643 2.625-1.446 6.17-7.82 4.922z" fill="#FFE3CA"/>
    <path d="M385.495 70.758s12.881 14.834 17.612 18.247c0 0 5.455-4.923 2.103-17.92 0 0-6.177-3.15-19.715-.327zm.394-35.707s-6.703 12.865-.065 25.008c6.637 12.143 19.649-5.317 20.438-7.352.854-2.035 5.323-13.653-3.549-17.131-8.872-3.545-14.918-4.004-16.824-.525z" fill="#FFE3CA"/>
    <path d="M398.77 61.371s-1.183 2.56-5.718 4.857c0-.656.066-1.312.066-2.034 0 0 3.089-.328 5.652-2.823z" fill="#FCD2B1"/>
    <path d="M331.278 129.635s-3.154 1.378-4.665.787c-1.512-.656-3.812-.787-4.535-.787-.986 0-4.074-1.116-4.009.131.066 1.182 4.995 2.035 5.981 2.429.985.393-3.023 2.56-3.418 3.544-.394.985 4.206 7.417 6.769 5.579 2.563-1.838 3.943-5.513 4.469-5.776.526-.262 1.906-1.247 1.906-1.247l-2.498-4.66z" fill="#FFE3CA"/>
    <path d="M321.158 135.148s-7.426 6.17-7.557 7.023c-.132.854.263 1.248.985.657.723-.525 7.361-5.776 7.361-5.776s-7.426 8.795-7.689 9.452c-.132.393.591 1.181.986.918.394-.262 8.346-8.532 8.346-8.532s-6.966 8.204-6.966 8.861c-.066.525.788 1.116 1.38.525.591-.591 7.491-7.811 7.491-7.811s-4.665 6.301-4.337 6.892c.197.328.789 1.05 1.906-.591s4.272-5.317 4.272-5.317l-6.178-6.301z" fill="#FFE3CA"/>
    <path d="M410.27 173.612h-21.883s-20.175 1.641-21.818-12.537c-1.643-14.112 6.637-21.989 6.637-21.989s10.646 2.823 19.978 5.055c4.666-.985 10.252-1.641 16.824-1.444 0 0 39.43 12.996 38.247 19.888 0 .065-16.495-8.73-37.985 11.027z" fill="#0E538C"/>
    <path d="m396.01 149.195 41.796-.657-21.095 10.699-20.701-10.042z" fill="#F2F2F2"/>
    <path d="M409.022 143.813s-9.398 3.61-20.898.328l-.526-4.267 23.724 1.313-2.3 2.626z" fill="#fff"/>
    <path d="m416.711 159.237-20.701-8.007v-2.035l22.343 8.008-1.642 2.034z" fill="#D3D3D3"/>
    <path d="M408.825 145.847c-.132 1.51 1.445 2.626 2.891 2.035l2.432-1.05c.723-.328 1.183-1.05 1.051-1.838-.986-6.301-3.154-30.85 0-35.116 1.183-1.576 1.906-2.954 2.3-4.135 2.103 5.382 4.666 12.339 5.718 16.081l19.715 26.255 6.637 1.707c-8.28-19.889-14.918-30.391-14.918-30.391-1.314-3.479-4.994-13.981-8.28-23.301-2.103-5.908-3.943-11.356-4.994-14.244-.526-1.51-1.512-2.756-2.892-3.544-3.089-1.838-8.149-4.726-12.749-6.958h-.066a3.192 3.192 0 0 0-.46-.197c8.806 13.194 5.389 50.673 3.615 74.696 0-.065 0-.065 0 0zm-32.596-73.645c-2.826.459-9.792 7.22-13.472 14.046-4.206 7.811-8.543 16.672-11.763 19.56-5.915 5.382-22.541 24.352-23.33 23.892-.328-.197 4.535 5.645 5.192 5.908.329.131 27.272-23.236 29.901-26.78 2.432-3.348 9.003-17.526 10.975-17.198.131.329 2.563 5.514 4.797 13.062.066.132.066.263.132.394 1.577 5.251 1.445 11.027.591 17.46-.657 4.857-4.272 12.799-6.44 16.672-.263.459-.197 1.378.066 2.035.197.393.394.722.722.853l7.952 2.954 1.84.656c1.315.525 2.76.263 3.812-.525a3.89 3.89 0 0 0 1.643-2.757c1.774-13.521 4.008-27.371 5.783-32.556 7.82-22.842-3.023-40.04-3.023-40.04s-12.881 1.445-15.378 2.364z" fill="#FFBE55"/>
    <path d="m416.71 159.237 12.421-33.869 40.022.657-11.83 31.243-40.613 1.969z" fill="#FFBE55"/>
    <path d="M441.946 140.334c-1.249 2.428-.855 5.119.854 5.907 1.709.853 4.009-.459 5.257-2.888 1.249-2.429.855-5.12-.854-5.907-1.709-.854-4.074.459-5.257 2.888z" fill="#F2F0F0"/>
    <path d="M417.631 76.337c-2.958-4.464-5.061-8.008-5.323-14.375-.198-4.2-1.118-9.911-4.009-12.734 3.023-7.876-.526-10.24-1.972-12.8-1.774-3.215-14.917-10.96-20.109-2.822-5.192 8.074-3.352 16.541-3.352 16.541.526-4.463 5.126-10.502 5.126-10.502.723 4.66 10.384 12.274 14.589 15.36a.502.502 0 0 0-.131.262c-2.366 3.413.591 6.826 1.117 10.436.526 3.61-9.923 13.325 1.709 18.182 11.632 4.923 15.312-3.15 12.355-7.548zm-211.543 382.34s-.263 2.757-13.143 2.757c-12.881 0-31.61-3.347-31.61-3.347l29.901-2.889s11.501-.59 14.852 3.479z" fill="#0E538C"/>
    <path d="M173.296 459.662c-7.295 0-10.384 3.741-13.275 4.923-2.892 1.181-5.783 2.953-5.783 2.888 1.643-3.216 3.943-3.282 5.126-4.332 1.183-1.05.854-.525-1.709-.722-1.446-.132-4.074 2.56-5.915 4.069-1.642 1.247-2.628 1.379-2.628 1.379s1.906-2.691 4.271-4.858c2.892-2.625 6.506-4.791 7.361-5.185 1.577-.656 6.44-.788 9.857-.328 3.943.525 7.952 2.166 2.695 2.166z" fill="#0E538C"/>
    <path d="M161.203 457.955s-5.586 1.444-6.571 2.232c-.657.525-3.549 3.61-3.549 3.61s2.103-.328 3.286-1.51c1.248-1.247 6.834-4.332 6.834-4.332zm34.305-4.923s14.063.919 13.077 9.584c-.526 4.922-3.746 6.629-8.017 6.235-7.886-.656-16.824-1.838-16.824-1.838l-4.008-13.455 15.772-.526z" fill="#0E538C"/>
    <path d="m198.465 454.214 13.801-44.437s2.037-6.498 5.388-5.317c4.798 1.773 2.432 7.089 2.038 10.24-.855 6.432-.263 9.255-4.732 24.745-2.76 9.584-5.126 20.611-7.492 26.912-1.643 4.332-4.468-1.904-8.74-3.61-8.017-3.216-.263-8.533-.263-8.533zm1.052-68.592c2.694 7.746 11.04 11.75 18.729 8.927 7.623-2.822 11.697-11.421 9.003-19.166-2.694-7.745-11.04-11.749-18.729-8.927-7.623 2.823-11.698 11.421-9.003 19.166z" fill="#0E538C"/>
    <path d="M184.401 386.344c4.206 6.302 12.618 7.877 18.73 3.545l-.855-7.417c6.112-4.398 7.624-13.062 3.418-19.363l-2.892-4.267c-4.206-6.301-12.618-7.876-18.729-3.544l-2.76 1.969c-6.112 4.397-7.623 13.062-3.418 19.363l6.506 9.714z" fill="#0E538C"/>
    <path d="M178.881 365.668a25.755 25.755 0 0 0 2.432 3.02c6.046 6.564 14.129 9.058 19.255 6.367 2.366 3.216 5.06 5.776 7.492 7.745 2.825 2.297 10.054 3.216 10.054 3.216 4.206 4.595-11.566 31.441-12.683 31.309-2.3-.196-5.257-15.031-3.089-20.413.986-2.428 2.563-5.317 2.103-6.629-1.643-4.529-3.943-3.742-3.943-3.742s-3.023 3.545-5.389 3.413c-2.431-.196-6.637-4.003-6.834-4.069a10.51 10.51 0 0 1-1.972-2.166l-6.308-9.452c-1.643-2.625-2.038-5.776-1.118-8.599z" fill="#FFE3CA"/>
    <path d="M227.117 478.762s-5.126 6.17-6.703 6.827c-2.103.919-8.543-1.05-8.543-1.05s-1.709-28.29-3.68-39.318c-1.972-11.027-4.863-13.915-4.995-17.394-.197-5.579-4.863-7.81-4.074-12.143.789-4.332 2.169-19.822 2.629-17.787 4.008 17.591 8.937 2.953 10.054.656.592-1.247 15.312 80.209 15.312 80.209z" fill="#F2F0F0"/>
    <path d="M203.788 392.646s-6.243 6.826-5.783 9.517c.394 2.691-2.695 11.093.394 22.777 3.483 13.324 5.323 22.382 5.98 31.112.657 8.73-2.3 16.738-1.117 27.436.92 8.402 2.826 8.862 2.826 8.862s3.746.919 6.374-2.363c2.629-3.217-1.314-31.835-2.628-38.924-1.315-7.154-5.52-23.826-6.638-28.749-1.38-6.039-1.117-12.209-1.051-13.981.329-6.235 1.117-10.108 1.774-12.471.066-.328.395-4.004-.131-3.216zm10.909 8.008c3.417 9.845 14.063 14.899 23.789 11.289 9.726-3.61 14.852-14.506 11.435-24.351-3.417-9.846-14.063-14.9-23.789-11.29-9.727 3.544-14.852 14.506-11.435 24.352z" fill="#0E538C"/>
    <path d="m181.247 569.868 3.483 27.764-15.115 7.155-8.346 1.838 14.852-11.487-4.863-25.073 9.989-.197z" fill="#FCBAA2"/>
    <path d="m185.716 601.833-3.286.854-2.235-2.035-12.091 6.039-10.712 2.56s-.132-.854.197-1.313c1.314-1.772 8.872-5.645 8.872-5.645s.131 2.56 1.183 2.625c1.051.066 10.317-4.791 12.486-6.104 3.68-2.297 4.403-3.807 4.666-3.61.788.394.92 6.629.92 6.629z" fill="#0E538C"/>
    <path d="m144.774 531.273-12.026 23.629-16.56-.787-8.281-2.429 18.335-3.085 9.989-20.216 8.543 2.888z" fill="#FCBAA2"/>
    <path d="m131.763 559.103-3.286-.788-1.052-2.888-14.917-.196-8.872-2.101s1.051-1.181 1.708-1.51c1.972-.853 9.004-1.247 9.004-1.247s-.723 2.035.197 2.56c.92.591 11.172.919 13.669.722 4.337-.328 5.586-1.247 5.717-.984.46.919-2.168 6.432-2.168 6.432z" fill="#0E538C"/>
    <path d="m232.506 460.581-8.937 4.004.066 12.274-61.577-10.043s-5.849-1.903-9.595 7.746c-5.323 13.652-18.86 56.12-18.86 56.12l8.543 9.255 26.878-47.981s55.071 26.714 73.208 20.938c6.966-2.231 12.289-14.965 11.304-27.83-.789-10.109-2.76-19.363-2.76-19.363l-18.27-5.12z" fill="#FFB750"/>
    <path d="m224.686 512.632-44.096-3.282 3.812 70.364-13.012.459-9.595-82.441s2.563-12.274 10.975-10.437c8.477 1.904 28.849 18.051 51.916 25.337z" fill="#FFB750"/>
    <path d="M254.39 530.288s-23.132-25.927-29.113-40.564c-7.163-17.525-6.571-39.514-7.886-46.8-2.431-13.39-5.388-39.382-5.914-42.599-.592-3.216 1.446-6.826 1.446-6.826s-1.512-9.714 2.825-8.664c6.244 1.509 12.421 4.923 14.59 5.973 4.074 1.838 12.42 50.804 12.88 53.167 1.709 8.532 7.952 16.278 12.421 24.22 10.514 18.838 13.209 41.089 13.209 41.089s-1.315 16.278-14.458 21.004z" fill="#2A94F4"/>
    <path d="M230.535 462.484s-.197 3.151-14.918 2.429c-14.721-.788-36.276-5.711-36.276-5.711l34.107-1.575s13.078.066 17.087 4.857z" fill="#FFE3CA"/>
    <path d="M190.908 460.909c-7.032-.131-10.055 3.479-12.815 4.595-2.76 1.116-5.586 2.757-5.586 2.757 1.577-3.085 3.811-3.151 4.994-4.136 1.118-.984.855-.459-1.643-.722-1.445-.131-3.943 2.429-5.717 3.873-1.577 1.247-2.563 1.313-2.563 1.313s1.84-2.626 4.14-4.726c2.826-2.494 6.243-4.595 7.098-4.923 1.511-.591 6.177-.656 9.529-.131 3.746.525 7.623 2.231 2.563 2.1z" fill="#FFE3CA"/>
    <path d="M179.144 459.005s-5.389 1.313-6.309 2.035c-.657.525-3.417 3.479-3.417 3.479s1.971-.328 3.154-1.444c1.183-1.05 6.572-4.07 6.572-4.07z" fill="#FFE3CA"/>
    <path d="m218.771 459.005 21.818-11.486s.066 13.915.198 19.232c.131 5.316 2.365 12.799-1.84 13.915-4.206 1.116-6.375.525-2.038 3.085 4.338 2.494 3.352 5.12 1.709 7.286-1.643 2.166 5.52 24.22 3.812 25.467-6.769-8.533-14.064-19.1-17.218-26.78-4.009-9.977-5.586-21.398-6.441-30.719z" fill="#0E538C"/>
    <path d="m225.803 453.426-.854-44.371s.066-13.85.329-17.919c.262-4.201 7.426.722 7.426.722s10.054 13.587 10.251 46.34c.132 21.923-1.051 33.344-11.171 32.425-9.398-.853-20.11-2.297-20.11-2.297l-4.666-12.143 18.795-2.757z" fill="#2A94F4"/>
    <path d="m223.569 476.859-75.114-9.386.197-1.576 75.114 9.387-.197 1.575z" fill="#D3D3D3"/>
    <path d="M190.645 471.083c-.132 1.247-1.118 2.166-2.169 2.035l-38.51-4.792c-1.052-.131-2.366-1.116-3.286-4.398l-14.852-38.398c.197-1.575 1.446-2.363 2.497-1.969l39.365 6.17c1.051.394 1.774 1.313 2.168 3.019l14.787 38.333z" fill="#D3D3D3"/>
    <path d="m185.782 472.133.394.066 37.59 4.725c-1.446.591-3.746.788-6.309.46l-31.478-3.938-.395-.066-31.478-3.938c-2.563-.328-4.732-1.116-6.046-1.969l37.722 4.66z" fill="#D3D3D3"/>
    <path d="m225.803 453.426-.854-44.371s.657-3.741 1.971-7.089c.329 4.858 2.563 39.842 2.826 44.437.329 4.989 4.403 5.514 5.257 7.155.92 1.575.132 1.903-2.891 1.312-2.957-.656-1.906-.131-1.249 1.444.657 1.641-.985 1.182-6.769-.919-4.205-1.509-12.289.001-16.363.919l18.072-2.888z" fill="#0E538C"/>
    <path d="M485.516 344.533c-7.229 1.904-20.569 8.599-23.395 20.085-4.206 17.263 4.206 42.534-9.069 67.345-4.272 7.876 73.405 18.51 73.405 18.51l14.984-87.168s-18.729-18.903-22.541-20.216c-7.952-2.626-18.926-2.363-33.384 1.444z" fill="#CCE9FF"/>
    <path d="M541.507 363.371c2.694 6.958 9.529 48.375 1.906 58.155-.855 1.116 3.943 2.888 3.088 8.008-.131.853-1.577 4.988-1.577 4.988l-6.177 1.641-13.472-15.556s5.454-8.467 12.618-40.564c2.102-9.452 3.023-18.247 3.614-16.672z" fill="#2A94F4"/>
    <path d="M490.511 412.862s6.506 17.131 22.212 21.726c2.694.788 4.403 3.807 3.089 4.792-1.709 1.247-3.943 1.509-7.886 1.509-8.215 0-19.387-2.625-27.076-10.37-11.435-11.421-15.049-16.672-13.866-22.383 1.051-5.842 23.527 4.726 23.527 4.726z" fill="#FCD2B1"/>
    <path d="M464.355 358.842c-3.351 5.645-5.257 14.703-5.191 27.699 0 10.043 8.412 26.518 9.66 31.572.197.853.723 4.463.723 4.463l9.266 9.452 18.598-13.062-5.652-8.992-1.708.197s-1.052-4.989-.789-6.892c.263-1.904-5.126-27.831-7.82-44.437-1.512-9.649-13.801-5.579-17.087 0z" fill="#2A94F4"/>
    <path d="m481.047 409.777 5.455-1.707 2.234-.59c.131 1.575 1.446 2.625 1.446 2.625l-4.272.525-4.929 1.576-5.783 4.135 5.849-6.564z" fill="#0E538C"/>
    <path d="m511.54 434.523 9.463-2.691s2.695 3.741 2.169 4.66c-.526.919 0 6.432 0 6.432l-4.6 4.07-3.746-1.313s-.263-1.706.986-1.838c1.314-.197-.855-1.116-1.512-1.509-.657-.46-6.111-3.348-2.76-7.811z" fill="#FCD2B1"/>
    <path d="M496.951 343.68c-1.052 3.085.525 6.564 3.548 7.614l5.389 1.969c3.023 1.116 6.309-.591 7.36-3.676l4.798-14.178c1.051-3.085-.526-6.563-3.549-7.679l-5.389-1.969c-3.023-1.116-6.309.59-7.36 3.675l-4.797 14.244z" fill="#FF957E"/>
    <path d="M520.477 356.151c-.525 2.035-2.628 3.282-4.6 2.691l-16.232-4.66c-1.971-.591-3.154-2.691-2.628-4.792l6.637-24.876c.526-2.035 2.629-3.282 4.6-2.692l16.232 4.595c1.972.591 3.155 2.691 2.629 4.792l-6.638 24.942z" fill="#FCD2B1"/>
    <path d="M528.889 328.714c.132-.131-1.511-1.969-.657-5.579 1.117-4.857-2.497-6.826-5.192-6.892-1.577-.065-6.9 2.494-9.726 3.348-2.825.853-2.563-.263-7.689-1.182-3.417-.656-4.205 1.247-5.388 3.873-1.183 2.691-1.315 12.931-1.315 12.931.46.656 1.183 1.181 1.643.656.46-.525 2.3-8.73 3.812-11.159 1.446-2.428 7.36 1.444 10.58 3.348 3.155 1.903 5.981 2.232 11.041 1.181.591.657 1.117 1.379 1.117 1.707 0 .656-1.446 5.317-1.446 5.317s2.826-1.772 3.615-3.151c.394-.459.525-2.691-.395-4.398z" fill="#FFBE55"/>
    <path d="M502.142 344.205c-.197.656-.854 1.116-1.511.919l-3.483-.985c-.657-.197-1.052-.919-.854-1.575l1.774-6.63c.197-.656.854-1.115 1.511-.919l3.483.985c.658.197 1.052.919.855 1.575l-1.775 6.63z" fill="#FCD2B1"/>
    <path d="M499.974 337.904s-2.629 9.78-3.483 13.062c-.789 2.953-1.38 9.78 14.721 14.374 9.528 2.691 11.106-4.66 11.763-7.023.46-1.838-.066-7.811-.789-9.124 0-.065-1.051 4.07-1.051 4.07s-.92-4.529-5.455-5.776c-7.294-2.101-10.186 1.903-13.34.853-2.498-.853-3.22-5.579-2.366-10.436z" fill="#FFBE55"/>
    <path d="m510.949 352.935 4.994 1.444a1.185 1.185 0 0 0 1.512-.919l.197-.722-7.426-2.101-.197.722c-.132.722.262 1.379.92 1.576z" fill="#FCD2B1"/>
    <path d="M590.137 452.376c-2.3 6.629-42.782 30.981-56.385 29.537l-40.942 2.035c-34.764-4.398-51.259-60.321-51.259-60.321 1.38-14.047 35.684 6.301 47.908 12.602 19.321 9.977 31.61 10.502 31.61 10.502 12.946 1.378 27.929-8.992 44.293-9.32 17.94-.46 28.455 4.529 24.775 14.965z" fill="#0B4870"/>
    <path d="M501.157 445.681c0-.066 0-.066 0 0v-1.838l70.382-1.313v1.838l-.197.328c-.854 1.576-2.497 1.838-4.337 1.904l-61.248 1.181c-1.84.066-3.483-.197-4.403-1.706l-.197-.394z" fill="#D3D3D3"/>
    <path d="M518.112 445.615s0 .066 0 0l-.197.329c-.263.393-.592.722-.986.918l-10.712.197c-1.774.066-3.352-.131-4.272-1.378l-.197-.263-.065-.065v-.854l16.297-.328.132 1.444zm9.529-.656 35.158-.656v-1.248l-35.224.722.066 1.182zm-9.135-1.51 8.478-35.969c.197-.919 1.117-1.707 2.037-1.773l49.419-.918c.92 0 1.446.722 1.248 1.706l-8.477 35.97-52.705.984z" fill="#D3D3D3"/>
    <path d="M486.633 493.203c4.863.853 8.609-4.989 8.609-4.989l12.618-10.239-2.694-6.958-24.579 11.421s1.118 9.911 6.046 10.765z" fill="#FCD2B1"/>
    <path d="M495.176 487.82s0 .591-.92 3.282c-.92 2.692-2.103 3.61-3.286 4.004-4.731 1.444-8.083.722-19.386 2.954-11.303 2.232-14.721.525-18.006-4.857-3.286-5.383.131-9.649 5.651-10.043 7.952-.591 12.421.328 16.561-.328 4.337-.656 4.6-1.707 7.163-3.348 2.366-1.509 4.6 7.549 2.366 9.649-2.037 1.838 8.214 2.101 9.857-1.313z" fill="#FFB750"/>
    <path d="M492.811 493.006c-4.666 1.444-8.083.722-19.387 2.954-11.303 2.231-14.72.525-18.006-4.858-1.512-2.494-1.577-4.725-.723-6.432-2.497 1.772-3.352 4.857-1.117 8.533 3.286 5.382 6.703 7.089 18.006 4.857 11.304-2.232 14.721-1.51 19.387-2.954.92-.262 1.84-.919 2.628-2.428-.263.131-.525.262-.788.328z" fill="#fff"/>
    <path d="M495.176 488.018v-.132c0 .066-.065.131-.131.197.066-.066.131-.065.131-.065z" fill="#E9D6B8"/>
    <path d="M470.795 492.021c-.328.132-.657-.59-.788-1.575-.197-2.035-.657-4.004-1.315-6.039-.328-.984-.328-1.837.066-1.969.394-.131 1.052.591 1.314 1.576.658 1.969 1.052 4.003 1.249 5.973.132.984-.197 1.903-.526 2.034zm3.483-.656c-.394.066-.723-.591-.854-1.51-.197-1.903-.657-3.807-1.314-5.645-.329-.918-.329-1.706.131-1.772.394-.065 1.052.657 1.38 1.576.592 1.837 1.052 3.741 1.249 5.579.065.919-.197 1.706-.592 1.772zm3.68-.131c-.394.065-.788-.657-.92-1.641-.328-1.969-.788-3.873-1.511-5.842-.329-.985-.329-1.772.066-1.772.46 0 1.117.722 1.445 1.706.723 1.904 1.183 3.873 1.446 5.776.132.919-.131 1.707-.526 1.773z" fill="#fff"/>
    <path d="M487.488 476.465s86.549-36.823 91.478-36.888c16.692-.132 12.88 17.328 4.403 25.598-9.989 9.715-85.958 27.503-85.958 27.503l-9.923-16.213z" fill="#0E538C"/>
    <path d="m521.792 482.898-23.658-23.236 10.12-10.305 25.761 28.093-12.223 5.448z" fill="#FCD2B1"/>
    <path d="M526.655 464.65s-60.131-57.039-64.14-58.745c-13.735-5.777-22.212 9.911-21.752 15.359.657 7.023 61.708 64.128 61.708 64.128l24.184-20.742z" fill="#0E538C"/>
    <path d="M562.273 484.67c1.38 1.313 1.643 5.316 1.643 5.316s-20.044 7.877-27.075 8.008c-1.84.066-5.126-.722-8.281-1.641-.525-.131-1.774-1.575-2.3-1.706-.986-.263-1.183.656-1.971.394-2.103-.722-3.68-1.313-3.746-1.444-4.272-9.321-2.826-13.916-2.826-13.916s9.2 2.757 7.623.591c-3.351-4.595 6.309-9.255 8.412-6.826 8.675 9.78 24.447 7.351 28.521 11.224z" fill="#FFB750"/>
    <path d="M563.39 486.639c-6.177 2.56-19.123 7.745-21.686 7.942-10.58.788-17.941-3.085-22.87-5.382.46 1.313.986 2.822 1.709 4.398.066.131 1.577.722 3.746 1.444.854.262 1.051-.722 1.971-.394.526.131 1.709 1.575 2.301 1.706 3.154.919 6.44 1.641 8.28 1.641 7.032-.131 27.075-8.008 27.075-8.008s0-1.837-.526-3.347zm-14.129-6.039c.198.394-.591.788-1.708 1.05-2.3.46-4.535 1.182-6.769 2.101-1.117.459-2.103.591-2.234.197-.132-.394.591-1.116 1.708-1.576 2.169-.918 4.469-1.575 6.703-2.034 1.052-.329 2.103-.132 2.3.262zm-4.534-1.641c.197.394-.592.919-1.709 1.247-2.234.657-4.403 1.576-6.571 2.692-1.052.525-2.038.722-2.169.328-.132-.394.591-1.247 1.643-1.772 2.103-1.051 4.271-1.97 6.506-2.56 1.117-.46 2.168-.329 2.3.065zm-4.337-1.444c.131.394-.592.985-1.643 1.379a40.359 40.359 0 0 0-6.309 3.15c-.986.657-1.906.854-2.037.394-.132-.394.525-1.313 1.577-1.969 2.037-1.247 4.14-2.297 6.243-3.085 1.051-.328 2.037-.263 2.169.131z" fill="#fff"/>
    <g clip-path="url(#ldywruizka)">
        <path d="M394.634 285.041a7.965 7.965 0 0 1 4.035-6.93c-1.259-1.542-3.152-2.925-5.239-3.33-2.846-.554-4.47.368-5.52.738-1.05.369-2.445.702-2.445.702s-1.394-.333-2.445-.702c-1.049-.37-2.673-1.293-5.519-.739-2.846.553-5.331 2.924-6.341 5.038-1.948 4.079-1.147 9.21.23 12.901 1.375 3.692 5.01 8.85 7.83 9.265 2.005.295 3.246-1.089 6.245-1.44 2.998.351 4.24 1.735 6.245 1.44 2.819-.415 6.455-5.573 7.83-9.265l.102-.278a7.972 7.972 0 0 1-5.008-7.4zm-9.881-10.935s2.788.369 5.32-2.502c2.532-2.871 1.812-5.588 1.812-5.588s-2.788-.37-5.32 2.502c-2.533 2.871-1.812 5.588-1.812 5.588z" fill="#fff"/>
    </g>
    <defs>
        <clipPath id="ldywruizka">
            <path fill="#fff" transform="translate(370 266)" d="M0 0h29.643v36.026H0z"/>
        </clipPath>
    </defs>
</svg>
