<?xml version="1.0" encoding="utf-8"?>
<!-- Generator: Adobe Illustrator 22.0.1, SVG Export Plug-In . SVG Version: 6.00 Build 0)  -->
<svg version="1.1" id="레이어_1" xmlns="http://www.w3.org/2000/svg" xmlns:xlink="http://www.w3.org/1999/xlink" x="0px"
	 y="0px" viewBox="0 0 270.2 542" style="enable-background:new 0 0 270.2 542;" xml:space="preserve">
<style type="text/css">
	.st0{fill:#3F3D56;}
	.st1{fill:#FFFFFF;}
	.st2{fill:#BB08EF;}
</style>
<path class="st0" d="M270.2,128.8h-3V47.2C267.2,21.1,246.1,0,220,0l0,0H47.2C21.1,0,0,21.1,0,47.2v0v447.5
	c0,26.1,21.1,47.2,47.2,47.2H220c26.1,0,47.2-21.1,47.2-47.2V186.8h3V128.8z"/>
<path class="st1" d="M221.9,12.3h-22.6c3.5,8.6-0.6,18.3-9.2,21.8c-2,0.8-4.2,1.2-6.3,1.2h-99c-9.3,0-16.7-7.5-16.7-16.8
	c0-2.2,0.4-4.3,1.2-6.3H48.3C28.8,12.3,13,28.1,13,47.5c0,0,0,0,0,0v446.8c0,19.5,15.8,35.3,35.3,35.3h173.7
	c19.5,0,35.3-15.8,35.3-35.3l0,0l0,0V47.5C257.2,28.1,241.4,12.3,221.9,12.3C221.9,12.3,221.9,12.3,221.9,12.3z"/>
<circle id="b5dcbba4-f290-467d-a612-e64d8f6895fb" class="st2" cx="135.1" cy="261.2" r="84.4"/>
<path class="st1" d="M160.1,267l-21,21.6c-0.9,0.9-2.2,1.4-3.5,1.4h-0.1c-1.3,0-2.6-0.5-3.5-1.4l-21-21.6c-0.1-0.1-0.1-0.1-0.2-0.2
	c-1.7-1.9-1.6-4.8,0.2-6.5c2-1.9,5.1-1.9,7.1,0l12.4,13v-33.5c0.1-2.8,2.5-4.9,5.2-4.8c2.6,0.1,4.7,2.2,4.8,4.8v33.5l12.4-13
	c2-1.9,5.1-1.9,7.1,0c0.1,0.1,0.1,0.1,0.2,0.2C162.1,262.3,162,265.3,160.1,267z"/>
</svg>
