<?xml version="1.0" encoding="utf-8"?>
<!-- Generator: Adobe Illustrator 22.0.1, SVG Export Plug-In . SVG Version: 6.00 Build 0)  -->
<svg version="1.1" id="레이어_1" xmlns="http://www.w3.org/2000/svg" xmlns:xlink="http://www.w3.org/1999/xlink" x="0px"
	 y="0px" viewBox="0 0 424.1 246.5" style="enable-background:new 0 0 424.1 246.5;" xml:space="preserve">
<style type="text/css">
	.st0{fill:#3F3D56;}
	.st1{fill:#FFFFFF;}
	.st2{fill:#BB08EF;}
</style>
<path class="st0" d="M391.9,0H25.5c-5.6,0-10.1,4.5-10.1,10.1v0v204.1c0,5.6,4.5,10.1,10.1,10.1l0,0h366.4c5.6,0,10.1-4.5,10.1-10.1
	l0,0V10.1C402,4.6,397.4,0,391.9,0L391.9,0L391.9,0z"/>
<rect x="28.9" y="17.9" class="st1" width="359.5" height="202.8"/>
<circle class="st1" cx="208.4" cy="8.6" r="3.7"/>
<path class="st0" d="M412.1,217H377v-2.5c0-0.3-0.2-0.5-0.5-0.5l0,0h-12c-0.3,0-0.5,0.2-0.5,0.5v0v2.5h-7.5v-2.5
	c0-0.3-0.2-0.5-0.5-0.5l0,0h-12c-0.3,0-0.5,0.2-0.5,0.5l0,0l0,0v2.5h-7.5v-2.5c0-0.3-0.2-0.5-0.5-0.5l0,0h-12
	c-0.3,0-0.5,0.2-0.5,0.5l0,0l0,0v2.5h-7.5v-2.5c0-0.3-0.2-0.5-0.5-0.5l0,0h-12c-0.3,0-0.5,0.2-0.5,0.5l0,0v2.5h-7.5v-2.5
	c0-0.3-0.2-0.5-0.5-0.5l0,0h-12c-0.3,0-0.5,0.2-0.5,0.5l0,0l0,0v2.5h-7.5v-2.5c0-0.3-0.2-0.5-0.5-0.5h-12c-0.3,0-0.5,0.2-0.5,0.5
	l0,0l0,0v2.5h-7.5v-2.5c0-0.3-0.2-0.5-0.5-0.5h-94.2c-0.3,0-0.5,0.2-0.5,0.5l0,0l0,0v2.5h-7.5v-2.5c0-0.3-0.2-0.5-0.5-0.5l0,0h-12
	c-0.3,0-0.5,0.2-0.5,0.5l0,0l0,0v2.5h-7.5v-2.5c0-0.3-0.2-0.5-0.5-0.5l0,0h-12c-0.3,0-0.5,0.2-0.5,0.5l0,0l0,0v2.5h-7.5v-2.5
	c0-0.3-0.2-0.5-0.5-0.5h-12c-0.3,0-0.5,0.2-0.5,0.5l0,0l0,0v2.5h-7.5v-2.5c0-0.3-0.2-0.5-0.5-0.5h-12c-0.3,0-0.5,0.2-0.5,0.5l0,0
	l0,0v2.5h-7.5v-2.5c0-0.3-0.2-0.5-0.5-0.5l0,0h-12c-0.3,0-0.5,0.2-0.5,0.5v2.5h-7.5v-2.5c0-0.3-0.2-0.5-0.5-0.5l0,0h-12
	c-0.3,0-0.5,0.2-0.5,0.5l0,0v2.5H12.1c-6.6,0-12,5.4-12,12v5.4c0,6.6,5.4,12,12,12h400c6.6,0,12-5.4,12-12V229
	C424.1,222.4,418.7,217,412.1,217z"/>
<circle class="st2" cx="208.7" cy="113.1" r="46.1"/>
<polygon class="st1" points="201.2,91.8 216.2,91.8 216.2,106.3 225.8,106.3 208.6,141 191.5,106.3 201.2,106.3 "/>
</svg>
