<svg width="738" height="668" viewBox="0 0 738 668" fill="none" xmlns="http://www.w3.org/2000/svg">
    <path d="M647.139 486.652c-1.153 2.851-2.428 5.703-3.825 8.433-20.766 40.711-62.906 66.375-107.838 70.986-35.946 3.641-70.921-8.069-100.977-27.181-29.996-19.051-54.041-45.868-87.376-59.822-46.997-19.597-121.267 1.225-158.123-40.275-41.897-47.142-146.082-77.111-146.082-164 0-149.743 148.127-111.241 237.082-157.897 88.954-46.657 254.458-106.89 347.056-52.103 110.935 65.587 73.395 246.578 38.239 349.902-8.015 23.541-8.987 48.902-18.156 71.957z" fill="#D2D9FD"/>
    <path d="m98.916 366.038.022 7.885-6.794 3.962-.022-7.885 6.794-3.962zm.044 15.77.022 7.885-6.793 3.962-.022-7.885 6.793-3.962zm.044 15.77.022 7.885-6.793 3.962-.022-7.885 6.793-3.962zm.044 15.771.023 7.885-6.794 3.961-.022-7.885 6.793-3.961zm.045 15.77.022 7.881-6.794 3.962-.022-7.881 6.794-3.962zm.044 15.766.022 7.885-6.793 3.962-.023-7.885 6.794-3.962zm.045 15.77.022 7.885-6.794 3.962-.022-7.885 6.794-3.962zm.044 15.77.022 7.886-6.794 3.961-.022-7.884 6.794-3.963zm.044 15.771.022 7.885-6.793 3.962-.023-7.885 6.794-3.962zm5.367-145.291.421 149.814-1.537.896-.42-149.814 1.536-.896z" fill="#fff"/>
    <path d="M576.066 202.777c.809.467 1.468 1.608 1.465 2.537-.002.929-.666 1.31-1.474.844-.809-.467-1.471-1.613-1.468-2.542.003-.93.669-1.305 1.477-.839zm15.803 9.123c.812.468 1.471 1.609 1.469 2.538-.003.929-.666 1.311-1.478.842l-10.428-6.02c-.809-.467-1.468-1.611-1.465-2.541.002-.929.666-1.307 1.474-.84l10.428 6.021zm32.454 29.708-.369 130.254-75.395-43.522.369-130.254 75.395 43.522z" fill="#C7E2ED"/>
    <path d="M619.769 220.33c5.062 2.948 9.19 10.16 9.174 16.027l-.401 142.799c-.017 5.867-4.172 8.256-9.235 5.308l-66.194-38.544c-5.063-2.948-9.191-10.16-9.174-16.027l.401-142.799c.016-5.867 4.172-8.255 9.234-5.307l66.195 38.543zm3.912 151.869.367-130.456-74.86-43.591-.367 130.457 74.86 43.59zm-42.211-166.24c-.803-.468-1.461-.089-1.464.841-.002.931.651 2.077 1.455 2.545l10.354 6.029c.806.469 1.465.087 1.467-.843.003-.931-.652-2.073-1.458-2.543l-10.354-6.029m-5.337-3.107c-.803-.468-1.464-.092-1.467.839-.002.93.655 2.078 1.458 2.546.803.468 1.461.085 1.464-.845.002-.931-.652-2.073-1.455-2.54z" fill="#FEFFFF"/>
    <path d="M632.631 233.281a10.99 10.99 0 0 0-.021-.444c-.004-.071-.011-.142-.016-.213l-.007-.087-.012-.149a14.059 14.059 0 0 0-.116-.916l-.004-.024-.005-.029a14.48 14.48 0 0 0-.169-.898c-.013-.062-.029-.125-.043-.188l-.024-.101c-.015-.066-.029-.131-.046-.197a16.716 16.716 0 0 0-.24-.877l-.017-.057-.014-.051a20.28 20.28 0 0 0-.319-.958l-.038-.1-.028-.076-.105-.281a21.405 21.405 0 0 0-.182-.453c-.046-.113-.096-.226-.144-.339l-.023-.053-.023-.054a20.694 20.694 0 0 0-.441-.943l-.042-.08-.051-.101c-.065-.126-.128-.252-.195-.378-.086-.163-.179-.322-.269-.483-.047-.082-.091-.166-.139-.248l-.053-.097c-.08-.135-.167-.264-.249-.397-.126-.206-.251-.413-.383-.614-.022-.033-.041-.067-.063-.1a21.86 21.86 0 0 0-.541-.774l-.043-.061-.005-.008a21.808 21.808 0 0 0-.737-.947l-.021-.026-.013-.016c-.233-.28-.472-.555-.719-.823l-.05-.052-.056-.059a17.789 17.789 0 0 0-.662-.675l-.111-.103-.089-.084-.206-.192a19.49 19.49 0 0 0-.41-.359c-.056-.048-.114-.093-.171-.14a6.21 6.21 0 0 0-.093-.076l-.146-.12a12.657 12.657 0 0 0-.403-.308c-.094-.071-.19-.138-.285-.205l-.058-.041c-.019-.013-.037-.027-.056-.039a14.34 14.34 0 0 0-.775-.497l-.09-.052-66.583-38.622a9.574 9.574 0 0 0-.291-.163l-.114-.06-.147-.076-.114-.06c-.065-.032-.129-.061-.193-.091l-.128-.06-.05-.024a8.088 8.088 0 0 0-.368-.156l-.004-.002-.041-.016a9.048 9.048 0 0 0-.325-.123l-.055-.017-.138-.046c-.058-.019-.118-.04-.176-.058l-.1-.027a10.044 10.044 0 0 0-.164-.046c-.039-.01-.078-.023-.117-.032-.047-.012-.093-.021-.139-.031l-.161-.036-.079-.018c-.053-.01-.107-.017-.16-.027l-.186-.03-.058-.01c-.055-.007-.107-.01-.161-.017-.067-.007-.133-.015-.199-.02a.88.88 0 0 0-.051-.005c-.047-.003-.091-.003-.137-.005-.08-.003-.161-.007-.24-.008l-.061-.002c-.034 0-.068.004-.103.005a5.728 5.728 0 0 0-.294.014l-.084.004c-.022.002-.043.007-.065.01a4.806 4.806 0 0 0-.424.062c-.015.003-.031.003-.046.007l-.01.002a4.675 4.675 0 0 0-.589.163c-.017.006-.035.008-.053.015l-.041.017a3.55 3.55 0 0 0-.247.101c-.039.017-.079.032-.118.05a4.418 4.418 0 0 0-.348.182l-3.538 2.066c.113-.067.23-.127.348-.182.039-.019.079-.034.119-.051.081-.036.163-.07.246-.101l.095-.032c.19-.066.387-.122.589-.163.018-.003.037-.005.055-.009a5.037 5.037 0 0 1 .868-.09c.055-.001.109-.003.164-.003.079.001.159.004.239.008.063.003.125.005.189.01.065.005.132.013.199.021.073.008.145.015.219.026.062.008.124.02.185.031.08.013.159.027.24.043l.16.036a8.76 8.76 0 0 1 .698.195c.045.015.092.029.137.045.126.044.253.09.381.141l.04.016a9.455 9.455 0 0 1 .551.243 13.735 13.735 0 0 1 .859.449l66.583 38.623c.311.18.618.377.921.589l.058.041c.283.199.561.41.834.632l.094.077c.301.248.593.507.876.775.265.252.523.511.773.778l.056.059c.269.289.53.586.782.891l.021.026c.256.312.503.63.742.955.016.021.03.043.045.065.207.285.408.575.602.87.132.202.257.409.383.615.101.164.205.326.302.493.048.083.092.167.139.25.16.284.316.57.463.86l.052.1c.178.356.348.716.506 1.078l.022.052c.154.355.298.714.431 1.073l.029.077c.135.369.259.739.371 1.109l.016.057c.107.358.203.716.287 1.074l.023.101c.083.363.155.725.212 1.085l.006.03c.057.365.101.729.131 1.089l.007.086c.029.361.044.719.043 1.072l-.403 143.088c-.001.339-.018.678-.049 1.015l-.01.089c-.03.299-.072.587-.126.864l-.022.11a7.89 7.89 0 0 1-.199.769c-.014.047-.03.092-.045.138a6.786 6.786 0 0 1-.266.681c-.008.016-.014.034-.021.05-.113.24-.238.465-.374.676-.021.034-.046.064-.069.097a4.33 4.33 0 0 1-.493.62 4.6 4.6 0 0 1-.347.337c-.05.044-.099.089-.151.131a4.517 4.517 0 0 1-.536.375l3.537-2.066c.188-.111.368-.237.537-.375.052-.041.101-.086.151-.13.12-.106.236-.218.347-.337.049-.053.098-.105.144-.16.123-.144.239-.298.349-.46.022-.033.047-.063.069-.098.006-.008.013-.015.018-.024.127-.2.243-.412.349-.637l.006-.015c.008-.016.014-.034.021-.05.069-.15.135-.303.195-.463.026-.07.047-.145.072-.217l.045-.138c.014-.045.03-.087.043-.132.045-.153.086-.311.123-.473.012-.053.021-.109.032-.164l.023-.11c.011-.06.025-.118.035-.179a9.67 9.67 0 0 0 .066-.44c.01-.08.017-.163.025-.244l.01-.09.011-.11c.023-.292.035-.585.037-.878v-.027l.404-143.088a19.332 19.332 0 0 0-.008-.417z" fill="#22334F"/>
    <path d="M608.185 323.329c5.357 3.207 9.688 10.983 9.67 17.371-.017 6.384-4.376 8.956-9.733 5.749-5.359-3.209-9.687-10.983-9.67-17.367.018-6.388 4.374-8.963 9.733-5.753zm6.153 18.747c.177.106.386.077.73-.351.51-.643 1.056-5.09-6.905-10.314-7.963-4.311-7.447.772-6.939 2.024.34.838.548 1.117.725 1.223.086.051.165.062.247.076.256.042 1.113.217 2.119.533 1.003.315.584-1.542.614-2.3.03-.758 3.067.838 3.227.922.16.107 3.196 2.148 3.222 2.939.026.792-.405 2.14.6 3.027a42.076 42.076 0 0 1 2.111 2c.083.086.162.169.249.221" fill="#F92B26"/>
    <path d="M608.566 331.471c8.272 5.27 7.705 9.758 7.176 10.405-.359.432-.576.462-.76.355-.089-.052-.172-.136-.258-.222a42.704 42.704 0 0 0-2.194-2.019c-1.044-.895-.596-2.254-.623-3.053-.027-.8-3.181-2.858-3.348-2.966-.166-.085-3.322-1.696-3.353-.93-.031.766.404 2.638-.638 2.32a18.82 18.82 0 0 0-2.202-.537c-.085-.015-.167-.025-.256-.077-.184-.107-.401-.389-.754-1.234-.528-1.263-1.064-6.392 7.21-2.042zm-46.446-31.403c.399.232.466.47.553.733.335.999.7 1.987 1.096 2.962.556 1.385-.742 1.413-1.203 1.722-.458.315 1.627 4.269 1.736 4.477.102.165 2.04 3.284 2.796 3.723.078.045.143.06.19.038.413-.197.95-.992 1.641-.591.144.084.294.22.452.424a54.355 54.355 0 0 0 2.002 2.439c.255.287.481.515.271 1.503-.12.561-1.004 1.572-2.874.485-1.411-.82-3.382-2.835-6.009-7.138-5.549-10.334-2.213-11.349-1.255-11.035.26.086.455.172.604.258z" fill="#FEFFFF"/>
    <path d="M604.375 297.944c9.744-5.668 9.718-23.912-.059-40.75-9.776-16.837-25.6-25.892-35.344-20.225-9.744 5.668-9.718 23.913.059 40.75 9.776 16.838 25.6 25.893 35.344 20.225z" fill="#5073D3"/>
    <path d="M571.611 305.864c3.776 6.782 3.756 14.099-.045 16.349-1.9 1.123-4.387.765-6.87-.722-2.483-1.487-4.963-4.101-6.851-7.493-3.776-6.785-3.756-14.103.045-16.348 1.9-1.123 4.386-.765 6.87.722 2.483 1.486 4.963 4.101 6.851 7.492zm-.404 11.884c.202-.979-.015-1.205-.261-1.49a54.061 54.061 0 0 1-1.926-2.416 1.572 1.572 0 0 0-.436-.42c-.664-.398-1.181.389-1.579.585-.045.022-.108.007-.183-.038-.728-.435-2.592-3.526-2.691-3.689-.106-.206-2.112-4.125-1.671-4.437.444-.306 1.694-.335 1.158-1.706a52.29 52.29 0 0 1-1.055-2.935c-.083-.261-.148-.497-.532-.727a3.072 3.072 0 0 0-.581-.256c-.922-.31-4.133.695 1.208 10.936 2.529 4.264 4.426 6.261 5.784 7.074 1.799 1.077 2.65.075 2.765-.481" fill="#95CB1B"/>
    <path d="M598.935 277.408c-.161-.544-.353-.997-.582-1.336-1.81-2.682-5.189-4.607-8.105-5.822.346.529.437 1.498-1.925 1.876-1.862.123-6.038-.619-5.659-3.163.049-.231.253-.362.493-.437-1.748-.19-3.635-.285-4.848-.058-1.177.22-2.691 3.112-4.054 6.326-.23.544-.455 1.091-.673 1.641-.318 1.66.355 3.444 1.98 5.04.171.168.352.334.543.498.584.491 1.208.931 1.867 1.312 4.088 2.391 9.76 3.168 14.307 2.22a15.51 15.51 0 0 0 1.497-.387c.888-.28 1.713-.634 2.452-1.066 2.014-1.178 3.049-2.734 3.148-4.377-.106-.858-.251-1.626-.441-2.267z" fill="#fff"/>
    <path d="M582.77 269.162c-.398 2.3 3.995 2.971 5.954 2.86 2.485-.342 2.39-1.219 2.025-1.697a1.125 1.125 0 0 0-.305-.281c-.816-1.489.071-4.094.616-5.406-1.6 2.184-4.466 3.511-6.733 3.861l-.037.19s-.559-.041-1.001.077c-.253.068-.468.187-.519.396z" fill="#EE9B9C"/>
    <path d="M590.865 263.714zm-4.396-5.553c1.509 2.144 4.331 2.882 4.331 2.882s.36-1.054 1.411-.457c.865.658.756 1.371.329 1.952 2.259-1.999 2.704-4.602 2.058-6.974a4.01 4.01 0 0 0 1.081-2.647 4.046 4.046 0 0 0-.929-2.712 3.535 3.535 0 0 0-2.423-1.27 3.458 3.458 0 0 0-2.569.878c-1.62-.714-3.424-.783-5.093.16-6.037.175-4.523 7.029-4.523 7.029h.001c.338-2.076 1.339-3.375 1.339-3.375s2.723.563 4.987 4.534z" fill="#121633"/>
    <path d="M583.576 112.113a34.57 34.57 0 0 0-2.02-1.966c-.065-.058-.128-.121-.194-.178a30.937 30.937 0 0 0-1.308-1.09c-.12-.094-.241-.183-.361-.275-.338-.259-.683-.51-1.033-.753-.132-.092-.264-.185-.397-.274a21.635 21.635 0 0 0-2.513-1.481c-.107-.055-.214-.106-.321-.158-.278-.136-.56-.265-.844-.387-.099-.043-.199-.088-.297-.128a18.45 18.45 0 0 0-.781-.299c-.065-.023-.131-.051-.196-.073a16.98 16.98 0 0 0-.955-.296 14.821 14.821 0 0 0-.552-.137c-.086-.02-.173-.045-.259-.063a13.569 13.569 0 0 0-.8-.15 12.724 12.724 0 0 0-1.184-.119 10.973 10.973 0 0 0-1.262-.004c-.059.004-.115.011-.173.015-.268.021-.536.052-.801.094-.082.013-.165.026-.246.041a9.414 9.414 0 0 0-.885.205l-.038.013a8.568 8.568 0 0 0-.798.283c-.077.031-.152.064-.228.097a8.533 8.533 0 0 0-.651.32c-.071.039-.144.072-.213.113l11.882-6.934.097-.056c.037-.02.078-.036.116-.056.212-.116.429-.222.651-.32.042-.018.081-.042.123-.06.034-.014.071-.023.105-.038a8.4 8.4 0 0 1 .799-.282l.032-.011.006-.002a9.28 9.28 0 0 1 .885-.205c.035-.006.068-.017.103-.023.047-.009.095-.01.142-.017.266-.042.533-.074.802-.094.043-.004.084-.012.127-.015l.046-.001c.342-.019.684-.022 1.026-.009.035.001.067-.002.101 0 .044.001.091.01.135.013.388.022.782.057 1.184.12h.002c.263.04.529.09.798.148.086.019.173.043.26.063.166.04.332.077.501.122l.05.015c.315.087.633.186.955.296.065.022.131.05.196.073.259.093.519.19.781.299.035.014.069.025.103.04.064.026.129.06.193.088.285.123.567.252.845.387.107.052.213.103.321.158.372.188.745.387 1.122.605.469.273.932.569 1.392.876.132.089.264.182.396.274.347.241.692.493 1.033.754.12.091.241.18.359.274.446.351.883.714 1.309 1.089.066.059.131.122.197.181.221.199.442.399.661.606l8.278-4.83.101-.06c.04-.022.082-.037.121-.059.23-.125.465-.24.706-.346.044-.02.085-.045.13-.064.036-.015.075-.025.112-.04.282-.115.569-.217.861-.305.01-.003.02-.008.032-.01l.004-.002c.311-.09.629-.16.952-.22.037-.008.073-.02.11-.026.049-.008.102-.01.151-.017.285-.045.57-.079.857-.101.047-.004.091-.013.138-.016h.05c.366-.021.733-.024 1.099-.01.036.001.069-.003.105-.001.048.002.098.011.146.014.409.023.823.06 1.247.125l.014.001.005.001c.047.007.095.019.141.027.24.039.48.082.724.134.102.022.207.051.311.076.17.04.338.077.51.124l.053.017c.341.094.678.198 1.012.312l.17.063c.286.102.574.21.864.329.031.012.061.022.092.035.065.026.131.061.195.089a23.174 23.174 0 0 1 2.513 1.26c.584.338 1.162.707 1.732 1.097.191.13.376.276.564.412.381.269.756.548 1.124.835.22.174.435.361.653.541.331.276.661.551.985.843.226.203.446.416.669.625.207.196.419.381.623.583.123.122.243.251.365.376.593.6 1.167 1.219 1.721 1.856l.012.014a42.85 42.85 0 0 1 1.506 1.842l.007.008c.437.566.86 1.141 1.269 1.727.022.03.041.063.063.093.104.149.201.304.303.455.249.366.5.731.738 1.105.062.098.12.2.182.299.125.2.245.402.367.604.145.239.295.473.435.715.117.2.225.406.338.609.114.203.228.406.339.61.071.131.147.26.217.391.207.392.403.789.598 1.186.058.116.119.231.176.347l.046.091c.263.547.514 1.099.755 1.656.029.067.053.134.081.2.079.185.15.371.226.556.131.319.267.636.389.957.062.16.114.321.173.482.09.246.177.492.264.738.067.194.143.387.207.581.079.238.143.475.217.712.087.281.175.561.256.841.037.13.082.26.118.391.071.255.123.51.187.765.091.356.182.712.262 1.068.025.114.059.228.083.342.104.491.196.981.278 1.47.013.076.022.152.034.229.055.343.11.686.153 1.027.042.329.079.658.11.985l.219.059c.3.081.605.181.91.279.105.034.209.061.314.097.446.152.887.319 1.322.499l.045.02c.327.137.66.297.991.453.169.079.335.148.505.232a27.595 27.595 0 0 1 3.238 1.899c.095.064.191.126.286.191a34.421 34.421 0 0 1 1.904 1.407c.54.425 1.069.864 1.586 1.317l.136.124c.506.451 1.002.915 1.486 1.391.048.047.098.09.147.137.03.03.058.062.088.091.375.374.746.753 1.11 1.143l.054.06c.347.373.688.752 1.022 1.136.032.037.066.071.098.109.041.047.078.098.119.145a49.037 49.037 0 0 1 1.597 1.953l.046.056c.039.052.076.106.116.158.413.54.815 1.088 1.207 1.644.039.056.082.109.121.166l.053.079c.376.541.742 1.09 1.097 1.645.035.054.072.105.106.159.052.08.098.163.149.244.287.457.568.918.841 1.384.043.073.089.143.132.216l.046.083c.309.535.609 1.075.899 1.62l.074.133c.047.09.09.183.138.273.226.433.445.869.659 1.307.045.092.094.182.139.274l.075.165c.264.555.52 1.113.763 1.674l.024.053c.026.061.048.122.074.182.217.507.423 1.016.622 1.527.032.082.069.164.1.247.027.07.049.139.075.209.228.6.445 1.205.648 1.814l.013.035c.011.036.02.072.032.107.204.623.395 1.25.572 1.88.022.079.049.157.071.235.012.043.019.086.031.129.199.728.375 1.455.533 2.181.013.065.033.129.047.193.02.094.034.188.053.282.059.287.113.572.165.858.035.197.072.394.104.591.048.294.091.586.132.879.02.138.045.277.062.415.005.036.006.072.011.109a34.5 34.5 0 0 1 .183 1.871l.024.395c.039.631.059 1.263.06 1.895-.019 6.874-2.436 11.712-6.335 13.987l-11.882 6.934c3.899-2.275 6.316-7.113 6.335-13.987 0-.632-.021-1.264-.06-1.895l-.024-.395a34.522 34.522 0 0 0-.183-1.871 23.745 23.745 0 0 0-.074-.526c-.04-.292-.084-.584-.131-.876a43.898 43.898 0 0 0-.37-1.926 41.956 41.956 0 0 0-.533-2.18c-.033-.121-.069-.243-.103-.365a43.918 43.918 0 0 0-.573-1.883l-.043-.137a46.995 46.995 0 0 0-.824-2.272 49.484 49.484 0 0 0-.623-1.53c-.033-.076-.063-.153-.096-.23-.245-.563-.5-1.122-.765-1.676-.069-.145-.14-.29-.211-.435-.214-.44-.435-.878-.662-1.313-.07-.134-.138-.268-.209-.401a58.09 58.09 0 0 0-.899-1.621c-.059-.101-.121-.202-.181-.303a53.943 53.943 0 0 0-.839-1.38c-.085-.135-.169-.27-.255-.404a51.148 51.148 0 0 0-1.098-1.646c-.056-.082-.116-.162-.173-.244a52.49 52.49 0 0 0-1.207-1.643c-.055-.072-.108-.145-.164-.217a48.823 48.823 0 0 0-1.596-1.952l-.216-.253a49.502 49.502 0 0 0-1.016-1.129l-.062-.068a44.149 44.149 0 0 0-1.108-1.141c-.079-.079-.159-.154-.238-.231a40.492 40.492 0 0 0-1.483-1.388c-.046-.041-.091-.085-.138-.126a37.56 37.56 0 0 0-1.584-1.316 34.38 34.38 0 0 0-1.905-1.407c-.095-.065-.191-.128-.287-.192a31.325 31.325 0 0 0-1.712-1.078c-.5-.289-1.009-.563-1.525-.821-.17-.084-.336-.153-.505-.232-.332-.156-.664-.316-.992-.453a22.038 22.038 0 0 0-1.366-.519c-.106-.036-.209-.063-.315-.097-.373-.124-.75-.236-1.129-.338a31.715 31.715 0 0 0-.263-2.012c-.012-.076-.021-.152-.034-.229a34.95 34.95 0 0 0-.361-1.812c-.079-.355-.171-.711-.261-1.067-.099-.386-.196-.772-.307-1.158-.08-.279-.168-.558-.255-.838a41.107 41.107 0 0 0-1.251-3.476c-.076-.183-.147-.368-.225-.551a46.01 46.01 0 0 0-.882-1.947c-.057-.118-.119-.234-.177-.351a40.933 40.933 0 0 0-1.154-2.185c-.25-.445-.507-.886-.772-1.322-.122-.202-.242-.405-.367-.604a48.436 48.436 0 0 0-.92-1.405c-.102-.151-.199-.305-.303-.455a43.308 43.308 0 0 0-2.845-3.669 39.534 39.534 0 0 0-1.383-1.511l-.349-.36a40.63 40.63 0 0 0-.988-.959c-.223-.21-.444-.422-.669-.625a35.917 35.917 0 0 0-.986-.843c-.217-.181-.432-.368-.652-.542a31.735 31.735 0 0 0-1.124-.835c-.189-.135-.374-.281-.564-.411a28.39 28.39 0 0 0-1.732-1.098c-.402-.231-.81-.451-1.224-.659-.113-.058-.226-.112-.339-.167-.313-.152-.63-.296-.95-.433-.095-.041-.192-.086-.288-.124a19.041 19.041 0 0 0-.861-.328c-.057-.02-.116-.045-.172-.064a16.927 16.927 0 0 0-1.013-.312c-.189-.053-.376-.097-.563-.141-.103-.025-.208-.054-.311-.076-.24-.051-.481-.096-.723-.134l-.142-.027-.018-.002c-.414-.062-.83-.103-1.247-.125-.084-.004-.168-.01-.252-.013a11.598 11.598 0 0 0-.969.008l.041.042a35.073 35.073 0 0 1 .98 1.037c.151.165.302.331.451.501.062.07.125.137.186.208.201.232.4.468.597.706l-11.882 6.934c-.4-.482-.812-.954-1.234-1.416-.169-.187-.34-.372-.513-.555z" fill="#6F8FEA"/>
    <path d="M590.54 264.031c.127-.207.246-.421.354-.642.379-.071 1.222-.533 1.689-1.147.43-.567.54-1.264-.333-1.905-1.059-.583-1.422.446-1.422.446s-2.845-.72-4.367-2.813c-2.282-3.875-5.027-4.424-5.027-4.424s-1.01 1.268-1.35 3.294a8.031 8.031 0 0 0 .159 3.394c-.132 1.577-.629 7.099 2.514 8.06.468.072 1.026.05 1.63-.061 2.072-.382 4.691-1.826 6.153-4.202z" fill="#F6B8A9"/>
    <path d="M183.682 192.978c.178-.144.355-.291.535-.43.309-.235.623-.463.943-.683.156-.109.31-.225.467-.33.471-.314.954-.611 1.448-.889.323-.18.65-.351.983-.512.094-.046.187-.089.28-.133.248-.117.495-.226.739-.328.088-.036.175-.074.261-.108.23-.092.458-.175.685-.253.057-.02.114-.042.171-.061.276-.092.555-.175.837-.25.039-.011.078-.018.117-.029.423-.11.852-.199 1.284-.266l.01-.002c.343-.049.689-.083 1.036-.1.069-.004.138-.009.206-.011.3-.012.6-.009.899.007.052.003.102.009.153.013.238.018.471.044.7.079.072.012.144.022.215.035.264.047.524.102.776.173l.033.011a7.806 7.806 0 0 1 1.47.592c.062.033.126.061.187.096l-12.784-7.203-.085-.047c-.033-.018-.068-.031-.101-.048a7.296 7.296 0 0 0-.572-.271c-.036-.016-.07-.036-.106-.051-.031-.012-.062-.02-.093-.031a7.803 7.803 0 0 0-.7-.24c-.01-.002-.018-.006-.027-.009l-.006-.001a8.508 8.508 0 0 0-.775-.174c-.031-.005-.06-.015-.091-.02-.04-.007-.084-.007-.125-.014a8.611 8.611 0 0 0-.7-.079c-.038-.003-.074-.011-.112-.013l-.041-.001a9.962 9.962 0 0 0-.898-.007c-.031.001-.058-.002-.089 0-.038.001-.079.009-.118.011-.34.019-.684.048-1.036.101h-.002c-.435.067-.866.156-1.291.268-.025.006-.049.008-.074.015l-.044.013c-.276.074-.554.157-.836.25-.057.019-.115.042-.172.061-.227.079-.455.162-.684.253-.031.012-.061.021-.091.033-.057.023-.114.052-.17.075-.245.102-.491.211-.739.328-.094.044-.187.087-.281.133-.332.162-.66.333-.983.512-.494.279-.977.575-1.448.89-.157.104-.309.219-.465.328-.32.221-.636.449-.945.685-.18.138-.356.285-.533.429-.283.228-.562.461-.836.699-.183.161-.363.326-.543.493-.141.13-.286.252-.425.385a31.46 31.46 0 0 0-.638.629l12.784 7.202c.346-.346.701-.684 1.063-1.014.179-.166.36-.33.543-.492.274-.238.552-.471.834-.699z" fill="#6F8FEA"/>
    <path d="m151.491 515.705 151.58-87.868c.85-.492.742-1.361-.239-1.929l-65.107-37.741c-.981-.569-2.479-.631-3.328-.139l-151.58 87.868c-.85.492-.743 1.361.238 1.93l65.107 37.741c.981.568 2.479.631 3.329.138z" fill="#FFFCF9"/>
    <path d="M67.204 328.315c0-4.17 2.555-9.059 5.678-10.865l158.477-91.626c1.233-.713 2.376-.841 3.31-.481l.003-.001-1.934-.863-.001.001c-.979-.502-2.226-.423-3.581.36L70.678 316.466C67.555 318.272 65 323.161 65 327.331v143.022c0 3.11 1.421 4.975 3.44 4.974-.772-.849-1.236-2.216-1.236-3.99V328.315z" fill="#BBC1D1"/>
    <path d="M234.374 225.738c-.933-.359-2.075-.232-3.306.479L72.742 317.592c-3.12 1.801-5.673 6.677-5.673 10.835v142.629c0 1.769.463 3.133 1.235 3.98 1.041 1.143 2.646 1.341 4.438.307l158.326-91.375c3.12-1.801 5.673-6.677 5.673-10.835V230.504c0-2.517-.937-4.216-2.367-4.766zm-82.469 49.011c.896-.517 1.621.031 1.621 1.225 0 1.193-.725 2.579-1.621 3.096-.895.516-1.621-.032-1.621-1.225 0-1.194.726-2.579 1.621-3.096zm-77.042 51.022 154.084-88.927v138.945L74.863 464.716V325.771z" fill="#555286"/>
    <path d="m229.154 236.584-154.498 89.13v139.263l154.498-89.13V236.584z" fill="#22334F"/>
    <path d="M152.25 279.165c.952-.53 1.724-1.951 1.724-3.175 0-1.223-.772-1.786-1.724-1.256-.953.53-1.725 1.951-1.725 3.175 0 1.224.772 1.786 1.725 1.256z" fill="#F6CDB1"/>
    <path d="m96.038 462.682.39.225-.39-.225zM212.6 396.2l-.391-.224.391.224z" fill="#EE9C86"/>
    <path d="M368.468 457.387c-.075 1.081-.764 2.104-2.097 2.875l-67.317 38.972-23.763 13.757-67.318 38.972c-3.121 1.807-8.624 1.578-12.229-.509L72.122 479.886c-1.907-1.104-2.915-2.516-2.98-3.868h-.004v4.107h.003c-.005 1.397 1.004 2.873 2.981 4.017l123.623 71.569c3.604 2.087 9.108 2.315 12.229.508l67.317-38.972 23.764-13.757 67.317-38.972c1.414-.818 2.104-1.92 2.103-3.074h.003v-4.057h-.01z" fill="#555286"/>
    <path d="m72.121 480.045 123.624 71.527c3.605 2.085 9.108 2.314 12.229.508l67.318-38.949c-.336-.335-.441-.715-.302-1.052.082-.202.254-.388.514-.539l20.802-12.035c.261-.151.583-.25.932-.298a4.152 4.152 0 0 1 1.818.175l67.318-38.948c1.332-.771 2.022-1.793 2.097-2.873.101-1.451-.908-3.007-2.975-4.203l-123.624-71.526c-3.604-2.085-9.108-2.314-12.229-.508l-21.445 12.407 3.676 2.127.389.225c.983.569 1.091 1.437.24 1.93l-112.415 65.04c-.851.493-2.352.43-3.335-.139l-.39-.224-3.675-2.127-21.445 12.407c-1.47.851-2.16 2.007-2.102 3.21.065 1.351 1.073 2.762 2.98 3.865zm120.942 13.962 72.94-42.202c.851-.492 2.352-.43 3.335.139l50.728 29.35c.983.569 1.091 1.437.239 1.93l-72.94 42.201c-.851.492-2.352.43-3.335-.139l-50.728-29.35c-.983-.568-1.091-1.437-.239-1.929z" fill="#E6E8EC"/>
    <path d="m193.412 496.059 50.687 29.171c.982.565 2.482.627 3.333.138l72.881-41.944c.851-.49.743-1.353-.239-1.918l-50.687-29.171c-.983-.566-2.482-.627-3.333-.138l-72.882 41.944c-.85.49-.742 1.353.24 1.918z" fill="#fff"/>
    <path d="M96.664 463.126c.986.569 2.49.631 3.344.139l112.707-65.076c.853-.492.745-1.361-.241-1.93l-.389-.225-3.686-2.128-115.81 66.868 3.685 2.127.39.225z" fill="#5073D3"/>
    <path d="m256.798 453.188-50.616 29.238c-.397.229-1.097.201-1.556-.064l-9.181-5.304a.828.828 0 0 1-.309-.288c-.2.232-.105.544.273.763l9.182 5.304c.458.264 1.158.294 1.555.064l50.617-29.238c.269-.156.328-.392.197-.61a.637.637 0 0 1-.162.135zm45.23-26.127-7.909 4.569c-.408.236-1.129.206-1.601-.067l-9.132-5.275a.853.853 0 0 1-.323-.304c-.198.238-.098.555.288.779l9.131 5.274c.472.273 1.193.303 1.602.067l7.908-4.568c.275-.159.337-.398.208-.621a.619.619 0 0 1-.172.146zm-10.353 6.082-7.908 4.568c-.409.236-1.13.206-1.602-.067l-9.132-5.275a.853.853 0 0 1-.323-.304c-.198.238-.098.556.288.779l9.131 5.274c.473.273 1.193.303 1.602.067l7.908-4.568c.275-.159.337-.398.209-.621a.66.66 0 0 1-.173.147zm-10.528 5.98-7.908 4.568c-.409.236-1.129.206-1.602-.067l-9.131-5.275a.853.853 0 0 1-.323-.304c-.199.238-.099.556.287.779l9.132 5.274c.472.273 1.193.303 1.602.067l7.908-4.568c.275-.159.337-.398.208-.621a.612.612 0 0 1-.173.147zm-15.055-5.038-7.908 4.569c-.409.236-1.13.206-1.602-.067l-9.131-5.275a.838.838 0 0 1-.323-.304c-.199.238-.099.555.287.779l9.132 5.274c.472.273 1.193.303 1.602.067l7.908-4.568c.275-.159.337-.398.208-.621a.606.606 0 0 1-.173.146zm-6.602-9.962-7.909 4.568c-.409.236-1.129.206-1.602-.067l-9.131-5.274a.855.855 0 0 1-.323-.305c-.198.238-.099.556.287.779l9.132 5.275c.472.272 1.193.302 1.602.066l7.908-4.568c.275-.158.337-.398.208-.621a.622.622 0 0 1-.172.147zm-9.116-8.489-7.908 4.568c-.409.236-1.13.206-1.602-.067l-9.132-5.275a.853.853 0 0 1-.323-.304c-.198.238-.098.555.288.779l9.131 5.274c.473.273 1.193.303 1.602.067l7.908-4.568c.275-.159.337-.398.209-.621a.66.66 0 0 1-.173.147zm4.028-16.083-7.908 4.568c-.409.236-1.129.206-1.602-.067l-9.131-5.274a.855.855 0 0 1-.323-.305c-.198.238-.099.556.287.779l9.132 5.275c.472.272 1.193.302 1.602.066l7.908-4.568c.275-.158.337-.398.208-.621a.626.626 0 0 1-.173.147zm-11.728-7.025a.612.612 0 0 1-.167.141L90.744 480.332c-.403.232-1.114.203-1.58-.066l-5.125-2.961a.836.836 0 0 1-.316-.297c-.199.235-.101.55.28.771l5.126 2.961c.466.269 1.176.299 1.58.066l151.762-87.665c.272-.156.333-.394.203-.615zm-17.615 12.888 9.131 5.274c.473.273 1.193.303 1.602.067l7.909-4.568c.274-.159.336-.398.208-.621a.606.606 0 0 1-.173.146l-7.908 4.569c-.409.236-1.13.206-1.602-.067l-9.132-5.275a.853.853 0 0 1-.323-.304c-.198.238-.098.555.288.779zm-10.657 6.156 9.131 5.275c.472.272 1.193.302 1.602.066l7.908-4.568c.275-.158.337-.398.208-.621a.622.622 0 0 1-.172.147l-7.908 4.568c-.409.236-1.13.206-1.602-.067l-9.132-5.274a.855.855 0 0 1-.323-.305c-.198.238-.098.556.288.779zm-10.658 6.156 9.131 5.275c.473.272 1.193.302 1.602.066l7.909-4.568c.274-.158.336-.398.208-.621a.641.641 0 0 1-.173.147l-7.908 4.568c-.409.236-1.13.206-1.602-.067l-9.132-5.274a.862.862 0 0 1-.323-.305c-.198.239-.098.556.288.779zm-10.657 6.156 9.131 5.275c.472.273 1.193.303 1.602.066l7.908-4.568c.275-.158.337-.397.208-.621a.622.622 0 0 1-.172.147l-7.909 4.568c-.408.236-1.129.206-1.601-.066l-9.132-5.275a.855.855 0 0 1-.323-.305c-.198.238-.098.556.288.779zm-10.658 6.157 9.131 5.274c.473.273 1.193.303 1.602.067l7.909-4.568c.274-.159.336-.398.208-.621a.637.637 0 0 1-.173.146l-7.908 4.568c-.409.237-1.13.207-1.602-.066l-9.132-5.275a.853.853 0 0 1-.323-.304c-.198.238-.098.555.288.779zm-10.657 6.156 9.131 5.275c.472.272 1.193.302 1.602.066l7.908-4.568c.275-.158.337-.398.208-.621a.622.622 0 0 1-.172.147l-7.909 4.568c-.408.236-1.129.206-1.601-.067l-9.132-5.274a.862.862 0 0 1-.323-.305c-.198.238-.099.556.288.779zm-10.658 6.156 9.131 5.275c.473.272 1.193.302 1.602.066l7.909-4.568c.274-.158.336-.398.208-.621a.641.641 0 0 1-.173.147l-7.908 4.568c-.409.236-1.13.206-1.602-.067l-9.132-5.274a.862.862 0 0 1-.323-.305c-.198.238-.098.556.288.779zm-10.657 6.156 9.131 5.275c.472.272 1.193.303 1.602.066l7.908-4.568c.275-.158.337-.397.208-.621a.622.622 0 0 1-.172.147l-7.909 4.568c-.408.236-1.129.206-1.601-.066l-9.132-5.275a.855.855 0 0 1-.323-.305c-.198.238-.099.556.288.779zm-10.658 6.157 9.132 5.274c.472.273 1.193.303 1.602.067l7.908-4.568c.275-.159.337-.398.208-.621a.623.623 0 0 1-.173.146l-7.908 4.568c-.409.237-1.129.207-1.602-.066l-9.131-5.275a.853.853 0 0 1-.323-.304c-.199.238-.099.555.287.779zm-10.657 6.155 9.131 5.275c.472.273 1.193.303 1.602.067l7.908-4.568c.275-.159.337-.398.208-.621a.619.619 0 0 1-.172.146l-7.909 4.568c-.408.237-1.129.206-1.602-.066l-9.131-5.275a.86.86 0 0 1-.323-.304c-.198.238-.099.556.288.778zm-10.658 6.157 9.132 5.274c.472.273 1.193.303 1.602.067l7.908-4.568c.275-.158.337-.398.208-.621a.626.626 0 0 1-.173.147l-7.908 4.568c-.409.236-1.129.206-1.602-.067l-9.131-5.275a.845.845 0 0 1-.323-.304c-.199.238-.099.556.287.779zm-10.657 6.156 9.131 5.275c.472.272 1.193.303 1.602.066l7.908-4.568c.275-.158.337-.397.208-.621a.622.622 0 0 1-.172.147l-7.909 4.568c-.408.236-1.129.207-1.602-.066l-9.131-5.275a.855.855 0 0 1-.323-.305c-.198.238-.099.556.288.779zm158.482-66.703-13.177 7.611c-.409.237-1.13.206-1.602-.066l-9.131-5.275a.85.85 0 0 1-.324-.304c-.198.238-.098.555.288.779l9.132 5.274c.472.273 1.193.303 1.602.067l13.176-7.611c.275-.159.337-.398.209-.621a.69.69 0 0 1-.173.146zM116.01 479.446a.623.623 0 0 1-.173.146l-13.177 7.612c-.408.236-1.129.206-1.602-.067l-9.131-5.274a.86.86 0 0 1-.323-.305c-.198.238-.099.556.288.779l9.131 5.275c.472.272 1.193.302 1.602.066l13.177-7.611c.274-.159.337-.398.208-.621zm105.029-57.955 9.131 5.275c.472.273 1.193.303 1.602.067l7.908-4.568c.275-.159.337-.398.208-.621a.619.619 0 0 1-.172.146l-7.909 4.568c-.408.237-1.129.206-1.602-.066l-9.131-5.275a.86.86 0 0 1-.323-.304c-.198.238-.099.555.288.778zm-10.659 6.157 9.131 5.275c.473.272 1.193.303 1.602.066l7.909-4.568c.274-.158.336-.397.208-.62a.656.656 0 0 1-.173.146l-7.908 4.568c-.409.236-1.13.206-1.602-.066l-9.132-5.275a.855.855 0 0 1-.323-.305c-.198.238-.098.556.288.779zm-10.659 6.157 9.132 5.275c.472.272 1.193.302 1.602.066l7.908-4.568c.275-.158.337-.398.208-.621a.626.626 0 0 1-.173.147l-7.908 4.568c-.409.236-1.129.206-1.602-.067l-9.131-5.274a.855.855 0 0 1-.323-.305c-.198.238-.099.556.287.779zm-10.658 6.157 9.131 5.275c.473.272 1.193.302 1.602.066l7.908-4.568c.275-.158.337-.398.209-.621a.641.641 0 0 1-.173.147l-7.908 4.568c-.409.236-1.13.206-1.602-.067l-9.132-5.274a.862.862 0 0 1-.323-.305c-.198.238-.098.556.288.779zm-10.658 6.157 9.131 5.274c.472.273 1.193.303 1.602.067l7.908-4.568c.275-.159.337-.398.208-.621a.619.619 0 0 1-.172.146l-7.909 4.568c-.408.237-1.129.207-1.601-.066l-9.132-5.275a.853.853 0 0 1-.323-.304c-.198.238-.099.555.288.779zm-10.659 6.156 9.131 5.275c.473.273 1.194.303 1.602.067l7.909-4.568c.274-.159.336-.398.208-.621a.64.64 0 0 1-.173.146l-7.908 4.568c-.409.237-1.13.206-1.602-.066l-9.132-5.275a.86.86 0 0 1-.323-.304c-.198.238-.098.555.288.778zm-10.659 6.157 9.132 5.275c.472.272 1.193.303 1.602.066l7.908-4.568c.275-.158.337-.397.208-.621a.626.626 0 0 1-.173.147l-7.908 4.568c-.409.236-1.129.207-1.602-.066l-9.131-5.275a.855.855 0 0 1-.323-.305c-.198.238-.098.556.287.779zm-10.658 6.157 9.132 5.275c.472.272 1.193.302 1.602.066l7.908-4.568c.275-.158.337-.398.208-.621a.626.626 0 0 1-.173.147l-7.908 4.568c-.409.236-1.13.206-1.602-.067l-9.131-5.274a.847.847 0 0 1-.323-.305c-.199.238-.099.556.287.779zm-10.658 6.157 9.131 5.274c.472.273 1.193.303 1.602.067l7.908-4.568c.275-.159.337-.398.208-.621a.622.622 0 0 1-.172.147l-7.909 4.568c-.408.236-1.129.206-1.601-.067l-9.132-5.275a.853.853 0 0 1-.323-.304c-.198.238-.098.556.288.779zm.074 11.498 7.909-4.568c.274-.159.336-.398.208-.621a.623.623 0 0 1-.173.146l-7.908 4.568c-.409.237-1.13.206-1.602-.066l-9.132-5.275a.853.853 0 0 1-.323-.304c-.198.238-.098.555.288.779l9.132 5.274c.472.273 1.193.303 1.601.067zm-2.714 1.114-7.908 4.568c-.409.236-1.13.206-1.602-.066l-9.132-5.275a.855.855 0 0 1-.323-.305c-.198.238-.098.556.288.779l9.131 5.275c.473.273 1.193.303 1.602.066l7.909-4.568c.274-.158.336-.397.208-.62a.656.656 0 0 1-.173.146zm-10.483 6.009a.656.656 0 0 1-.173.146l-7.908 4.568c-.409.236-1.13.206-1.602-.066l-9.132-5.275a.86.86 0 0 1-.323-.304c-.198.238-.098.555.288.778l9.131 5.275c.473.273 1.193.303 1.602.067l7.909-4.569c.274-.158.336-.398.208-.62zm126.203-59.099-7.908 4.568c-.409.236-1.129.206-1.602-.067l-9.131-5.274a.855.855 0 0 1-.323-.305c-.198.238-.099.556.287.779l9.132 5.275c.472.272 1.193.302 1.602.066l7.908-4.568c.275-.158.337-.398.208-.621a.626.626 0 0 1-.173.147zm-10.638 6.145-7.908 4.568c-.409.237-1.13.206-1.602-.066l-9.132-5.275a.86.86 0 0 1-.323-.304c-.198.238-.098.555.288.778l9.131 5.275c.473.273 1.193.303 1.602.067l7.909-4.568c.274-.159.336-.398.208-.621a.637.637 0 0 1-.173.146zm-10.638 6.145-7.908 4.568c-.409.237-1.13.206-1.602-.066l-9.132-5.275a.86.86 0 0 1-.323-.304c-.198.238-.098.555.288.778l9.131 5.275c.473.273 1.193.303 1.602.067l7.909-4.568c.274-.159.336-.398.208-.621a.656.656 0 0 1-.173.146zm-10.639 6.145-7.908 4.568c-.409.237-1.129.206-1.602-.066l-9.131-5.275a.86.86 0 0 1-.323-.304c-.198.238-.099.555.287.778l9.132 5.275c.472.273 1.193.303 1.602.067l7.908-4.568c.275-.159.337-.398.208-.621a.609.609 0 0 1-.173.146zm-10.638 6.146-7.908 4.568c-.409.236-1.129.206-1.602-.067l-9.131-5.275a.853.853 0 0 1-.323-.304c-.199.238-.099.556.287.779l9.132 5.274c.472.273 1.193.303 1.602.067l7.908-4.568c.275-.158.337-.398.208-.621a.644.644 0 0 1-.173.147zm-10.638 6.145-7.908 4.568c-.409.236-1.13.206-1.602-.067l-9.132-5.275a.853.853 0 0 1-.323-.304c-.198.238-.098.556.288.779l9.131 5.274c.473.273 1.193.303 1.602.067l7.909-4.568c.274-.159.336-.398.208-.621a.641.641 0 0 1-.173.147zm-10.638 6.145-7.908 4.568c-.409.236-1.13.206-1.602-.067l-9.132-5.275a.853.853 0 0 1-.323-.304c-.198.238-.098.556.288.779l9.131 5.274c.473.273 1.193.303 1.602.067l7.908-4.568c.275-.159.337-.398.209-.621a.66.66 0 0 1-.173.147zm-10.639 6.145-7.908 4.568c-.409.236-1.129.206-1.602-.067l-9.131-5.274a.855.855 0 0 1-.323-.305c-.199.238-.099.556.287.779l9.132 5.275c.472.272 1.193.303 1.602.066l7.908-4.568c.275-.158.337-.397.208-.621a.626.626 0 0 1-.173.147zm-10.638 6.145-7.908 4.568c-.409.236-1.13.206-1.602-.067l-9.131-5.274a.847.847 0 0 1-.323-.305c-.199.238-.099.556.287.779l9.132 5.275c.472.272 1.193.303 1.602.066l7.908-4.568c.275-.158.337-.398.208-.621a.626.626 0 0 1-.173.147zm-29.315 5.846 9.131 5.275c.473.273 1.193.303 1.602.067l7.908-4.568c.275-.159.337-.398.209-.621a.637.637 0 0 1-.173.146l-7.908 4.568c-.409.237-1.13.206-1.602-.066l-9.132-5.275a.86.86 0 0 1-.323-.304c-.198.238-.098.555.288.778zm121.107-45.114-7.909 4.568c-.409.237-1.129.206-1.602-.066l-9.131-5.275a.86.86 0 0 1-.323-.304c-.198.238-.099.555.287.778l9.132 5.275c.472.273 1.193.303 1.602.067l7.908-4.568c.275-.159.337-.398.208-.621a.602.602 0 0 1-.172.146zm-10.667 6.162-7.908 4.568c-.409.236-1.129.206-1.602-.067l-9.131-5.274a.855.855 0 0 1-.323-.305c-.198.238-.099.556.287.779l9.132 5.275c.472.272 1.193.303 1.602.066l7.908-4.568c.275-.158.337-.398.208-.621a.626.626 0 0 1-.173.147zm-10.666 6.161-7.908 4.568c-.409.236-1.13.206-1.602-.066l-9.132-5.275a.855.855 0 0 1-.323-.305c-.198.238-.098.556.288.779l9.131 5.275c.473.272 1.193.303 1.602.066l7.909-4.568c.274-.158.336-.397.208-.62a.623.623 0 0 1-.173.146zm-10.666 6.161-7.908 4.568c-.409.237-1.13.207-1.602-.066l-9.132-5.275a.86.86 0 0 1-.323-.304c-.198.238-.098.555.288.778l9.131 5.275c.473.273 1.193.303 1.602.067l7.909-4.568c.274-.159.336-.398.208-.621a.637.637 0 0 1-.173.146zm-21.333 12.323-7.908 4.568c-.409.236-1.13.207-1.602-.066l-9.132-5.275a.855.855 0 0 1-.323-.305c-.198.238-.098.556.288.779l9.131 5.275c.473.272 1.193.303 1.602.066l7.909-4.568c.274-.158.336-.397.208-.621a.626.626 0 0 1-.173.147zm-10.666 6.161-7.908 4.568c-.409.236-1.13.206-1.602-.066l-9.132-5.275a.855.855 0 0 1-.323-.305c-.198.238-.098.556.288.779l9.131 5.275c.473.273 1.193.303 1.602.067l7.909-4.569c.274-.158.336-.397.208-.62a.623.623 0 0 1-.173.146zm11.909 6.876-10.801 6.239c-.408.236-1.126.206-1.596-.066l-9.138-5.278a.857.857 0 0 1-.321-.302c-.199.237-.099.554.286.776l9.137 5.279c.471.271 1.189.301 1.596.066l10.801-6.239c.274-.159.336-.397.207-.62a.625.625 0 0 1-.171.145zm-22.425-.801-7.908 4.568c-.409.236-1.13.206-1.602-.067l-9.131-5.274a.862.862 0 0 1-.323-.305c-.199.238-.099.556.287.779l9.132 5.275c.472.272 1.193.302 1.602.066l7.908-4.568c.275-.158.337-.398.208-.621a.626.626 0 0 1-.173.147zm9.192 8.445-7.909 4.568c-.408.237-1.129.206-1.601-.066l-9.132-5.275a.86.86 0 0 1-.323-.304c-.198.238-.098.555.288.778l9.131 5.275c.472.273 1.193.303 1.602.067l7.908-4.568c.275-.159.337-.398.208-.621a.619.619 0 0 1-.172.146zm-10.674 6.166-7.908 4.568c-.409.236-1.13.206-1.602-.067l-9.131-5.274a.85.85 0 0 1-.324-.305c-.198.238-.098.556.288.779l9.132 5.275c.472.272 1.193.302 1.602.066l7.908-4.568c.274-.158.337-.398.208-.621a.626.626 0 0 1-.173.147zm-10.673 6.165-7.908 4.568c-.409.237-1.13.206-1.602-.066l-9.132-5.275a.86.86 0 0 1-.323-.304c-.198.238-.098.555.288.779l9.131 5.274c.472.273 1.193.303 1.602.067l7.908-4.568c.275-.159.337-.398.209-.621a.637.637 0 0 1-.173.146zm-10.674 6.166-7.908 4.568c-.409.236-1.13.206-1.602-.067l-9.131-5.274a.84.84 0 0 1-.323-.305c-.199.238-.099.556.287.779l9.132 5.275c.472.272 1.193.303 1.602.066l7.908-4.568c.275-.158.337-.398.208-.621a.626.626 0 0 1-.173.147zm12.314-20.868-7.908 4.568c-.409.236-1.13.206-1.602-.067l-9.132-5.274a.862.862 0 0 1-.323-.305c-.198.238-.098.556.288.779l9.131 5.275c.472.272 1.193.302 1.602.066l7.908-4.568c.275-.158.337-.398.209-.621a.641.641 0 0 1-.173.147zm-10.485 6.013a.626.626 0 0 1-.165.139l-21.494 12.416c-.401.231-1.106.201-1.567-.066l-9.169-5.296a.834.834 0 0 1-.313-.292c-.2.233-.103.547.277.767l9.169 5.296c.462.267 1.167.296 1.567.065l21.494-12.416c.271-.157.331-.393.201-.613zm130.115-75.117-21.495 12.416c-.4.231-1.105.202-1.567-.065l-9.169-5.296a.846.846 0 0 1-.312-.292c-.2.233-.104.547.277.767l9.169 5.296c.462.267 1.167.296 1.567.065l21.494-12.416c.271-.156.33-.393.2-.612a.617.617 0 0 1-.164.137zm-11.92-6.869-15.973 9.226c-.407.235-1.126.206-1.596-.066l-9.137-5.278a.848.848 0 0 1-.322-.303c-.198.238-.099.555.286.777l9.138 5.278c.47.272 1.189.302 1.596.066l15.973-9.226c.274-.158.335-.397.207-.619a.663.663 0 0 1-.172.145zm-135.604 78.283a.61.61 0 0 1-.171.146l-15.973 9.226c-.407.235-1.125.206-1.595-.066l-9.138-5.278a.851.851 0 0 1-.321-.303c-.199.238-.1.555.286.777l9.137 5.278c.471.272 1.189.302 1.596.066l15.973-9.226c.274-.158.335-.397.206-.62zm70.257-26.781-7.908 4.568c-.409.236-1.129.206-1.602-.067l-9.131-5.274a.855.855 0 0 1-.323-.305c-.198.238-.099.556.287.779l9.132 5.275c.472.272 1.193.302 1.602.066l7.908-4.568c.275-.158.337-.398.208-.621a.626.626 0 0 1-.173.147zm57.621-19.529-10.968 6.335c-.403.233-1.113.204-1.579-.065l-9.156-5.289a.853.853 0 0 1-.316-.297c-.199.235-.102.55.281.771l9.156 5.289c.465.269 1.175.299 1.579.066l10.967-6.336c.272-.157.333-.394.203-.615a.612.612 0 0 1-.167.141z" fill="#555286"/>
    <path d="m256.652 452.43-9.182-5.273c-.458-.263-1.158-.293-1.555-.064l-50.617 29.071c-.269.155-.328.39-.198.607a.845.845 0 0 0 .31.287l9.181 5.273c.458.263 1.158.292 1.556.064l50.616-29.072a.597.597 0 0 0 .162-.135c.2-.23.105-.54-.273-.758zm26.699-25.853 9.132 5.245c.472.271 1.193.301 1.601.066l7.909-4.542a.63.63 0 0 0 .172-.146c.199-.237.099-.552-.287-.774l-9.132-5.245c-.472-.271-1.193-.301-1.602-.066l-7.908 4.542c-.275.158-.337.395-.208.617a.851.851 0 0 0 .323.303zm8.174 5.895-9.132-5.244c-.472-.271-1.193-.301-1.602-.067l-7.908 4.542c-.275.158-.337.396-.208.618a.867.867 0 0 0 .323.303l9.132 5.244c.472.271 1.193.301 1.602.066l7.908-4.542a.628.628 0 0 0 .172-.145c.199-.237.099-.553-.287-.775zm-10.528 5.947-9.131-5.245c-.472-.271-1.193-.301-1.602-.066l-7.908 4.542c-.275.157-.337.395-.208.617a.837.837 0 0 0 .323.303l9.131 5.245c.472.271 1.193.301 1.602.066l7.908-4.542a.621.621 0 0 0 .173-.146c.198-.237.098-.553-.288-.774zm-15.055-5.009-9.131-5.244c-.473-.271-1.193-.301-1.602-.067l-7.908 4.542c-.275.158-.337.396-.209.618a.855.855 0 0 0 .324.303l9.131 5.244c.472.271 1.193.301 1.602.066l7.908-4.542a.62.62 0 0 0 .173-.145c.198-.238.098-.553-.288-.775zm-6.602-9.906-9.132-5.245c-.472-.271-1.193-.301-1.602-.066l-7.908 4.542c-.274.158-.337.396-.208.618a.857.857 0 0 0 .323.302l9.132 5.245c.472.271 1.193.301 1.602.066l7.908-4.542a.652.652 0 0 0 .173-.146c.197-.236.098-.552-.288-.774zm-9.116-8.441-9.132-5.245c-.472-.271-1.193-.301-1.602-.066l-7.908 4.542c-.275.158-.337.396-.208.617a.851.851 0 0 0 .323.303l9.132 5.245c.472.271 1.193.301 1.601.066l7.909-4.542a.63.63 0 0 0 .172-.146c.199-.236.099-.552-.287-.774zm-14.821-16.142a.859.859 0 0 0 .323.303l9.131 5.244c.473.271 1.193.301 1.602.066l7.908-4.542a.62.62 0 0 0 .173-.145c.198-.237.099-.553-.288-.775l-9.131-5.244c-.472-.271-1.193-.301-1.602-.067l-7.908 4.542c-.275.158-.337.396-.208.618zM84.004 477.304l5.126 2.944c.465.267 1.175.297 1.578.066l151.764-87.166a.639.639 0 0 0 .167-.14c.199-.234.102-.547-.281-.767l-5.125-2.944c-.465-.267-1.176-.296-1.579-.065L83.891 476.398c-.272.156-.333.392-.203.611a.845.845 0 0 0 .316.295zM225.06 405.35l9.132 5.244c.472.271 1.193.301 1.602.067l7.908-4.543a.634.634 0 0 0 .173-.145c.198-.237.098-.553-.288-.775l-9.132-5.244c-.472-.271-1.193-.301-1.601-.066l-7.909 4.542c-.274.157-.336.395-.208.617a.851.851 0 0 0 .323.303zm-10.657 6.121 9.131 5.245c.473.271 1.193.301 1.602.066l7.909-4.542a.63.63 0 0 0 .172-.146c.198-.237.099-.552-.287-.774l-9.132-5.245c-.472-.271-1.193-.301-1.602-.066l-7.908 4.542c-.275.157-.337.395-.208.617a.851.851 0 0 0 .323.303zm-10.658 6.121 9.132 5.245c.472.271 1.193.301 1.602.066l7.908-4.542a.652.652 0 0 0 .173-.146c.198-.237.098-.553-.288-.775l-9.132-5.244c-.472-.271-1.193-.301-1.602-.066l-7.908 4.542c-.274.157-.337.395-.208.617a.851.851 0 0 0 .323.303zm-10.657 6.121 9.131 5.245c.473.271 1.193.301 1.602.066l7.909-4.542a.63.63 0 0 0 .172-.146c.198-.237.099-.552-.287-.774l-9.132-5.245c-.472-.271-1.193-.301-1.602-.066l-7.908 4.542c-.275.158-.337.395-.208.617a.851.851 0 0 0 .323.303zm-10.657 6.121 9.131 5.245c.472.271 1.193.301 1.602.066l7.908-4.542a.605.605 0 0 0 .173-.146c.198-.236.098-.552-.288-.774l-9.131-5.245c-.472-.271-1.193-.301-1.602-.066l-7.908 4.542c-.275.158-.337.396-.209.618a.853.853 0 0 0 .324.302zm-10.658 6.121 9.131 5.245c.473.271 1.193.301 1.602.066l7.909-4.542a.63.63 0 0 0 .172-.146c.198-.236.099-.552-.287-.774l-9.132-5.245c-.472-.271-1.193-.301-1.602-.066l-7.908 4.542c-.275.158-.337.396-.208.617a.844.844 0 0 0 .323.303zm-10.657 6.122 9.131 5.244c.472.271 1.193.301 1.602.066l7.908-4.542a.62.62 0 0 0 .173-.145c.198-.237.098-.553-.288-.775l-9.131-5.244c-.473-.271-1.193-.301-1.602-.067L161 441.156c-.275.158-.337.396-.209.618a.855.855 0 0 0 .324.303zm-10.658 6.121 9.131 5.245c.473.271 1.193.301 1.602.066l7.909-4.542a.63.63 0 0 0 .172-.146c.198-.237.099-.553-.287-.775l-9.132-5.244c-.472-.271-1.193-.301-1.602-.066l-7.908 4.542c-.275.157-.337.395-.208.617a.851.851 0 0 0 .323.303zm-10.657 6.121 9.131 5.245c.472.271 1.193.301 1.602.066l7.908-4.542a.621.621 0 0 0 .173-.146c.198-.236.098-.552-.288-.774l-9.131-5.245c-.473-.271-1.193-.301-1.602-.066l-7.908 4.542c-.275.158-.337.395-.209.617a.847.847 0 0 0 .324.303zm-10.658 6.121 9.131 5.245c.473.271 1.193.301 1.602.066l7.908-4.542a.621.621 0 0 0 .173-.146c.198-.237.099-.553-.288-.774l-9.131-5.245c-.472-.271-1.193-.301-1.602-.066l-7.908 4.542c-.275.157-.337.395-.208.617a.851.851 0 0 0 .323.303zm-10.657 6.121 9.131 5.245c.472.271 1.193.301 1.602.066l7.908-4.542a.621.621 0 0 0 .173-.146c.198-.236.098-.552-.288-.774l-9.131-5.245c-.473-.271-1.193-.301-1.602-.066l-7.908 4.542c-.275.158-.337.396-.209.618a.853.853 0 0 0 .324.302zm-10.658 6.122 9.131 5.244c.473.271 1.193.301 1.602.066l7.908-4.542a.62.62 0 0 0 .173-.145c.198-.237.099-.553-.288-.775l-9.131-5.244c-.472-.271-1.193-.301-1.602-.067l-7.908 4.542c-.275.158-.337.396-.208.618a.867.867 0 0 0 .323.303zm134.213-63.898a.847.847 0 0 0 .324.303l9.131 5.244c.472.271 1.193.301 1.602.067l13.177-7.569a.614.614 0 0 0 .172-.146c.199-.236.099-.552-.287-.774l-9.132-5.245c-.472-.271-1.193-.301-1.602-.066l-13.176 7.568c-.275.159-.337.397-.209.618zm-150.148 73.05 9.132 5.244c.472.271 1.193.301 1.602.066l13.176-7.568a.621.621 0 0 0 .173-.146c.198-.236.099-.552-.288-.774l-9.131-5.245c-.472-.271-1.193-.301-1.602-.066l-13.177 7.568c-.274.157-.337.395-.208.617a.858.858 0 0 0 .323.304zm129.147-60.499 9.131 5.245c.473.271 1.193.301 1.602.066l7.909-4.542a.63.63 0 0 0 .172-.146c.198-.237.099-.553-.287-.774l-9.132-5.245c-.472-.271-1.193-.301-1.602-.066l-7.908 4.542c-.275.157-.337.395-.208.617a.851.851 0 0 0 .323.303zm-10.659 6.122 9.132 5.244c.472.271 1.193.301 1.602.066l7.908-4.542a.634.634 0 0 0 .173-.145c.198-.237.098-.553-.288-.775l-9.132-5.244c-.472-.271-1.193-.301-1.601-.066l-7.909 4.542c-.274.157-.336.395-.208.617a.859.859 0 0 0 .323.303zm-10.658 6.121 9.131 5.245c.472.271 1.193.301 1.602.066l7.908-4.542a.605.605 0 0 0 .173-.146c.198-.236.098-.552-.288-.774l-9.131-5.245c-.472-.271-1.193-.301-1.602-.066l-7.908 4.542c-.275.158-.337.396-.209.618a.853.853 0 0 0 .324.302zm-10.658 6.122 9.131 5.245c.472.271 1.193.301 1.602.066l7.908-4.542a.621.621 0 0 0 .173-.146c.198-.236.098-.552-.288-.774l-9.131-5.245c-.473-.271-1.193-.301-1.602-.066l-7.908 4.542c-.275.158-.337.395-.209.617a.847.847 0 0 0 .324.303zm-10.659 6.122 9.131 5.245c.473.271 1.193.301 1.602.066l7.909-4.542a.63.63 0 0 0 .172-.146c.198-.237.099-.553-.287-.774l-9.132-5.245c-.472-.271-1.193-.301-1.602-.066l-7.908 4.542c-.275.157-.337.395-.208.617a.859.859 0 0 0 .323.303zm-10.659 6.122 9.132 5.244c.472.271 1.193.301 1.602.066l7.908-4.542a.634.634 0 0 0 .173-.145c.198-.237.098-.553-.288-.775l-9.132-5.244c-.472-.271-1.193-.301-1.601-.067l-7.909 4.542c-.274.158-.336.396-.208.618a.867.867 0 0 0 .323.303zm-10.658 6.121 9.132 5.245c.472.271 1.193.301 1.602.066l7.908-4.542a.63.63 0 0 0 .172-.146c.199-.236.099-.552-.287-.774l-9.132-5.245c-.472-.271-1.193-.301-1.602-.066l-7.908 4.542c-.275.158-.337.396-.208.618a.857.857 0 0 0 .323.302zm-10.659 6.122 9.132 5.245c.472.271 1.193.301 1.602.066l7.908-4.542a.621.621 0 0 0 .173-.146c.198-.237.098-.552-.288-.774l-9.131-5.245c-.473-.271-1.193-.301-1.602-.066l-7.908 4.542c-.275.157-.337.395-.209.617a.851.851 0 0 0 .323.303zm-10.658 6.122 9.131 5.244c.473.272 1.193.302 1.602.067l7.909-4.542a.649.649 0 0 0 .172-.146c.198-.237.099-.553-.287-.775l-9.132-5.244c-.472-.271-1.193-.301-1.602-.066l-7.908 4.542c-.275.157-.337.395-.208.617a.859.859 0 0 0 .323.303zm-10.658 6.122 9.131 5.244c.472.271 1.193.301 1.602.066l7.908-4.542a.62.62 0 0 0 .173-.145c.198-.237.099-.553-.288-.775l-9.131-5.245c-.472-.271-1.193-.301-1.602-.066l-7.908 4.542c-.275.158-.337.396-.208.618a.859.859 0 0 0 .323.303zm7.868 5.97-9.132-5.245c-.472-.271-1.193-.301-1.602-.066l-7.908 4.542c-.275.158-.337.396-.208.617a.851.851 0 0 0 .323.303l9.132 5.245c.472.271 1.193.301 1.602.066l7.908-4.542a.63.63 0 0 0 .172-.146c.198-.236.098-.552-.287-.774zm-29.182 6.271 9.131 5.245c.472.271 1.193.301 1.602.066l7.908-4.542a.621.621 0 0 0 .173-.146c.198-.236.098-.552-.288-.774l-9.131-5.245c-.473-.271-1.193-.301-1.602-.066l-7.908 4.542c-.275.158-.337.396-.209.617a.847.847 0 0 0 .324.303zm144.902-59.059-9.131-5.245c-.472-.271-1.193-.301-1.602-.066l-7.908 4.542c-.275.158-.337.396-.208.617a.844.844 0 0 0 .323.303l9.131 5.245c.473.271 1.193.301 1.602.066l7.908-4.542a.621.621 0 0 0 .173-.146c.198-.236.099-.552-.288-.774zm-10.638 6.11-9.132-5.244c-.472-.271-1.193-.301-1.602-.066l-7.908 4.542c-.274.157-.337.395-.208.617a.851.851 0 0 0 .323.303l9.132 5.244c.472.271 1.193.301 1.602.066l7.908-4.542a.65.65 0 0 0 .173-.145c.198-.237.098-.553-.288-.775zm-10.638 6.11-9.132-5.244c-.472-.271-1.193-.301-1.602-.067l-7.908 4.543c-.274.157-.337.395-.208.617a.859.859 0 0 0 .323.303l9.132 5.244c.472.271 1.193.301 1.602.066l7.908-4.542a.668.668 0 0 0 .173-.145c.198-.237.098-.553-.288-.775zm-10.639 6.111-9.131-5.245c-.472-.271-1.193-.301-1.602-.066l-7.908 4.542c-.275.157-.337.395-.209.617a.847.847 0 0 0 .324.303l9.131 5.245c.472.271 1.193.301 1.602.066l7.908-4.542a.621.621 0 0 0 .173-.146c.198-.237.098-.553-.288-.774zm-10.638 6.11-9.131-5.245c-.473-.271-1.193-.301-1.602-.066l-7.908 4.542c-.275.157-.337.395-.209.617a.847.847 0 0 0 .324.303l9.131 5.245c.472.271 1.193.301 1.602.066l7.908-4.542a.621.621 0 0 0 .173-.146c.198-.237.098-.552-.288-.774zm-10.638 6.11-9.132-5.245c-.472-.271-1.193-.301-1.602-.066l-7.908 4.542c-.275.157-.337.395-.208.617a.851.851 0 0 0 .323.303l9.132 5.245c.472.271 1.193.301 1.602.066l7.908-4.542a.652.652 0 0 0 .173-.146c.198-.237.098-.552-.288-.774zm-10.638 6.11-9.132-5.245c-.472-.271-1.193-.301-1.602-.066l-7.908 4.542c-.275.158-.337.396-.208.618a.857.857 0 0 0 .323.302l9.132 5.245c.472.271 1.193.301 1.601.066l7.909-4.542a.614.614 0 0 0 .172-.146c.198-.237.098-.553-.287-.774zm-10.639 6.11-9.131-5.245c-.473-.271-1.193-.301-1.602-.066l-7.908 4.542c-.275.158-.337.396-.209.618a.853.853 0 0 0 .324.302l9.131 5.245c.472.271 1.193.301 1.602.066l7.908-4.542a.605.605 0 0 0 .173-.146c.198-.236.098-.552-.288-.774zm-10.638 6.11-9.131-5.245c-.473-.271-1.193-.301-1.602-.066l-7.908 4.542c-.275.158-.337.396-.209.618a.853.853 0 0 0 .324.302l9.131 5.245c.472.271 1.193.301 1.602.066l7.908-4.542a.605.605 0 0 0 .173-.146c.198-.236.098-.552-.288-.774zm-29.165 6.262 9.131 5.244c.473.271 1.194.302 1.602.067l7.909-4.542a.649.649 0 0 0 .172-.146c.199-.237.099-.553-.287-.775l-9.132-5.244c-.472-.271-1.193-.301-1.602-.066l-7.908 4.542c-.275.157-.337.395-.208.617a.859.859 0 0 0 .323.303zm120.956-45.306-9.131-5.244c-.472-.271-1.193-.301-1.602-.066l-7.908 4.542c-.275.157-.337.395-.208.617a.851.851 0 0 0 .323.303l9.131 5.244c.473.272 1.193.302 1.602.067l7.908-4.542a.639.639 0 0 0 .173-.146c.198-.237.099-.553-.288-.775zm-10.666 6.127-9.131-5.245c-.472-.271-1.193-.301-1.602-.066l-7.908 4.542c-.275.157-.337.395-.208.617a.844.844 0 0 0 .323.303l9.131 5.245c.473.271 1.193.301 1.602.066l7.908-4.542a.621.621 0 0 0 .173-.146c.198-.237.099-.553-.288-.774zm-10.666 6.126-9.132-5.245c-.472-.271-1.193-.301-1.602-.066l-7.908 4.542c-.274.157-.337.395-.208.617a.851.851 0 0 0 .323.303l9.132 5.245c.472.271 1.193.301 1.602.066l7.908-4.542a.652.652 0 0 0 .173-.146c.198-.237.098-.553-.288-.774zm-10.666 6.126-9.132-5.245c-.472-.271-1.193-.301-1.602-.066l-7.908 4.542c-.274.158-.337.396-.208.618a.857.857 0 0 0 .323.302l9.132 5.245c.472.271 1.193.301 1.602.066l7.908-4.542a.65.65 0 0 0 .173-.145c.197-.238.098-.553-.288-.775zm-21.333 12.252-9.132-5.244c-.472-.271-1.193-.301-1.602-.067l-7.908 4.542c-.274.158-.337.396-.208.618a.859.859 0 0 0 .323.303l9.132 5.244c.472.271 1.193.301 1.602.066l7.908-4.542a.65.65 0 0 0 .173-.145c.198-.237.098-.553-.288-.775zm-10.666 6.127-9.132-5.245c-.472-.271-1.193-.301-1.602-.066l-7.908 4.542c-.274.158-.337.396-.208.617a.851.851 0 0 0 .323.303l9.132 5.245c.472.271 1.193.301 1.602.066l7.908-4.542a.652.652 0 0 0 .173-.146c.198-.237.098-.553-.288-.774zm11.909 6.84-9.137-5.248c-.471-.271-1.189-.3-1.596-.066l-10.801 6.204c-.274.157-.336.394-.207.615a.848.848 0 0 0 .321.301l9.138 5.248c.47.27 1.188.3 1.596.066l10.801-6.204a.62.62 0 0 0 .171-.144c.198-.236.099-.551-.286-.772zm-22.425-.801-9.131-5.244c-.473-.271-1.193-.301-1.602-.066l-7.908 4.542c-.275.157-.337.395-.209.617a.847.847 0 0 0 .324.303l9.131 5.244c.472.271 1.193.301 1.602.066l7.908-4.542a.62.62 0 0 0 .173-.145c.198-.237.098-.553-.288-.775zm9.192 8.398-9.132-5.244c-.472-.271-1.193-.301-1.602-.067l-7.908 4.543c-.275.157-.337.395-.208.617a.859.859 0 0 0 .323.303l9.131 5.244c.473.271 1.193.301 1.602.066l7.909-4.542a.628.628 0 0 0 .172-.145c.198-.237.099-.553-.287-.775zm-10.674 6.13-9.131-5.244c-.473-.271-1.193-.302-1.602-.067l-7.909 4.542c-.274.158-.336.396-.208.618a.859.859 0 0 0 .323.303l9.132 5.244c.472.271 1.193.301 1.602.066l7.908-4.542a.634.634 0 0 0 .173-.145c.198-.237.098-.553-.288-.775zm-10.673 6.131-9.132-5.245c-.472-.271-1.193-.301-1.602-.066l-7.908 4.542c-.275.157-.337.395-.208.617a.851.851 0 0 0 .323.303l9.131 5.245c.473.271 1.193.301 1.602.066l7.909-4.542a.63.63 0 0 0 .172-.146c.198-.237.099-.552-.287-.774zm-10.674 6.13-9.131-5.245c-.473-.271-1.193-.301-1.602-.066l-7.909 4.542c-.274.158-.336.396-.208.618a.857.857 0 0 0 .323.302l9.132 5.245c.472.271 1.193.301 1.602.066l7.908-4.542a.619.619 0 0 0 .173-.146c.198-.236.098-.552-.288-.774zm12.314-20.749-9.132-5.245c-.472-.271-1.193-.301-1.602-.066l-7.908 4.542c-.275.158-.337.395-.208.617a.851.851 0 0 0 .323.303l9.131 5.245c.473.271 1.193.301 1.602.066l7.909-4.542a.63.63 0 0 0 .172-.146c.198-.236.099-.552-.287-.774zm-42.766 14.051 9.169 5.266c.462.266 1.168.295 1.567.065l21.495-12.345a.64.64 0 0 0 .165-.138c.199-.232.103-.543-.278-.762l-9.169-5.266c-.462-.266-1.167-.295-1.567-.065L127.48 501.44c-.271.155-.33.39-.2.609a.834.834 0 0 0 .312.29zm129.967-75.117a.856.856 0 0 0 .313.291l9.169 5.266c.462.265 1.167.294 1.567.064l21.495-12.345a.615.615 0 0 0 .164-.137c.2-.232.104-.544-.277-.763l-9.169-5.266c-.462-.265-1.167-.294-1.567-.064l-21.494 12.345c-.271.155-.33.391-.201.609zm-6.404-9.996a.84.84 0 0 0 .321.301l9.138 5.248c.47.27 1.188.3 1.596.066l15.972-9.174a.626.626 0 0 0 .172-.144c.198-.236.099-.551-.286-.772l-9.138-5.249c-.47-.27-1.189-.299-1.596-.065l-15.972 9.173c-.274.158-.336.395-.207.616zM115.702 495.51l9.137 5.248c.471.27 1.189.3 1.596.066l15.973-9.174a.623.623 0 0 0 .171-.145c.199-.235.1-.551-.286-.772l-9.137-5.248c-.471-.27-1.189-.3-1.596-.066l-15.973 9.174c-.274.158-.335.395-.207.616a.852.852 0 0 0 .322.301zm97.019-31.554-9.131-5.244c-.472-.272-1.193-.302-1.602-.067l-7.908 4.542c-.275.158-.337.396-.208.618a.851.851 0 0 0 .323.303l9.131 5.244c.472.271 1.193.301 1.602.066l7.908-4.542a.62.62 0 0 0 .173-.145c.198-.237.098-.553-.288-.775zm57.623-19.404-9.157-5.259c-.465-.267-1.175-.297-1.579-.066l-10.967 6.3c-.272.156-.333.392-.203.612a.84.84 0 0 0 .316.294l9.156 5.259c.466.267 1.176.297 1.579.066l10.968-6.3a.623.623 0 0 0 .167-.14c.199-.233.102-.547-.28-.766z" fill="#6F8FEA"/>
    <path d="m89.443 331.963.017 5.865-5.13 2.947-.017-5.865 5.13-2.947zm130.039-62.948.016 5.865-39.401 22.633-.016-5.866 39.401-22.632z" fill="#fff"/>
    <path d="m121.54 384.246.017 5.93-13.777 7.87-.017-5.93 13.777-7.87z" fill="#FF8584"/>
    <path d="m149.69 403.492.017 5.844-39.168 22.521-.017-5.844 39.168-22.521zm44.272-25.456.016 5.844-39.165 22.519-.016-5.844 39.165-22.519z" fill="#FFED86"/>
    <path d="m215.343 318.005.017 5.963-39.298 23.017-.017-5.962 39.298-23.018z" fill="#FF8584"/>
    <path d="m208.096 346.134.017 5.905-65.169 37.926-.017-5.905 65.169-37.926zm-2.601-33.972.017 5.905-55.886 32.524-.017-5.905 55.886-32.524zm13.987 39.176.016 5.905-115.167 67.023-.017-5.905 115.168-67.023zm-81.653 35.689.017 5.905-24.385 14.191-.017-5.905 24.385-14.191zm69.14-99.382.017 5.905-65.172 37.927-.016-5.905 65.171-37.927z" fill="#fff"/>
    <path d="m144.302 347.675.016 5.77-26.193 14.931-.016-5.77 26.193-14.931z" fill="#FFED86"/>
    <path d="m171.201 343.535.016 5.918-68.266 39.623-.016-5.917 68.266-39.624z" fill="#fff"/>
    <path d="m136.715 328.355.016 5.88-24.813 14.13-.017-5.879 24.814-14.131z" fill="#FF8584"/>
    <path d="m185.685 276.604.017 5.893-55.723 32.454-.017-5.892 55.723-32.455zm-10.902 18.154.016 5.892-67.709 39.435-.017-5.892 67.71-39.435z" fill="#fff"/>
    <path d="m124.989 311.795.017 5.769-26.882 14.931-.017-5.769 26.882-14.931z" fill="#FFED86"/>
    <path d="M154.959 189.369a38.953 38.953 0 0 1 2.133-2.071c.07-.061.136-.127.206-.188.45-.395.911-.778 1.382-1.148.126-.099.254-.193.381-.29.357-.273.721-.537 1.091-.794.139-.097.278-.195.419-.288.479-.323.969-.631 1.469-.923a23.31 23.31 0 0 1 1.186-.638c.113-.058.226-.112.339-.166.294-.143.591-.279.891-.408.104-.045.21-.093.314-.135.272-.112.548-.217.825-.315.069-.025.139-.053.207-.077a15.02 15.02 0 0 1 1.592-.456c.091-.022.183-.047.273-.067a13.116 13.116 0 0 1 2.345-.296c.367-.013.729-.012 1.084.008.061.004.121.012.183.016a10.565 10.565 0 0 1 1.105.143c.315.056.627.128.935.216l.04.013c.288.086.569.188.844.299.081.032.16.067.24.102.234.103.464.215.688.337.074.04.152.076.225.119l-12.551-7.307-.103-.059c-.039-.022-.082-.038-.122-.06a8.93 8.93 0 0 0-.688-.337c-.045-.019-.085-.045-.129-.063-.037-.016-.076-.025-.112-.04a9.37 9.37 0 0 0-.843-.298c-.012-.003-.023-.009-.034-.012l-.006-.001a9.85 9.85 0 0 0-.935-.216c-.038-.007-.073-.019-.11-.025-.049-.009-.101-.01-.15-.018a10.955 10.955 0 0 0-.846-.099c-.046-.003-.089-.013-.135-.016h-.048c-.361-.02-.723-.023-1.084-.009-.036.002-.07-.002-.107-.001-.046.003-.095.012-.142.015-.411.023-.826.06-1.251.126h-.002c-.278.042-.559.095-.842.156-.091.02-.184.046-.275.067-.176.041-.351.08-.53.129l-.052.016c-.333.092-.669.195-1.009.312-.069.023-.138.052-.207.076-.273.098-.548.202-.826.315-.036.015-.072.026-.109.042-.067.028-.136.065-.204.093-.295.127-.592.263-.892.408-.113.055-.225.109-.338.166a23.45 23.45 0 0 0-2.655 1.561c-.141.094-.28.192-.419.289-.37.256-.734.521-1.092.794-.127.097-.254.191-.38.29-.471.37-.932.752-1.382 1.147-.07.062-.138.128-.208.191-.235.209-.468.422-.698.638l-8.744-5.09a3.73 3.73 0 0 0-.107-.062c-.041-.023-.086-.04-.128-.063a9.868 9.868 0 0 0-.745-.365c-.047-.02-.091-.047-.137-.067-.039-.017-.08-.027-.119-.042a10.111 10.111 0 0 0-.909-.322l-.034-.011-.004-.001a10.494 10.494 0 0 0-1.007-.233c-.039-.007-.076-.02-.116-.027-.052-.009-.107-.01-.16-.019-.3-.047-.602-.083-.905-.106-.05-.004-.096-.014-.146-.017h-.053a12.149 12.149 0 0 0-1.161-.01c-.037.001-.073-.003-.11-.001-.05.002-.103.013-.154.015-.432.024-.87.063-1.317.131l-.015.002h-.005c-.05.008-.1.02-.15.028-.256.041-.51.088-.764.142-.108.023-.219.054-.328.079-.18.043-.358.082-.539.132-.019.004-.038.012-.056.017-.353.098-.71.206-1.07.33-.059.02-.12.045-.179.066-.302.107-.606.221-.912.346-.033.014-.065.024-.098.037-.068.028-.138.065-.206.094-.332.142-.667.294-1.004.457-.119.058-.238.115-.358.176a25.468 25.468 0 0 0-3.121 1.852c-.202.137-.397.29-.596.433-.403.285-.799.578-1.188.88-.232.184-.459.38-.689.571-.352.29-.7.586-1.041.888-.239.214-.472.438-.707.659-.218.206-.442.402-.657.614-.131.129-.257.266-.386.397a44.264 44.264 0 0 0-1.818 1.956l-.013.015a44.814 44.814 0 0 0-1.591 1.941l-.007.009a45.8 45.8 0 0 0-1.341 1.82c-.023.032-.043.065-.066.098-.11.157-.212.32-.32.479-.262.386-.528.771-.779 1.165-.066.104-.127.211-.192.316-.133.21-.26.424-.389.636-.152.251-.31.499-.459.753-.123.211-.236.428-.357.642-.12.214-.241.428-.358.643-.075.138-.155.274-.229.413a45.65 45.65 0 0 0-.632 1.249c-.061.122-.126.243-.185.366l-.049.096a48.13 48.13 0 0 0-.797 1.745c-.03.07-.056.141-.086.21-.083.195-.159.391-.239.586-.138.336-.282.671-.412 1.008-.065.169-.119.339-.182.509a48.28 48.28 0 0 0-.279.777c-.071.205-.151.408-.219.613-.083.25-.151.5-.229.75-.092.296-.185.591-.27.886-.04.137-.088.275-.126.412-.075.269-.129.537-.198.806-.095.376-.192.751-.276 1.126-.026.12-.063.24-.088.36-.109.514-.206 1.03-.293 1.549-.013.08-.023.16-.036.241-.058.361-.116.723-.162 1.082-.044.346-.083.692-.116 1.039l-.232.061c-.317.086-.639.191-.96.295-.112.036-.222.064-.333.102-.471.16-.937.336-1.397.526-.016.006-.031.015-.047.021-.346.144-.697.312-1.047.477-.179.084-.354.155-.534.245a28.997 28.997 0 0 0-3.42 2.001c-.1.068-.202.133-.302.202a36.798 36.798 0 0 0-2.012 1.482c-.57.447-1.129.911-1.675 1.388l-.143.131c-.535.475-1.058.964-1.57 1.465-.05.05-.104.095-.155.145l-.093.097c-.396.393-.788.793-1.173 1.204l-.057.063c-.366.391-.725.791-1.08 1.197-.034.039-.07.076-.103.115-.043.05-.083.104-.126.153a52.404 52.404 0 0 0-1.687 2.058c-.015.021-.033.039-.048.059-.042.055-.081.112-.123.167a52.434 52.434 0 0 0-1.275 1.733c-.042.058-.087.115-.129.174-.019.027-.036.056-.055.084-.398.57-.784 1.149-1.16 1.734-.036.056-.075.11-.112.167-.053.085-.103.173-.156.257-.304.482-.6.968-.89 1.458-.044.077-.093.151-.138.228l-.05.088a54.982 54.982 0 0 0-.949 1.707c-.025.047-.052.093-.078.14-.05.095-.095.192-.145.288-.239.456-.471.915-.697 1.378-.047.096-.1.191-.146.287-.028.058-.052.117-.08.175-.279.583-.547 1.171-.805 1.764l-.026.055c-.027.064-.05.129-.078.193a51.803 51.803 0 0 0-.657 1.608c-.034.087-.073.173-.106.261-.029.073-.051.146-.079.219-.241.633-.47 1.271-.685 1.913-.004.012-.01.024-.013.036-.013.038-.022.076-.034.113a48.202 48.202 0 0 0-.604 1.982c-.023.083-.052.165-.075.247-.013.045-.021.09-.033.136a44.669 44.669 0 0 0-.563 2.299c-.015.067-.035.135-.05.203-.021.099-.037.198-.057.297-.061.301-.119.602-.174.904-.037.208-.076.415-.11.623-.05.308-.097.617-.14.926-.02.146-.047.292-.065.437-.005.039-.007.077-.011.115a35.94 35.94 0 0 0-.193 1.972c-.01.139-.017.278-.026.416a32.462 32.462 0 0 0-.064 1.998c.02 7.244 2.574 12.343 6.692 14.74l12.55 7.308c-4.117-2.398-6.67-7.497-6.69-14.741 0-.666.021-1.333.063-1.998.008-.138.016-.277.026-.416.046-.653.11-1.31.193-1.971.023-.185.05-.37.077-.554.043-.308.088-.615.14-.923.034-.21.072-.419.11-.628a40.638 40.638 0 0 1 .28-1.401 44.66 44.66 0 0 1 .562-2.298c.035-.128.073-.256.11-.384a48.87 48.87 0 0 1 .604-1.985l.046-.144c.27-.805.56-1.604.87-2.395.211-.539.43-1.077.659-1.612.034-.08.066-.161.101-.242.259-.594.528-1.183.807-1.767.073-.153.149-.305.223-.458.227-.464.46-.926.7-1.384.074-.14.146-.282.221-.422.307-.575.624-1.144.95-1.708.062-.107.127-.213.19-.32.289-.489.584-.974.887-1.454.09-.142.178-.284.27-.425.375-.585.762-1.163 1.159-1.734.06-.087.123-.171.184-.257.413-.586.838-1.164 1.275-1.732.058-.076.114-.153.173-.229.544-.7 1.107-1.386 1.686-2.057l.228-.267c.353-.404.71-.801 1.073-1.19l.065-.071c.385-.411.776-.811 1.17-1.203l.252-.243a43.13 43.13 0 0 1 1.567-1.463l.146-.133a40.32 40.32 0 0 1 1.673-1.387c.108-.085.215-.17.323-.253a36.935 36.935 0 0 1 1.689-1.23c.101-.069.202-.134.303-.201a33.867 33.867 0 0 1 1.809-1.137 29.657 29.657 0 0 1 1.611-.865c.179-.089.354-.16.533-.245.35-.165.702-.333 1.048-.477.475-.198.956-.381 1.443-.547.112-.038.221-.066.332-.102.394-.131.792-.25 1.193-.356.067-.702.163-1.41.277-2.121.013-.081.023-.161.036-.241a36.646 36.646 0 0 1 .658-3.034c.103-.407.206-.813.323-1.22.085-.294.178-.588.27-.883.385-1.24.826-2.462 1.322-3.662.079-.194.155-.389.237-.582.295-.691.605-1.375.932-2.051.06-.124.126-.246.187-.37.276-.558.562-1.111.86-1.659.117-.216.238-.43.358-.644.265-.469.536-.934.816-1.394.129-.213.256-.426.388-.637.315-.501.641-.992.972-1.48.108-.159.211-.322.32-.479a45.147 45.147 0 0 1 3.006-3.867 41.472 41.472 0 0 1 2.874-2.982c.234-.221.468-.446.706-.659.341-.303.689-.599 1.041-.888.23-.191.457-.388.689-.571.389-.303.785-.596 1.188-.88.199-.143.394-.296.596-.434a29.175 29.175 0 0 1 1.829-1.157c.435-.251.865-.478 1.293-.694.119-.061.238-.118.357-.176.331-.16.665-.313 1.003-.457.102-.043.204-.089.305-.131.3-.122.604-.237.91-.345.06-.021.122-.047.182-.067a15.188 15.188 0 0 1 1.664-.478c.109-.026.22-.057.329-.08.253-.053.508-.101.763-.142.05-.008.101-.02.15-.027l.02-.002c.436-.065.876-.109 1.316-.131.089-.005.178-.012.266-.015a12.49 12.49 0 0 1 1.024.009l-.043.044a38.322 38.322 0 0 0-1.036 1.093c-.16.175-.319.351-.476.528-.065.074-.133.145-.198.22-.213.245-.423.493-.63.743l12.551 7.308c.422-.508.857-1.006 1.303-1.492.183-.2.364-.397.548-.59z" fill="#6F8FEA"/>
    <path d="M133.465 184.544c9.793-5.65 17.98-2.35 19.85 7.217 2.663-3.212 5.717-5.921 8.974-7.8 10.387-5.993 18.836-1.181 18.869 10.747.001.295-.009.597-.02.899 1.78-1.862 3.716-3.439 5.756-4.616 8.455-4.879 15.334-.961 15.361 8.749.028 9.716-6.806 21.545-15.262 26.424l-79.552 45.9c-12.735 7.348-23.087 1.446-23.128-13.172-.042-14.624 10.243-32.426 22.978-39.774 2.143-1.236 4.217-2.092 6.19-2.599 1.161-12.19 9.649-26.011 19.984-31.975z" fill="#FEFEFE"/>
    <path d="M556.506 115.601c-.166-.136-.331-.274-.5-.404a23.3 23.3 0 0 0-.881-.641c-.146-.102-.29-.21-.437-.308a18.649 18.649 0 0 0-2.272-1.315c-.088-.043-.175-.083-.263-.124-.228-.108-.458-.21-.691-.307-.081-.034-.163-.07-.243-.102a14.422 14.422 0 0 0-.64-.237c-.053-.018-.107-.04-.16-.058a13.253 13.253 0 0 0-.782-.234l-.109-.027a11.664 11.664 0 0 0-1.2-.249l-.009-.002a10.266 10.266 0 0 0-.969-.094 9.388 9.388 0 0 0-1.032-.004l-.144.012a8.146 8.146 0 0 0-.653.074c-.068.011-.136.021-.202.033a7.477 7.477 0 0 0-.756.173 7.192 7.192 0 0 0-1.374.555c-.058.03-.118.057-.174.089l11.948-6.754.079-.044c.03-.017.063-.029.094-.045.174-.092.353-.177.535-.254.034-.015.065-.034.1-.048.028-.011.057-.018.086-.029.214-.084.431-.161.655-.225l.025-.009.005-.001c.236-.066.478-.118.725-.162.029-.005.056-.015.084-.02.038-.006.079-.007.117-.013.215-.033.433-.058.654-.074.036-.003.07-.01.106-.012l.037-.001c.28-.015.56-.017.84-.006.028.001.054-.002.082-.001.036.002.074.009.111.011.317.018.639.046.968.095h.003l.004.001c.394.059.795.145 1.202.25.024.006.046.008.07.014l.04.012c.258.069.519.147.782.235l.16.057c.212.074.425.152.64.237.029.012.057.02.085.032.053.021.106.049.158.07.229.096.459.198.691.307l.262.125c.304.15.61.307.919.48.462.261.914.539 1.354.834.146.098.289.206.434.308.297.207.593.418.884.642.168.13.332.267.498.402.263.214.524.431.781.657.171.15.339.305.507.461.132.122.268.236.398.362.201.192.399.389.595.589l-11.947 6.754c-.324-.33-.659-.641-.994-.951a27.702 27.702 0 0 0-.507-.461 24.3 24.3 0 0 0-.779-.655z" fill="#6F8FEA"/>
    <path d="M603.985 106.792c-9.205-5.343-16.902-2.222-18.659 6.824-2.504-3.037-5.375-5.599-8.437-7.376-9.764-5.667-17.706-1.117-17.738 10.162-.001.28.009.565.019.85-1.674-1.76-3.493-3.251-5.41-4.364-7.949-4.614-14.415-.91-14.441 8.272-.026 9.188 6.398 20.374 14.347 24.987l74.786 43.404c11.972 6.948 21.703 1.367 21.742-12.455.039-13.829-9.629-30.663-21.601-37.611-2.014-1.169-3.965-1.978-5.82-2.458-1.092-11.527-9.071-24.596-18.788-30.235z" fill="#FEFEFE"/>
    <g clip-path="url(#alrs1k71aa)">
        <path d="m374.165 298.45 39.064-43.362 1.139-15.916 4.042 16.33-30.681 45.539-13.564-2.591z" fill="#DF9481"/>
        <path d="m359.06 314.07 24.968-26.577 12.007 20.585-27.865 31.268-9.11-25.276z" fill="#FFBE55"/>
        <path opacity=".2" d="m359.06 314.07 24.968-26.577 12.007 20.585-27.865 31.268-9.11-25.276z" fill="#FFBE55"/>
        <path d="m335.2 468.895-5.846 28.472-8.402-24.241 5.194-4.35-6.764.762-.923-3.531 14.75-4.305 1.991 7.193z" fill="#FFBE55"/>
        <path d="M362.12 377.812s28.984 50.643 26.747 58.949c-2.236 8.306-53.802 34.809-53.802 34.809l-3.005-10.664s33.507-27.977 38.353-28.059c-11.314-5.892-31.676-45.931-31.676-45.931l23.383-9.104z" fill="#093C59"/>
        <path d="m338.196 515.694 17.722 23.039-23.835-9.492.104-6.773-3.846 5.616-3.275-1.611 6.387-13.975 6.743 3.196z" fill="#FFBE55"/>
        <path d="M359.54 379.026s-11.632 84.302-17.009 140.671c-11.733 3.143-13.344-8.649-13.344-8.649s-5.628-113.656 3.316-133.033c20.656-4.055 27.037 1.011 27.037 1.011z" fill="#0B4870"/>
        <path d="m328.816 349.891-29.038 46.038-19.83 9.336 21.039-4.173 33.66-38.683-5.831-12.518z" fill="#DF9481"/>
        <path d="M354.263 305.808c8.796-2.357 13.91-11.798 11.421-21.087-2.489-9.288-11.638-14.907-20.434-12.55-8.797 2.357-13.91 11.797-11.421 21.086 2.489 9.289 11.637 14.908 20.434 12.551z" fill="#0B4870"/>
        <path d="M361.788 273.711s11.411 25.505 7.886 32.167c-15.305 3.003-20.584-1.671-26.447-8.521-5.863-6.85-1.625-25.193 18.561-23.646z" fill="#DF9481"/>
        <path d="M365.543 272.681c.799 6.044-17.852 27.013-23.514 25.742-3.56-10.448-2.809-31.391 23.514-25.742z" fill="#0B4870"/>
        <path d="M345.861 298.013c-2.409-1.424-4.295-1.159-3.934 1.397.326 2.312 4.141 4.814 6.13 3.725 1.989-1.089-2.196-5.122-2.196-5.122z" fill="#DF9481"/>
        <path d="M340.863 276.231c-7.038-5.698-17.143-7.345-25.626-4.175-2.875 1.075-5.63 2.725-7.424 5.215-1.793 2.49-2.467 5.921-1.164 8.699 2.145 4.569 8.811 6.362 9.564 11.354.33 2.187-.686 4.406-2.183 6.034-1.498 1.629-3.438 2.771-5.348 3.888-4.29 2.511-8.705 5.131-11.638 9.144-2.933 4.014-4.002 9.83-1.191 13.93 1.827 2.665 5.177 4.624 5.359 7.85.188 3.324-3.163 5.77-4.03 8.985-.85 3.149.957 6.591 3.684 8.381 2.726 1.789 6.16 2.176 9.412 1.92 5.242-.411 10.996-3.084 12.281-8.183.894-3.551-.657-7.29-2.792-10.266-2.136-2.976-4.869-5.501-6.85-8.582-1.98-3.081-3.146-7.041-1.719-10.414 1.496-3.54 5.298-5.399 8.706-7.176 3.408-1.778 7.052-4.242 7.65-8.039.542-3.431-1.614-7.12-.198-10.291 1.274-2.854 4.747-3.812 7.361-5.525 3.597-2.358 5.813-6.681 5.627-10.978l.519-1.771z" fill="#0B4870"/>
        <path d="m358.664 303.867 1.661 9.164 10.002 13.011-18.086-10.415-4.447-13.529 10.87 1.769z" fill="#DF9481"/>
        <path d="m377.595 342.204-7.46 13.207-2.756 27.891-30.08-2.379-10.178-.809 6.995-10.438s-12.084-7.313-15.858-14.026c13.31-19.203 23.39-34.458 33.982-40.022l3.006-.805 15.081 11.216 7.268 16.165z" fill="#FFBE55"/>
        <path opacity=".5" d="m347.918 348.897-10.619 32.026-10.179-.809 6.996-10.438 13.802-20.779z" fill="#FFBE55"/>
        <path d="m575.831 404.439 27.157 21.12-18.559-39.471-14.69 7.023 6.092 11.328z" fill="#FFBE55"/>
        <path d="M509.175 349.532c-1.198 19.194-1.605 46.072 11.283 57.828s57.287-2.527 57.287-2.527l-5.285-12.619s-32.879 1.993-32.611-2.425c.268-4.417.246-35.765-1.991-39.384-2.237-3.618-7.031-15.038-7.031-15.038l-21.652 14.165z" fill="#B1D9F2"/>
        <path d="m596.474 454.239-16.999 29.909 36.396-24.037-9.062-13.529-10.335 7.657z" fill="#FFBE55"/>
        <path d="M510.518 345.606c1.996 6.19 84.004 110.114 84.004 110.114l13.868-7.524s-55.738-100.682-62.273-114.075c-6.535-13.392-35.599 11.485-35.599 11.485z" fill="#CCE9FF"/>
        <path d="m556.263 294.004 5.615 4.131 19.617 32.644 6.737 14.171-7.836-.16-4.045-9.201-.874 4.292-1.971.939.389-8.827-19.421-25.846-8.686-2.958 10.475-9.185zm-75.641-26.716-56.347-15.207-9.907-12.909 4.042 16.33 52.227 21.326 9.985-9.54z" fill="#FFE3CA"/>
        <path d="m500.16 272.019-27.61-10.565-8.678 16.447 34.149 16.581 2.139-22.463z" fill="#0B3E5B"/>
        <path d="M500.16 272.019c-.705 1.074-7.801 10.251-9.832 19.098-2.03 8.846 17.016 62.347 17.016 62.347l47.111-15.199-20.355-37.839 12.27 7.727 12.823-18.34s-24.045-19.309-28.449-20.807c-8.259-2.81-30.584 3.013-30.584 3.013zm-8.984-38.365c3.893-.74 23.479-2.769 14.03 24.124-1.66 6.862-14.03-24.124-14.03-24.124z" fill="#0B4870"/>
        <path d="M476.282 243.363s4.024 24.542 10.601 28.223c3.621-1.447 9.385-3.12 11.618-4.71 6.7-4.771 4.196-9.638 6.154-13.939 3.736-8.206-12.262-21.832-28.373-9.574z" fill="#FFE3CA"/>
        <path d="m496.581 263.422 3.262 9.051-.187 5.72c-.181 2.218 2.82 3.074 3.836 1.095l5.954-9.311-5.173-16.917-7.692 10.362z" fill="#FFE3CA"/>
        <path d="M486.477 247.721c-1.833.387-3.496 1.282-5.18 2.104-1.684.821-3.633 1.453-5.407.853-2.433-.823-3.594-3.581-5.648-5.123-1.462-1.098-3.305-1.525-4.962-2.299-.244-.114-.492-.242-.656-.455-.372-.481-.179-1.177.073-1.73.896-1.968 2.379-3.69 4.271-4.736 1.893-1.045 4.199-1.379 6.273-.767 1.891.558 3.606 1.869 5.577 1.84 2.975-.044 4.986-3.011 7.673-4.288a7.194 7.194 0 0 1 3-.693c.658-.007 1.326.08 1.927.348 1.651.736 2.495 2.668 4.11 3.48 1.681.846 3.815.29 5.489 1.151 1.167.602 1.9 1.784 2.562 2.918.829 1.418 1.666 3.067 1.166 4.631-.218.682.212 6.112-.281 6.63-2.84 2.983-7.483-.184-11.149-.919-1.326-.266-2.518-.955-3.539-1.841-.848-.736-2.543-1.686-5.299-1.104z" fill="#0B4870"/>
        <path d="m498.645 246.881 2.408 8.629 1.702-.549.446-9.55-4.556 1.47z" fill="#0B4870"/>
        <path d="M501.305 247.329c2.697-3.483 4.025-2.859 4.772 1.077.747 3.936-3.322 6.555-3.322 6.555l-1.45-7.632z" fill="#FFE3CA"/>
        <path d="M503.626 315.713c2.679-.864 3.342-6.239 1.482-12.004s-5.54-9.738-8.219-8.873c-2.679.864-3.342 6.238-1.482 12.004 1.86 5.765 5.54 9.738 8.219 8.873z" fill="#FFBE55"/>
        <path d="m409.356 244.163-10.073-6.135m20.776 3.267 5.656-10.349m-5.62-3.179.371-.68m-2.828 5.174 1.808-3.307m-9.76 5.438-3.219-1.961" stroke="#FFBE55" stroke-width="2" stroke-miterlimit="10" stroke-linecap="round"/>
        <path d="M408.444 210.056c-11.113 0-20.114 9.007-20.114 20.119 0-11.112-9.007-20.119-20.119-20.119 11.112 0 20.119-9.007 20.119-20.12 0 11.113 9.001 20.12 20.114 20.12zm44.65 82.141c-5.566 0-10.074 4.511-10.074 10.077 0-5.566-4.511-10.077-10.077-10.077 5.566 0 10.077-4.511 10.077-10.077.001 5.566 4.509 10.077 10.074 10.077z" fill="#FFBE55"/>
    </g>
    <defs>
        <clipPath id="alrs1k71aa">
            <path fill="#fff" transform="rotate(-15 1009.454 -595.96)" d="M0 0h396.91v396.91H0z"/>
        </clipPath>
    </defs>
</svg>
