<svg width="843" height="651" viewBox="0 0 843 651" fill="none" xmlns="http://www.w3.org/2000/svg">
    <path d="M108.458 570.717c0-163.778 132.768-296.545 296.546-296.545 163.777 0 296.545 132.767 296.545 296.545" fill="#D2D9FD"/>
    <path d="M524.146 473.813h-16.564a.527.527 0 0 0-.53.53v12.569a6.62 6.62 0 0 0 6.621 6.621h4.382a6.619 6.619 0 0 0 6.622-6.621v-12.569a.53.53 0 0 0-.531-.53z" fill="#FFBE55"/>
    <path d="M522.16 491.367c3.738-2.111 10.15-8.34 9.083-12.723-.286-1.171-1.002-2.053-2.072-2.55-2.477-1.151-6.023.239-6.418.401l1.18 2.462c.855-.349 2.946-.918 3.931-.458.199.093.418.253.535.736.623 2.554-4.395 7.936-7.758 9.835l1.519 2.297z" fill="#FFBE55"/>
    <path d="M402.65 484.108h-85.666a2.615 2.615 0 0 1-2.613-2.613v-49.13a2.609 2.609 0 0 1 2.612-2.611h85.667a2.609 2.609 0 0 1 2.611 2.611v49.13a2.6 2.6 0 0 1-.764 1.847 2.61 2.61 0 0 1-1.847.766z" fill="#FAFAFA"/>
    <path d="M370.096 491.191c-.326-.869-.464-1.811-.464-2.754v-4.33H350.67v4.33c0 .943-.138 1.885-.463 2.754-.453 1.209-1.32 2.55-2.938 2.55h25.764c-1.617 0-2.484-1.341-2.937-2.55z" fill="#FAFAFA"/>
    <path d="M545.11 499.563H272.919a1.652 1.652 0 0 1-1.653-1.653v-2.543c0-.913.74-1.653 1.653-1.653H545.11c.914 0 1.653.74 1.653 1.653v2.543a1.639 1.639 0 0 1-.483 1.169 1.65 1.65 0 0 1-1.17.484z" fill="#D3D3D3"/>
    <path d="M318.391 499.563h6.252v70.277h-6.252v-70.277zm171.046 0h6.253v70.277h-6.253v-70.277z" fill="#D3D3D3"/>
    <path d="M402.65 475.462h-85.666a2.614 2.614 0 0 1-2.613-2.612v-49.13a2.611 2.611 0 0 1 2.613-2.613h85.666a2.62 2.62 0 0 1 1.847.765 2.606 2.606 0 0 1 .765 1.847v49.13a2.619 2.619 0 0 1-.764 1.848 2.622 2.622 0 0 1-1.848.765z" fill="#EDEDED"/>
    <path d="M317.892 424.132h83.976v47.75h-83.976v-47.75zm180.172 59.976h-85.666a2.612 2.612 0 0 1-2.613-2.613v-49.13a2.612 2.612 0 0 1 2.613-2.612h85.667a2.611 2.611 0 0 1 2.612 2.612v49.13a2.612 2.612 0 0 1-2.613 2.613z" fill="#FAFAFA"/>
    <path d="M465.509 491.191c-.325-.869-.463-1.811-.463-2.754v-4.33h-18.962v4.33c0 .943-.138 1.885-.464 2.754-.453 1.209-1.32 2.55-2.938 2.55h25.765c-1.618 0-2.484-1.341-2.938-2.55z" fill="#FAFAFA"/>
    <path d="M498.064 475.462h-85.666a2.611 2.611 0 0 1-2.612-2.612v-49.13a2.611 2.611 0 0 1 2.612-2.613h85.667a2.612 2.612 0 0 1 2.612 2.613v49.13a2.611 2.611 0 0 1-2.613 2.612z" fill="#EDEDED"/>
    <path d="M413.306 424.132h83.976v47.75h-83.976v-47.75z" fill="#FAFAFA"/>
    <path d="M515.413 469.019a6.008 6.008 0 0 0 1.579-.86c.475-.358.903-.797 1.122-1.288a1.33 1.33 0 0 0-.087-1.357c-.265-.393-.7-.724-1.176-1.003a10.446 10.446 0 0 0-1.553-.717c-.252-.092-.596-.215-.917-.361a10.553 10.553 0 0 1-.951-.477 10.95 10.95 0 0 1-3.267-2.868 12.28 12.28 0 0 1-2.038-4.043c-.424-1.499-.593-3.139-.29-4.885a9.223 9.223 0 0 1 .902-2.652 8.056 8.056 0 0 1 1.972-2.45 8.435 8.435 0 0 1 2.904-1.573 10.653 10.653 0 0 1 3.065-.472l1.047-.013a4.344 4.344 0 0 1 1.906.412 4.376 4.376 0 0 1 2.395 2.953 4.37 4.37 0 0 1-.833 3.71 4.349 4.349 0 0 1-3.426 1.648 4.36 4.36 0 0 1-1.9-.442c-.521-.253-.797-.389-1.13-.406-.335-.027-.856.272-1.234.928-.383.643-.623 1.541-.658 2.489-.04.993.125 1.984.484 2.911a7.765 7.765 0 0 0 2.277 3.182c.208.178.42.332.713.536.542.391 1.072.814 1.562 1.31.481.498.951 1.071 1.2 1.815.126.367.177.781.113 1.172a2.555 2.555 0 0 1-.426 1.035c-.416.582-.947.978-1.488 1.325-.544.334-1.11.633-1.693.895a.243.243 0 0 1-.202-.443l.018-.007.01-.004z" fill="#fff"/>
    <path d="M382.515 448.651c-.48.307-1.038.392-1.572.538a606.308 606.308 0 0 1-5.592 1.496c-.179.048-.172.087-.074.219 2.008 2.698 4.011 5.399 6.016 8.099.064.083.123.17.177.26.194.33.145.537-.179.736a3.95 3.95 0 0 1-.717.339 661.24 661.24 0 0 1-9.565 3.473c-2.118.757-4.242 1.502-6.365 2.246a8.036 8.036 0 0 1-1.251.333c-.472.083-.883-.035-1.228-.374-.363-.356-.62-.789-.875-1.222-1.738-2.949-3.369-5.959-5.041-8.946-.181-.321-.18-.321-.535-.229l-10.152 2.639c-.403.105-.811.141-1.221.052a1.896 1.896 0 0 1-1.382-1.111c-3.433-7.449-6.86-14.9-10.292-22.349a8.601 8.601 0 0 1-.413-1.11v-.377c.102-.437.418-.601.826-.632 1.152-.089 2.306-.167 3.458-.257 1.909-.15 3.818-.303 5.726-.461.168-.015.344.01.504-.073h1.214c.525.151.771.588 1.023 1.011 1.434 2.4 2.863 4.803 4.294 7.204 2.54 4.265 5.081 8.529 7.615 12.797.089.15.169.173.328.135 3.277-.79 6.555-1.575 9.834-2.361l4.998-1.195c.061-.014.119-.034.179-.051-.015-.098-.078-.157-.125-.224-1.596-2.28-3.191-4.56-4.788-6.839-.415-.591-.301-.908.416-1.043.788-.147 1.583-.255 2.373-.385 1.472-.242 2.942-.489 4.414-.731.233-.039.469-.071.703-.103.381-.052.695.092.976.335.469.405.814.917 1.199 1.394 1.618 2.004 3.205 4.03 4.848 6.014.074.089.139.19.245.25l.001.503zm-37.291 7.357c.084-.018.173-.032.262-.053.772-.186 1.543-.374 2.315-.561 2.261-.546 4.523-1.09 6.784-1.637.324-.078.369-.193.194-.469a6.454 6.454 0 0 1-.12-.197c-3.759-6.491-7.518-12.983-11.271-19.479-.114-.199-.246-.253-.456-.232-.43.044-.861.072-1.292.109l-3.085.269c-1.209.105-2.417.214-3.626.317-.312.026-.368.096-.264.389.023.066.055.128.086.19.171.343.347.684.515 1.029l9.679 19.912c.048.099.114.192.123.308.006.094.079.1.156.105zm18.349 7.803c.052-.014.127-.031.199-.055 3.717-1.266 7.435-2.533 11.151-3.801 1.252-.427 2.503-.86 3.753-1.291.222-.077.244-.132.131-.333a2.899 2.899 0 0 0-.172-.263c-1.223-1.68-2.448-3.359-3.669-5.041-.427-.587-.842-1.182-1.262-1.773-.118-.166-.24-.294-.483-.228-1.223.331-2.449.653-3.675.974-3.745.98-7.491 1.958-11.237 2.933-.155.04-.199.073-.103.236 1.489 2.537 2.969 5.079 4.454 7.619.165.282.319.572.537.821a.511.511 0 0 0 .376.202zm11.741-22.279c-.119.024-.255.055-.392.079l-5.182.934c-.549.099-.567.146-.239.591 1.428 1.945 2.858 3.887 4.284 5.834.081.11.147.146.291.109 1.491-.38 2.984-.752 4.477-1.123.446-.111.896-.205 1.342-.316.317-.079.341-.168.143-.417-.698-.879-1.395-1.759-2.091-2.64-.73-.925-1.459-1.852-2.188-2.778-.11-.139-.234-.259-.445-.273z" fill="#FFBE55"/>
    <path d="M705.64 588.539H96.772a9.35 9.35 0 0 1 0-18.699H705.64c5.164 0 9.35 4.186 9.35 9.349-.001 5.164-4.187 9.35-9.35 9.35z" fill="#D3D3D3"/>
    <path opacity=".29" d="M407.347 335.854a6.053 6.053 0 1 0-.002-12.106 6.053 6.053 0 0 0 .002 12.106z" fill="#FFBE55"/>
    <path d="M407.347 307.465c-12.336 0-22.336 10-22.336 22.336h44.672c0-12.336-9.999-22.336-22.336-22.336z" fill="#FFBE55"/>
    <path d="M406.402 273.963h1.89v33.502h-1.89v-33.502zM431.879 493.294a5.257 5.257 0 1 1 10.517 0" fill="#0B4870"/>
    <path d="M419.888 481.357s3.93.356 5.729.391c1.799.034 5.879 1.039 6.306.954.428-.082 10.757 5.232 11.672 5.068.914-.161.465 1.933-2.454.961-2.919-.971-7.335-1.725-8.132-.833-.797.893 1.91 2.827 1.703 3.828-.205 1.006-.462.599-.977.534-.516-.066-2.514-3.489-4.103-3.8-1.589-.31-3.207-2.152-4.415-2.405-1.208-.254-7.072-1.517-7.072-1.517l1.743-3.181zm-48.966-83.824s8.803-3.289 12.863 3.414c4.059 6.701 3.669 20.116-.77 21.767-4.437 1.649-11.104.786-13.375-3.407-2.272-4.193-4.324-10.254-4.224-14.306.098-4.052 3.194-6.299 5.506-7.468z" fill="#FAB9AF"/>
    <path d="M382.06 423.02s-.711 6.318-.105 7.492c.605 1.169-10.99 0-10.99 0s-1.047-9.11-2.895-14.494c-1.849-5.379 13.99 7.002 13.99 7.002z" fill="#FAB9AF"/>
    <path d="M368.07 416.018s.426 6.782 3.81 6.252c3.384-.53 7.914-10.447 9.327-10.94 1.413-.495 1.426-1.325 1.426-1.325l.885 1.292 1.5.095s-1.368-4.027.696-5.67c2.066-1.642-2.143-13.036-12.995-9.243 0 0-8.335 2.298-8.032 7.038.303 4.742 1.518 10.142 3.383 12.501z" fill="#0B4870"/>
    <path d="M383.33 431.921s-.039-2.235-1.052-2.452c-1.014-.213-11.194-1.192-12.439-.703v2.607s2.399 1.476 13.491.548z" fill="#E2D2CA"/>
    <path d="M397.187 517.301s1.385 9.884.801 11.636c-.584 1.753-5.843 9.934-5.843 9.934l-5.843 25.126h-7.012l-.585-29.217-2.921 28.048-5.843-.584-7.012-27.464s-12.366-.665-9.981-19.615c2.384-18.949 44.239 2.136 44.239 2.136z" fill="#0B4870"/>
    <path d="M352.896 515.464s5.398 1.59 14.605 2.605 32.21-.365 32.355-1.453c.146-1.089-4.948-40.504-4.657-42.533.289-2.029.445-9.262.445-9.262.113 1.982 2.132 10.077 4.57 14.489.879 1.593 3.456 5.181 5.257 5.453 10.047 1.518 20.472 2.278 21.15 2.103-.569-.247.63-6.218 0-6.428-.551-.185-7.597-1.168-12.855-2.337-1.933-.429-6.574-11.417-6.574-11.417-.87-1.958-4.039-14.287-5.023-18.554-2.221-9.624-1.88-10.024-1.88-10.024-6.734-2.037-16.958-6.185-16.958-6.185l-13.49-.548s-12.381 2.725-17.257 4.926c-.463.21-.464 11.046-1.733 13.887l4.042 8.529s2.335 16.893 2.819 24.407c.222 3.449-4.816 32.342-4.816 32.342z" fill="#2A94F4"/>
    <path d="M350.289 464.256c.352 1.136 1.952 2.096 2.99 2.517a3.875 3.875 0 0 0 2.161.217l.528-.097v-.001l9.245-1.716s2.023-23.296-12.629-28.877c-.388.128-5.53 17.526-2.295 27.957z" fill="#2A94F4"/>
    <path d="M368.415 398.323s-11.078 1.123-.197 17.941l.197-17.941zm16.718 168.011s2.337 0 2.922 1.169a5.823 5.823 0 0 1 .584 2.337h-9.933l.585-3.506h5.842zM377.536 489.203h48.499v4.675h-48.499v-4.675z" fill="#0B4870"/>
    <path d="M382.312 520.693h-14.714c-10.272 0-18.598-8.982-18.598-20.062l4.651-40.195c1.599-10.713 11.515-17.593 21.575-17.593 10.171 0 20.146 7.05 21.619 17.905l4.064 39.882c0 11.081-8.326 20.063-18.597 20.063z" fill="#FFBE55"/>
    <path d="M377.595 569.841h-5.094a2.107 2.107 0 0 1-2.103-2.103v-89.407a2.107 2.107 0 0 1 2.103-2.103h5.094a2.098 2.098 0 0 1 1.943 1.298c.106.256.16.529.16.805v89.406a2.103 2.103 0 0 1-2.103 2.104z" fill="#2A94F4"/>
    <path d="M379.083 481.203h-8.504a4.074 4.074 0 0 1-4.075-4.075v-1.799a4.073 4.073 0 0 1 4.075-4.076h8.504a4.077 4.077 0 0 1 4.076 4.076v1.799a4.079 4.079 0 0 1-4.076 4.075z" fill="#2A94F4"/>
    <path d="M395.927 540.625h-41.455a3.237 3.237 0 0 1-2.284-.946 3.223 3.223 0 0 1-.946-2.284v-5.811a3.23 3.23 0 0 1 3.23-3.23h41.455c.856 0 1.678.341 2.284.946.605.606.946 1.428.946 2.284v5.811a3.237 3.237 0 0 1-.946 2.284 3.223 3.223 0 0 1-2.284.946z" fill="#FFBE55"/>
    <path d="m384.884 563.998-.336 2.337h-4.674v-2.337h5.01z" fill="#FAB9AF"/>
    <path d="M607.528 565.847a3.826 3.826 0 0 1-3.827 3.827h-14.766a3.828 3.828 0 0 1-3.828-3.827v-34.454a3.828 3.828 0 0 1 3.828-3.828h14.766a3.826 3.826 0 0 1 3.827 3.828v34.454z" fill="#FFBE55"/>
    <path d="M598.088 487.905S586 512.476 603.81 516.661c17.81 4.184 18.324-14.35 16.499-21.988-1.825-7.639 26.437-28.174 3.128-46.341s-41.475 30.201-25.349 39.573z" fill="#CCE9FF"/>
    <path d="M575.58 501.244s-.569 16.169 10.044 14.115c10.612-2.055 6.403-12.169 3.571-15.845-2.831-3.675 7.432-21.583-9.529-25.734-16.96-4.152-15.046 26.314-4.086 27.464z" fill="#CCE9FF"/>
    <path d="m577.39 486.001 13.126 41.563m-5.469-33.099-2.78 6.979-6.335-3.49m36.392-35.469-11.259 65.079m17.864-55.235-9.327 5.892-5.985-8.079m12.761 15.835-9.329 5.891-5.984-8.079" stroke="#4D4D4D" stroke-miterlimit="10"/>
    <path d="M222.458 565.847a3.827 3.827 0 0 1-3.828 3.827h-14.766a3.828 3.828 0 0 1-3.828-3.827v-34.454a3.828 3.828 0 0 1 3.828-3.828h14.766a3.83 3.83 0 0 1 3.828 3.828v34.454z" fill="#FFBE55"/>
    <path d="M213.017 487.905s-12.088 24.571 5.722 28.756c17.81 4.184 18.324-14.35 16.499-21.988-1.825-7.639 26.436-28.174 3.127-46.341s-41.475 30.201-25.348 39.573z" fill="#CCE9FF"/>
    <path d="M190.509 501.244s-.569 16.169 10.043 14.115c10.612-2.055 6.404-12.169 3.572-15.845-2.833-3.676 7.431-21.583-9.529-25.734-16.96-4.151-15.046 26.314-4.086 27.464z" fill="#CCE9FF"/>
    <path d="m192.319 486.001 13.125 41.563m-5.469-33.099-2.779 6.979-6.335-3.49m36.392-35.469-11.26 65.079m17.866-55.235-9.329 5.892-5.984-8.079m12.76 15.835-9.328 5.891-5.985-8.079" stroke="#4D4D4D" stroke-miterlimit="10"/>
    <path d="M563.678 368.154c-.97-1.637-.43-3.776 1.203-4.782 38.893-23.939 54.679-77.371 54.834-77.909.534-1.851 2.446-2.937 4.268-2.428 1.813.512 2.87 2.424 2.333 4.275-.662 2.301-16.724 56.625-57.924 81.984a3.39 3.39 0 0 1-4.714-1.14z" fill="#E1ECF2"/>
    <path d="m636.327 277.82 3.586 14.064c.648 2.539-1.888 4.72-4.309 3.706l-25.919-10.854c-2.422-1.015-2.646-4.354-.38-5.673l12.518-7.286c-26.018-15.699-36.046-51.901-22.216-84.926 15.007-35.835 52.404-54.279 83.538-41.24 31.161 13.049 44.281 52.647 29.274 88.482-13.819 33.001-46.651 51.253-76.092 43.727z" fill="#F7C94B"/>
    <path d="M268.857 389.849a3.256 3.256 0 0 0-1.855-4.213c-39.887-15.488-62.806-62.152-63.032-62.62a3.258 3.258 0 0 0-4.347-1.517 3.261 3.261 0 0 0-1.514 4.346c.971 2.013 24.284 49.452 66.536 65.86a3.256 3.256 0 0 0 4.212-1.856z" fill="#E1ECF2"/>
    <path d="m184.84 311.956-2.975 14.565c-.538 2.63 2.161 4.743 4.585 3.591l25.956-12.333c2.426-1.152 2.491-4.581.11-5.824l-13.15-6.869c25.82-17.296 34.295-54.827 18.542-87.982-17.092-35.975-56.215-53.092-87.395-38.277-31.206 14.827-42.674 55.98-25.58 91.955 15.74 33.129 50.188 50.266 79.907 41.174z" fill="#BAD84E"/>
    <path d="M463.75 443.554h-19a.997.997 0 0 0-1 1v3a1.01 1.01 0 0 0 .293.707.998.998 0 0 0 .707.293h19a.997.997 0 0 0 1-1v-3a.997.997 0 0 0-1-1z" fill="#FFCC5C"/>
    <path d="M463.75 443.554h-2a.997.997 0 0 1 1 1v3a1.01 1.01 0 0 1-.293.707.998.998 0 0 1-.707.293h2a.997.997 0 0 0 1-1v-3a.997.997 0 0 0-1-1z" fill="#F7B546"/>
    <path d="M455.25 448.554h7.5v11a.997.997 0 0 1-1 1h-15a.997.997 0 0 1-1-1v-11h7.5" fill="#FFCC5C"/>
    <path d="M460.75 448.554h-15v2h11c1.061 0 2.078.421 2.828 1.172a3.995 3.995 0 0 1 1.172 2.828v6h1a.997.997 0 0 0 1-1v-11h-2z" fill="#F7B546"/>
    <path d="M451.75 438.554a2.51 2.51 0 0 0-2.31 1.543 2.517 2.517 0 0 0 0 1.914 2.51 2.51 0 0 0 1.353 1.353c.304.125.629.19.957.19h2.5v-2.5a2.5 2.5 0 0 0-2.5-2.5zm1.5 4h-1.5a1.495 1.495 0 0 1-1.386-.926 1.504 1.504 0 0 1 .325-1.635 1.507 1.507 0 0 1 1.635-.325 1.503 1.503 0 0 1 .926 1.386v1.5zm3.5-4a2.5 2.5 0 0 0-2.5 2.5v2.5h2.5a2.51 2.51 0 0 0 2.31-1.543 2.517 2.517 0 0 0 0-1.914 2.51 2.51 0 0 0-1.353-1.353 2.517 2.517 0 0 0-.957-.19zm0 4h-1.5v-1.5a1.495 1.495 0 0 1 .926-1.386 1.504 1.504 0 0 1 1.635.325 1.507 1.507 0 0 1 .325 1.635 1.503 1.503 0 0 1-1.386.926z" fill="#F04C4D"/>
    <path d="M456.75 442.554h.5a1.503 1.503 0 0 0 1.5-1.5 1.503 1.503 0 0 0-1.5-1.5c-.086 0-.168.011-.25.025a1.496 1.496 0 0 1-.25 2.975zm-5-3h-.5a1.503 1.503 0 0 0-1.5 1.5 1.503 1.503 0 0 0 1.5 1.5c.086 0 .168-.011.25-.025a1.496 1.496 0 0 1 .25-2.975z" fill="#E13340"/>
    <path d="M453.25 443.554h2v17h-2v-17z" fill="#F04C4D"/>
    <path d="m461.65 437.454 1.6-.4-1.6-.4-.4-1.6-.4 1.6-1.6.4 1.6.4.4 1.6.4-1.6zm1.8 2.8.8-.2-.8-.2-.2-.8-.2.8-.8.2.8.2.2.8.2-.8zm1-4 .8-.2-.8-.2-.2-.8-.2.8-.8.2.8.2.2.8.2-.8z" fill="#FFCC5C"/>
    <path d="M383.163 408.282c-.19-.796-2.212-3.067-2.985-.634-.775 2.432 1.17 5.705 2.254 5.424 1.084-.279 1.213-2.774.731-4.79z" fill="#EEA886"/>
    <path d="M616.098 342.202a3.376 3.376 0 0 0-1.802-4.424c-64.553-27.183-64.433-120.807-64.426-121.75a3.38 3.38 0 0 0-3.346-3.411c-1.853-.015-3.395 1.481-3.409 3.347-.039 4.034-.129 99.119 68.56 128.041a3.376 3.376 0 0 0 4.423-1.803z" fill="#E1ECF2"/>
    <path d="m555.485 210.209 12.316 14.05c1.836 2.096.489 5.389-2.29 5.596l-36.083 2.696c-2.78.208-4.601-2.851-3.094-5.196l10.085-15.688c-36.89-2.665-67.773-36.473-71.028-80.035-3.532-47.269 26.828-88.023 67.796-91.084 41.002-3.064 77.115 32.725 80.647 79.994 3.252 43.529-22.264 81.551-58.349 89.667z" fill="#E2887D"/>
</svg>
