<svg id="Isolation_Mode" data-name="Isolation Mode" xmlns="http://www.w3.org/2000/svg" viewBox="0 0 485.75 74.88"><defs><style>.cls-1{fill:#fff;}</style></defs><path class="cls-1" d="M606.66,106.3A16.47,16.47,0,0,0,590.2,89.84H544a19.82,19.82,0,0,0-19.81,19.8v34.9A19.82,19.82,0,0,0,544,164.34H590.2a16.47,16.47,0,0,0,16.46-16.46V133a18.91,18.91,0,0,0-6.07-13.89A16.45,16.45,0,0,0,606.66,106.3Zm-8.74,41.58a7.73,7.73,0,0,1-7.72,7.72H544A11.09,11.09,0,0,1,533,144.54V122.76h54.76A10.2,10.2,0,0,1,597.92,133ZM590.2,114H533v-4.38A11.08,11.08,0,0,1,544,98.58H590.2a7.72,7.72,0,0,1,0,15.44Z" transform="translate(-232.55 -89.84)"/><path class="cls-1" d="M269.81,155.6a28.51,28.51,0,1,1,0-57h40.8a4.37,4.37,0,1,0,0-8.74h-40.8a37.25,37.25,0,1,0,0,74.5h40.8A4.38,4.38,0,0,0,315,160V118.39a4.38,4.38,0,0,0-4.38-4.37H253.39a4.37,4.37,0,1,0,0,8.74h52.85V155.6Z" transform="translate(-232.55 -89.84)"/><path class="cls-1" d="M385.89,89.84h-27.2a37.3,37.3,0,0,0-37.25,37.25V160a4.38,4.38,0,0,0,8.75,0V127.09a28.11,28.11,0,0,1,.33-4.33H360.7l35.54,40a4.37,4.37,0,0,0,6.17.37,4.38,4.38,0,0,0,.36-6.18L372.4,122.76h27.11a4.37,4.37,0,0,0,4.37-4.37V107.82A18,18,0,0,0,385.89,89.84ZM395.13,114H333.36a28.55,28.55,0,0,1,25.33-15.44h27.2a9.25,9.25,0,0,1,9.24,9.24Z" transform="translate(-232.55 -89.84)"/><path class="cls-1" d="M418.43,89.84a4.37,4.37,0,0,0-4.37,4.37V160a4.37,4.37,0,0,0,8.74,0V94.21A4.37,4.37,0,0,0,418.43,89.84Z" transform="translate(-232.55 -89.84)"/><path class="cls-1" d="M512.26,90.61A4.37,4.37,0,0,0,507.89,95v55.3L441.47,91.7A4.37,4.37,0,0,0,434.2,95v65a4.38,4.38,0,0,0,8.75,0V104.66l66.42,58.59a4.37,4.37,0,0,0,7.26-3.28V95A4.36,4.36,0,0,0,512.26,90.61Z" transform="translate(-232.55 -89.84)"/><path class="cls-1" d="M713.93,90.22H640.24a4.38,4.38,0,0,0,0,8.75h32.65v61.38a4.38,4.38,0,0,0,8.75,0V99h32.29a4.38,4.38,0,0,0,0-8.75Z" transform="translate(-232.55 -89.84)"/><path class="cls-1" d="M620.66,90.22a4.37,4.37,0,0,0-4.37,4.37v65.76a4.38,4.38,0,0,0,8.75,0V94.59A4.38,4.38,0,0,0,620.66,90.22Z" transform="translate(-232.55 -89.84)"/></svg>