<svg width="738" height="638" viewBox="0 0 738 638" fill="none" xmlns="http://www.w3.org/2000/svg">
<path d="M145.169 500.62C146.417 503.705 147.797 506.79 149.309 509.743C171.784 553.786 217.391 581.551 266.022 586.54C304.926 590.478 342.779 577.81 375.309 557.134C407.773 536.524 433.797 507.512 469.875 492.415C520.74 471.214 577.454 454.476 617.344 409.58C662.689 358.58 680.169 281.258 658.811 216.014C638.045 152.345 569.108 131.735 515.549 103.708C419.273 53.2322 285.934 19.6913 185.716 78.9623C65.6512 149.917 87.4692 310.992 125.519 422.773C134.194 448.241 135.245 475.677 145.169 500.62Z" fill="#D2D9FD"/>
<path d="M199.582 383.653C202.211 387.723 204.116 391.267 203.919 396.256C203.788 400.916 203.065 405.511 202.671 410.105C202.605 411.09 202.539 412.009 202.474 412.928C201.159 411.812 199.911 410.696 198.596 409.58C198.005 409.515 197.413 409.515 196.756 409.515C198.596 411.024 200.502 412.665 202.342 414.306C202.145 417.522 202.079 420.739 202.079 423.955C202.079 425.858 202.014 427.893 202.145 429.797C200.436 428.747 198.662 427.696 197.019 426.646C191.893 423.495 187.096 420.542 183.416 418.966C180.59 417.785 177.435 416.735 174.412 415.75C166.526 413.19 158.443 410.565 155.749 404.986C154.369 402.098 154.5 398.619 156.143 394.418C160.283 383.588 156.406 381.75 149.9 378.599C145.168 376.302 138.728 373.217 132.288 365.406C129.462 361.993 126.965 359.039 124.731 356.479C118.093 348.668 114.413 344.402 114.873 341.908C115.004 341.317 115.333 340.792 115.99 340.267C116.319 340.004 116.713 339.742 117.239 339.479C119.736 338.101 122.233 339.151 125.059 340.332C128.871 341.908 133.537 343.942 140.043 340.595C145.168 337.969 150.886 335.541 154.303 337.51C156.669 338.823 158.049 342.236 158.509 347.815C158.64 349.587 159.232 350.834 160.218 351.556C161.663 352.607 163.898 352.475 166.461 351.95C168.235 354.379 170.535 355.56 173.295 356.545C177.173 357.923 180.064 359.17 182.89 362.321C188.936 369.147 194.785 376.105 199.582 383.653Z" fill="#2A94F4"/>
<path d="M178.618 394.484C174.675 391.858 171.258 385.491 167.972 379.321C163.503 370.92 158.838 362.255 152.463 362.452C142.211 362.715 133.077 350.637 132.945 350.572L132.091 351.228C132.485 351.753 141.685 363.831 152.463 363.568C158.18 363.437 162.715 371.773 166.986 379.912C170.338 386.148 173.821 392.646 177.961 395.468C180.458 397.109 185.059 400.457 190.513 404.723V403.345C185.716 399.341 181.444 396.321 178.618 394.484Z" fill="white"/>
<path d="M524.946 475.809C524.946 475.809 530.861 461.106 520.083 440.233C509.24 419.36 500.499 422.577 526.589 406.495C552.679 390.414 526.72 339.873 548.933 333.44C571.145 327.008 590.4 245.157 607.289 255.594C624.178 266.03 601.638 306.135 613.73 318.212C625.756 330.29 627.399 345.583 602.492 357.989C577.585 370.395 620.17 417.785 586.391 432.225C552.613 446.666 562.339 503.311 524.946 475.809Z" fill="#FFBE55"/>
<path d="M535.264 491.365C535.198 491.168 531.584 472.396 543.084 448.11C554.782 423.364 560.368 396.321 558.068 375.711C556.819 364.553 563.982 360.221 570.882 356.02C577.717 351.885 584.749 347.552 584.354 336.591C584.026 326.68 588.232 303.444 588.363 302.459L589.875 302.722C589.809 302.984 585.537 326.811 585.866 336.525C586.26 348.406 578.834 352.935 571.671 357.267C564.836 361.402 558.462 365.34 559.579 375.514C561.945 396.321 556.293 423.692 544.464 448.7C533.227 472.527 536.71 490.84 536.775 491.037L535.264 491.365Z" fill="white"/>
<path d="M624.967 369.41C634.365 364.947 644.354 366.981 639.162 376.368C633.97 385.754 626.216 386.476 627.662 393.893C629.107 401.31 632.919 409.383 620.696 414.109C608.472 418.77 602.755 417.982 595.329 431.7C587.837 445.419 585.274 455.592 572.459 452.311C559.645 448.963 570.291 432.094 576.928 425.005C576.928 425.005 585.931 417.391 585.8 403.673C585.669 389.955 580.017 380.765 597.76 381.684C615.504 382.472 618.593 372.429 624.967 369.41Z" fill="#0E538C"/>
<path d="M570.422 461.894C570.948 460.121 583.303 417.654 593.423 413.059C603.741 408.333 609.326 395.993 611.758 389.101C614.912 380.109 628.384 378.336 628.91 378.271L629.107 379.781C628.976 379.781 616.03 381.487 613.204 389.561C610.181 398.29 604.398 409.711 594.08 414.437C584.617 418.769 572.065 461.894 571.934 462.353L570.422 461.894ZM244.927 427.696C224.686 422.642 224.423 411.746 224.16 401.244C223.963 392.646 223.766 384.506 212.791 379.518C198.268 372.889 197.939 360.614 197.611 349.784C197.348 341.711 197.15 334.097 191.105 329.961C176.581 320.05 164.292 296.027 164.161 295.764L165.278 295.173C165.409 295.436 177.501 319.131 191.827 328.911C198.399 333.375 198.662 341.317 198.859 349.718C199.188 360.68 199.516 372.101 213.317 378.337C224.949 383.653 225.212 392.58 225.409 401.178C225.672 411.681 225.934 421.658 245.255 426.449L244.927 427.696Z" fill="white"/>
<path d="M217.654 417.982H550.116V178.272C550.116 174.859 547.356 172.037 543.873 172.037H223.897C220.48 172.037 217.654 174.793 217.654 178.272V417.982Z" fill="#F7F7F7"/>
<path d="M537.741 373.292L229.398 373.292V184.058L537.741 184.058V373.292Z" fill="#0B4870" stroke="white" stroke-width="0.5" stroke-miterlimit="10"/>
<path d="M550.116 382.472H217.786L181.378 518.276H586.457L550.116 382.472Z" fill="#F2F2F2"/>
<path d="M230.337 406.298H250.775C251.63 406.298 252.287 406.955 252.09 407.677L250.118 416.538C249.987 417.063 249.461 417.457 248.804 417.457H228.037C227.183 417.457 226.526 416.8 226.723 416.013L229.023 407.152C229.155 406.692 229.68 406.298 230.337 406.298ZM260.107 406.298H275.551L273.513 417.522H257.741L260.107 406.298ZM283.24 406.298H298.683L297.106 417.522H281.334L283.24 406.298ZM306.438 406.298H321.881L320.698 417.522H304.926L306.438 406.298ZM329.57 406.298H345.013L344.29 417.522H328.518L329.57 406.298ZM352.702 406.298H368.146L367.883 417.522H352.111L352.702 406.298ZM538.024 406.298H514.826L517.323 417.522H540.915L538.024 406.298ZM507.137 406.298H491.693L493.73 417.522H509.503L507.137 406.298ZM484.004 406.298H468.561L470.138 417.522H485.91L484.004 406.298ZM460.806 406.298H445.363L446.546 417.522H462.318L460.806 406.298ZM437.674 406.298H422.231L422.953 417.522H438.726L437.674 406.298ZM414.542 406.298H399.098L399.361 417.522H415.133L414.542 406.298ZM375.9 406.298H391.344L391.541 417.522H375.9V406.298ZM223.569 425.858H255.77L253.93 437.411H221.071L223.569 425.858ZM543.018 425.858H503.194L505.428 437.411H546.107L543.018 425.858ZM495.176 425.858H479.273L481.047 437.411H497.345L495.176 425.858ZM471.255 425.858H455.352L456.666 437.411H472.964L471.255 425.858ZM447.334 425.858H431.431L432.351 437.411H448.583L447.334 425.858ZM423.413 425.858H407.51L407.97 437.411H424.202L423.413 425.858ZM218.706 446.403H251.695L249.264 457.89H215.683L218.706 446.403ZM259.91 446.403H276.405L274.499 457.89H257.676L259.91 446.403ZM284.685 446.403H408.299L408.759 457.89H282.845L284.685 446.403ZM416.579 446.403H433.074L433.994 457.89H417.17L416.579 446.403ZM441.288 446.403H457.783L459.163 457.89H442.34L441.288 446.403ZM466.064 446.403H482.559L484.333 457.89H467.575L466.064 446.403ZM490.773 446.403H507.268L509.503 457.89H492.745L490.773 446.403ZM515.483 446.403H548.473L551.496 457.89H517.914L515.483 446.403ZM399.558 425.858H383.721V437.411H399.821L399.558 425.858ZM375.637 425.858H359.668L359.208 437.411H375.506L375.637 425.858ZM351.716 425.858H335.747L334.827 437.411H351.125L351.716 425.858ZM327.796 425.858H311.826L310.446 437.411H326.744L327.796 425.858ZM303.875 425.858H287.905L286.065 437.411H302.363L303.875 425.858ZM279.954 425.858H263.984L261.75 437.411H277.982L279.954 425.858ZM231.06 399.275L233.689 389.298H241.181L238.749 399.275H231.06ZM248.672 389.298H263.656L261.619 399.275H246.307L248.672 389.298ZM271.213 389.298H286.197L284.488 399.275H269.242L271.213 389.298ZM293.688 389.298H308.672L307.358 399.275H292.111L293.688 389.298ZM316.164 389.298H331.147L330.227 399.275H314.981L316.164 389.298ZM338.639 389.298H353.622L353.096 399.275H337.85L338.639 389.298ZM361.114 389.298H376.097L375.966 399.275H360.72L361.114 389.298ZM383.589 389.298H398.573L398.835 399.275H383.589V389.298ZM406.064 389.298H421.048L421.705 399.275H406.459L406.064 389.298ZM428.539 389.298H443.589L444.574 399.275H429.328L428.539 389.298ZM451.08 389.298H466.064L467.51 399.275H452.263L451.08 389.298ZM473.555 389.298H488.539L490.379 399.275H475.133L473.555 389.298ZM496.031 389.298H511.014L513.248 399.275H498.002L496.031 389.298ZM518.506 389.298H533.489L536.118 399.275H520.872L518.506 389.298Z" fill="#0B4870" stroke="white" stroke-width="0.5" stroke-miterlimit="10"/>
<path d="M575.877 528.844H191.959C186.11 528.844 181.378 524.118 181.378 518.276H586.457C586.457 524.118 581.725 528.844 575.877 528.844ZM431.037 474.365C430.642 472.002 428.539 470.229 426.174 470.229H341.727C339.296 470.229 337.259 472.002 336.864 474.365L331.607 506.199C331.081 509.218 333.447 511.975 336.47 511.975H431.365C434.454 511.975 436.754 509.218 436.228 506.199L431.037 474.365Z" fill="#D3D3D3"/>
<path d="M459.427 239.972C459.427 239.972 465.21 249.752 467.641 251.327C470.927 253.493 468.89 255.659 467.313 255.725C465.735 255.725 457.718 256.316 455.944 254.281C454.169 252.246 453.315 246.273 451.672 244.698C450.029 243.122 448.32 236.887 452.461 235.377C456.075 233.999 459.427 239.972 459.427 239.972Z" fill="#FFB750"/>
<path d="M456.864 235.705C456.864 235.705 463.501 247.192 464.618 248.833C465.736 250.54 462.45 250.54 460.412 249.752C458.375 248.964 453.249 240.76 452.526 239.25C451.672 237.478 452.395 235.443 452.395 235.443L456.864 235.705Z" fill="#FFE3CA"/>
<path d="M450.16 241.81L451.737 253.559L452.526 253.625L452.263 245.157L450.16 241.81ZM402.056 239.972C402.056 239.972 407.839 249.752 410.27 251.327C413.556 253.493 411.519 255.659 409.942 255.725C408.364 255.725 400.347 256.316 398.573 254.281C396.798 252.246 395.944 246.273 394.301 244.698C392.658 243.123 390.884 236.69 395.09 235.377C398.77 234.196 402.056 239.972 402.056 239.972Z" fill="#FFB750"/>
<path d="M399.887 235.705C399.887 235.705 406.13 247.126 407.313 248.833C408.43 250.54 405.144 250.54 403.107 249.752C401.07 248.964 395.944 240.76 395.221 239.25C394.367 237.478 395.09 235.443 395.09 235.443L399.887 235.705Z" fill="#FFE3CA"/>
<path d="M392.855 241.81L394.367 253.559L395.221 253.625L394.958 245.157L392.855 241.81Z" fill="#FFB750"/>
<path d="M376.426 150.901L428.737 174.728C428.737 174.728 434.586 176.631 435.243 183.13C437.28 203.346 452.395 235.377 452.395 235.377C457.258 237.74 456.864 235.706 456.864 235.706C453.775 225.86 450.095 185.427 448.715 169.214C448.452 165.801 448.255 163.438 448.189 162.651C448.189 162.125 447.598 161.469 446.612 160.681C439.449 154.84 409.876 142.828 409.876 142.828C387.861 142.237 376.426 150.901 376.426 150.901Z" fill="#FFE3CA"/>
<path d="M366.569 161.141C368.212 175.253 388.387 173.678 388.387 173.678H412.833C412.833 173.678 406.393 187.987 403.896 199.998C401.267 212.798 395.024 235.377 395.024 235.377C395.024 235.377 395.418 236.165 399.887 235.705C399.887 235.705 419.077 197.504 426.437 187.855C428.014 185.821 432.548 174.531 433.337 167.836C433.6 165.604 433.468 163.832 432.614 163.11C431.76 162.388 429.788 161.075 427.225 159.434C419.537 154.577 406.262 147.16 398.836 145.519C388.913 143.287 373.206 139.086 373.206 139.086C373.206 139.086 364.926 147.029 366.569 161.141Z" fill="#FFE3CA"/>
<path d="M383.195 52.3133C383.195 52.3133 379.515 45.3557 381.289 38.0042C383.064 30.5872 389.964 23.2357 400.018 26.6489C410.073 30.0621 418.222 37.8073 412.176 46.8654C406.13 55.8577 417.631 59.9929 414.673 64.2594C411.716 68.5258 412.833 73.0549 414.082 74.0394C415.33 75.024 419.339 78.5684 418.879 82.8349C418.419 87.0357 399.361 70.5606 399.361 70.5606C399.361 70.5606 389.044 49.6221 383.195 52.3133Z" fill="#0E538C"/>
<path d="M413.884 141.056C413.884 141.056 412.373 148.407 373.271 139.152C373.271 139.152 386.349 134.82 413.884 141.056Z" fill="#EB4747"/>
<path d="M372.812 141.187C372.22 142.368 371.629 143.484 370.972 144.666C385.232 145.06 399.558 145.519 413.819 145.913C411.585 138.365 412.307 128.125 412.702 120.38C413.162 110.862 418.419 104.298 417.893 94.7153C420.719 95.1748 421.179 95.2404 424.005 95.6999C419.668 83.36 418.222 77.2556 404.75 72.5297C400.347 70.9544 397.521 70.6919 392.79 71.0857C377.215 72.3984 372.549 72.5297 364.86 86.6419C376.82 88.5454 374.849 92.8118 378.463 104.758C380.238 110.534 382.078 117.032 381.158 123.137C380.238 129.11 372.812 135.739 372.812 141.187Z" fill="white"/>
<path d="M397.653 75.4835C391.278 74.302 392.658 70.7576 392.658 70.7576C392.658 70.7576 392.921 68.7884 393.053 66.2285C393.053 65.5722 393.118 64.9158 393.118 64.1938C393.118 63.1436 393.053 62.0934 392.921 61.0432C392.395 56.7767 404.487 59.3366 404.487 59.3366C404.487 59.3366 403.764 68.0008 405.473 70.5606C407.116 73.1862 404.027 76.7306 397.653 75.4835Z" fill="#FFE3CA"/>
<path d="M385.495 70.7576C385.495 70.7576 398.376 85.5917 403.107 89.0049C403.107 89.0049 408.562 84.0821 405.21 71.0858C405.21 71.0858 399.033 67.9351 385.495 70.7576ZM385.889 35.0506C385.889 35.0506 379.186 47.9156 385.824 60.0586C392.461 72.2016 405.473 54.7419 406.262 52.7072C407.116 50.6724 411.585 39.0545 402.713 35.5757C393.841 32.0312 387.795 31.5718 385.889 35.0506Z" fill="#FFE3CA"/>
<path d="M398.77 61.3713C398.77 61.3713 397.587 63.9312 393.052 66.2285C393.052 65.5722 393.118 64.9158 393.118 64.1938C393.118 64.1938 396.207 63.8656 398.77 61.3713Z" fill="#FCD2B1"/>
<path d="M331.278 129.635C331.278 129.635 328.124 131.013 326.613 130.422C325.101 129.766 322.801 129.635 322.078 129.635C321.092 129.635 318.004 128.519 318.069 129.766C318.135 130.948 323.064 131.801 324.05 132.195C325.035 132.588 321.027 134.755 320.632 135.739C320.238 136.724 324.838 143.156 327.401 141.318C329.964 139.48 331.344 135.805 331.87 135.542C332.396 135.28 333.776 134.295 333.776 134.295L331.278 129.635Z" fill="#FFE3CA"/>
<path d="M321.158 135.148C321.158 135.148 313.732 141.318 313.601 142.171C313.469 143.025 313.864 143.419 314.586 142.828C315.309 142.303 321.947 137.052 321.947 137.052C321.947 137.052 314.521 145.847 314.258 146.504C314.126 146.897 314.849 147.685 315.244 147.422C315.638 147.16 323.59 138.89 323.59 138.89C323.59 138.89 316.624 147.094 316.624 147.751C316.558 148.276 317.412 148.867 318.004 148.276C318.595 147.685 325.495 140.465 325.495 140.465C325.495 140.465 320.83 146.766 321.158 147.357C321.355 147.685 321.947 148.407 323.064 146.766C324.181 145.125 327.336 141.449 327.336 141.449L321.158 135.148Z" fill="#FFE3CA"/>
<path d="M410.27 173.612H388.387C388.387 173.612 368.212 175.253 366.569 161.075C364.926 146.963 373.206 139.086 373.206 139.086C373.206 139.086 383.852 141.909 393.184 144.141C397.85 143.156 403.436 142.5 410.008 142.697C410.008 142.697 449.438 155.693 448.255 162.585C448.255 162.65 431.76 153.855 410.27 173.612Z" fill="#0E538C"/>
<path d="M396.01 149.195L437.806 148.538L416.711 159.237L396.01 149.195Z" fill="#F2F2F2"/>
<path d="M409.022 143.813C409.022 143.813 399.624 147.423 388.124 144.141L387.598 139.874L411.322 141.187L409.022 143.813Z" fill="white"/>
<path d="M416.711 159.237L396.01 151.23V149.195L418.353 157.203L416.711 159.237Z" fill="#D3D3D3"/>
<path d="M408.825 145.847C408.693 147.357 410.27 148.473 411.716 147.882L414.148 146.832C414.871 146.504 415.331 145.782 415.199 144.994C414.213 138.693 412.045 114.144 415.199 109.878C416.382 108.302 417.105 106.924 417.499 105.743C419.602 111.125 422.165 118.082 423.217 121.824L442.932 148.079L449.569 149.786C441.289 129.897 434.651 119.395 434.651 119.395C433.337 115.916 429.657 105.414 426.371 96.0938C424.268 90.1864 422.428 84.7384 421.377 81.8503C420.851 80.3407 419.865 79.0936 418.485 78.3059C415.396 76.468 410.336 73.58 405.736 71.3483H405.67C405.539 71.2827 405.407 71.217 405.21 71.1514C414.016 84.3446 410.599 121.824 408.825 145.847C408.825 145.782 408.825 145.782 408.825 145.847ZM376.229 72.2016C373.403 72.661 366.437 79.4217 362.757 86.2481C358.551 94.059 354.214 102.92 350.994 105.808C345.079 111.19 328.453 130.16 327.664 129.7C327.336 129.503 332.199 135.345 332.856 135.608C333.185 135.739 360.128 112.372 362.757 108.828C365.189 105.48 371.76 91.3022 373.732 91.6304C373.863 91.9586 376.295 97.144 378.529 104.692C378.595 104.824 378.595 104.955 378.661 105.086C380.238 110.337 380.106 116.113 379.252 122.546C378.595 127.403 374.98 135.345 372.812 139.218C372.549 139.677 372.615 140.596 372.878 141.253C373.075 141.646 373.272 141.975 373.6 142.106L381.552 145.06L383.392 145.716C384.707 146.241 386.152 145.979 387.204 145.191C388.058 144.6 388.715 143.616 388.847 142.434C390.621 128.913 392.855 115.063 394.63 109.878C402.45 87.0357 391.607 69.8386 391.607 69.8386C391.607 69.8386 378.726 71.2827 376.229 72.2016Z" fill="#FFBE55"/>
<path d="M416.71 159.237L429.131 125.368L469.153 126.025L457.323 157.268L416.71 159.237Z" fill="#FFBE55"/>
<path d="M441.946 140.334C440.697 142.762 441.091 145.453 442.8 146.241C444.509 147.094 446.809 145.782 448.057 143.353C449.306 140.924 448.912 138.233 447.203 137.446C445.494 136.592 443.129 137.905 441.946 140.334Z" fill="#F2F0F0"/>
<path d="M417.631 76.3368C414.673 71.8734 412.57 68.3289 412.308 61.9621C412.11 57.7612 411.19 52.0507 408.299 49.2283C411.322 41.3518 407.773 38.9888 406.327 36.4289C404.553 33.2127 391.41 25.4674 386.218 33.6065C381.026 41.68 382.866 50.1472 382.866 50.1472C383.392 45.6839 387.992 39.6452 387.992 39.6452C388.715 44.3055 398.376 51.9195 402.581 55.0044C402.516 55.0701 402.45 55.2014 402.45 55.267C400.084 58.6802 403.041 62.0933 403.567 65.7034C404.093 69.3135 393.644 79.0279 405.276 83.8851C416.908 88.8079 420.588 80.7345 417.631 76.3368ZM206.088 458.677C206.088 458.677 205.825 461.434 192.945 461.434C180.064 461.434 161.335 458.087 161.335 458.087L191.236 455.198C191.236 455.198 202.737 454.608 206.088 458.677Z" fill="#0E538C"/>
<path d="M173.296 459.662C166.001 459.662 162.912 463.403 160.021 464.585C157.129 465.766 154.238 467.538 154.238 467.473C155.881 464.257 158.181 464.191 159.364 463.141C160.547 462.091 160.218 462.616 157.655 462.419C156.209 462.287 153.581 464.979 151.74 466.488C150.098 467.735 149.112 467.867 149.112 467.867C149.112 467.867 151.018 465.176 153.383 463.009C156.275 460.384 159.889 458.218 160.744 457.824C162.321 457.168 167.184 457.036 170.601 457.496C174.544 458.021 178.553 459.662 173.296 459.662Z" fill="#0E538C"/>
<path d="M161.203 457.955C161.203 457.955 155.617 459.399 154.632 460.187C153.975 460.712 151.083 463.797 151.083 463.797C151.083 463.797 153.186 463.469 154.369 462.287C155.617 461.04 161.203 457.955 161.203 457.955ZM195.508 453.032C195.508 453.032 209.571 453.951 208.585 462.616C208.059 467.538 204.839 469.245 200.568 468.851C192.682 468.195 183.744 467.013 183.744 467.013L179.736 453.558L195.508 453.032Z" fill="#0E538C"/>
<path d="M198.465 454.214L212.266 409.777C212.266 409.777 214.303 403.279 217.654 404.46C222.452 406.233 220.086 411.549 219.692 414.7C218.837 421.132 219.429 423.955 214.96 439.445C212.2 449.029 209.834 460.056 207.468 466.357C205.825 470.689 203 464.453 198.728 462.747C190.711 459.531 198.465 454.214 198.465 454.214ZM199.517 385.622C202.211 393.368 210.557 397.372 218.246 394.549C225.869 391.727 229.943 383.128 227.249 375.383C224.555 367.638 216.209 363.634 208.52 366.456C200.897 369.279 196.822 377.877 199.517 385.622Z" fill="#0E538C"/>
<path d="M184.401 386.344C188.607 392.646 197.019 394.221 203.131 389.889L202.276 382.472C208.388 378.074 209.9 369.41 205.694 363.109L202.802 358.842C198.596 352.541 190.184 350.966 184.073 355.298L181.313 357.267C175.201 361.664 173.69 370.329 177.895 376.63L184.401 386.344Z" fill="#0E538C"/>
<path d="M178.881 365.668C179.604 366.719 180.393 367.703 181.313 368.688C187.359 375.252 195.442 377.746 200.568 375.055C202.934 378.271 205.628 380.831 208.06 382.8C210.885 385.097 218.114 386.016 218.114 386.016C222.32 390.611 206.548 417.457 205.431 417.325C203.131 417.129 200.174 402.294 202.342 396.912C203.328 394.484 204.905 391.595 204.445 390.283C202.802 385.754 200.502 386.541 200.502 386.541C200.502 386.541 197.479 390.086 195.113 389.954C192.682 389.758 188.476 385.951 188.279 385.885C187.556 385.294 186.899 384.572 186.307 383.719L179.999 374.267C178.356 371.642 177.961 368.491 178.881 365.668Z" fill="#FFE3CA"/>
<path d="M227.117 478.762C227.117 478.762 221.991 484.932 220.414 485.589C218.311 486.508 211.871 484.539 211.871 484.539C211.871 484.539 210.162 456.249 208.191 445.221C206.219 434.194 203.328 431.306 203.196 427.827C202.999 422.248 198.333 420.017 199.122 415.684C199.911 411.352 201.291 395.862 201.751 397.897C205.759 415.488 210.688 400.85 211.805 398.553C212.397 397.306 227.117 478.762 227.117 478.762Z" fill="#F2F0F0"/>
<path d="M203.788 392.646C203.788 392.646 197.545 399.472 198.005 402.163C198.399 404.854 195.31 413.256 198.399 424.94C201.882 438.264 203.722 447.322 204.379 456.052C205.036 464.782 202.079 472.79 203.262 483.488C204.182 491.89 206.088 492.35 206.088 492.35C206.088 492.35 209.834 493.269 212.462 489.987C215.091 486.77 211.148 458.152 209.834 451.063C208.519 443.909 204.314 427.237 203.196 422.314C201.816 416.275 202.079 410.105 202.145 408.333C202.474 402.098 203.262 398.225 203.919 395.862C203.985 395.534 204.314 391.858 203.788 392.646ZM214.697 400.654C218.114 410.499 228.76 415.553 238.486 411.943C248.212 408.333 253.338 397.437 249.921 387.592C246.504 377.746 235.858 372.692 226.132 376.302C216.405 379.846 211.28 390.808 214.697 400.654Z" fill="#0E538C"/>
<path d="M181.247 569.868L184.73 597.632L169.615 604.787L161.269 606.625L176.121 595.138L171.258 570.065L181.247 569.868Z" fill="#FCBAA2"/>
<path d="M185.716 601.833L182.43 602.687L180.195 600.652L168.104 606.691L157.392 609.251C157.392 609.251 157.26 608.397 157.589 607.938C158.903 606.166 166.461 602.293 166.461 602.293C166.461 602.293 166.592 604.853 167.644 604.918C168.695 604.984 177.961 600.127 180.13 598.814C183.81 596.517 184.533 595.007 184.796 595.204C185.584 595.598 185.716 601.833 185.716 601.833Z" fill="#0E538C"/>
<path d="M144.774 531.273L132.748 554.902L116.188 554.115L107.907 551.686L126.242 548.601L136.231 528.385L144.774 531.273Z" fill="#FCBAA2"/>
<path d="M131.763 559.103L128.477 558.315L127.425 555.427L112.508 555.231L103.636 553.13C103.636 553.13 104.687 551.949 105.344 551.62C107.316 550.767 114.348 550.373 114.348 550.373C114.348 550.373 113.625 552.408 114.545 552.933C115.465 553.524 125.717 553.852 128.214 553.655C132.551 553.327 133.8 552.408 133.931 552.671C134.391 553.59 131.763 559.103 131.763 559.103Z" fill="#0E538C"/>
<path d="M232.506 460.581L223.569 464.585L223.635 476.859L162.058 466.816C162.058 466.816 156.209 464.913 152.463 474.562C147.14 488.214 133.603 530.682 133.603 530.682L142.146 539.937L169.024 491.956C169.024 491.956 224.095 518.67 242.232 512.894C249.198 510.663 254.521 497.929 253.536 485.064C252.747 474.955 250.776 465.701 250.776 465.701L232.506 460.581Z" fill="#FFB750"/>
<path d="M224.686 512.632L180.59 509.35L184.402 579.714L171.39 580.173L161.795 497.732C161.795 497.732 164.358 485.458 172.77 487.295C181.247 489.199 201.619 505.346 224.686 512.632Z" fill="#FFB750"/>
<path d="M254.39 530.288C254.39 530.288 231.258 504.361 225.277 489.724C218.114 472.199 218.706 450.21 217.391 442.924C214.96 429.534 212.003 403.542 211.477 400.325C210.885 397.109 212.923 393.499 212.923 393.499C212.923 393.499 211.411 383.785 215.748 384.835C221.992 386.344 228.169 389.758 230.338 390.808C234.412 392.646 242.758 441.612 243.218 443.975C244.927 452.507 251.17 460.253 255.639 468.195C266.153 487.033 268.848 509.284 268.848 509.284C268.848 509.284 267.533 525.562 254.39 530.288Z" fill="#2A94F4"/>
<path d="M230.535 462.484C230.535 462.484 230.338 465.635 215.617 464.913C200.896 464.125 179.341 459.202 179.341 459.202L213.448 457.627C213.448 457.627 226.526 457.693 230.535 462.484Z" fill="#FFE3CA"/>
<path d="M190.908 460.909C183.876 460.778 180.853 464.388 178.093 465.504C175.333 466.62 172.507 468.261 172.507 468.261C174.084 465.176 176.318 465.11 177.501 464.125C178.619 463.141 178.356 463.666 175.858 463.403C174.413 463.272 171.915 465.832 170.141 467.276C168.564 468.523 167.578 468.589 167.578 468.589C167.578 468.589 169.418 465.963 171.718 463.863C174.544 461.369 177.961 459.268 178.816 458.94C180.327 458.349 184.993 458.284 188.345 458.809C192.091 459.334 195.968 461.04 190.908 460.909Z" fill="#FFE3CA"/>
<path d="M179.144 459.005C179.144 459.005 173.755 460.318 172.835 461.04C172.178 461.565 169.418 464.519 169.418 464.519C169.418 464.519 171.389 464.191 172.572 463.075C173.755 462.025 179.144 459.005 179.144 459.005Z" fill="#FFE3CA"/>
<path d="M218.771 459.005L240.589 447.519C240.589 447.519 240.655 461.434 240.787 466.751C240.918 472.067 243.152 479.55 238.947 480.666C234.741 481.782 232.572 481.191 236.909 483.751C241.247 486.245 240.261 488.871 238.618 491.037C236.975 493.203 244.138 515.257 242.43 516.504C235.661 507.971 228.366 497.404 225.212 489.724C221.203 479.747 219.626 468.326 218.771 459.005Z" fill="#0E538C"/>
<path d="M225.803 453.426L224.949 409.055C224.949 409.055 225.015 395.205 225.278 391.136C225.54 386.935 232.704 391.858 232.704 391.858C232.704 391.858 242.758 405.445 242.955 438.198C243.087 460.121 241.904 471.542 231.784 470.623C222.386 469.77 211.674 468.326 211.674 468.326L207.008 456.183L225.803 453.426Z" fill="#2A94F4"/>
<path d="M223.569 476.859L148.455 467.473L148.652 465.897L223.766 475.284L223.569 476.859Z" fill="#D3D3D3"/>
<path d="M190.645 471.083C190.513 472.33 189.527 473.249 188.476 473.118L149.966 468.326C148.914 468.195 147.6 467.21 146.68 463.928L131.828 425.53C132.025 423.955 133.274 423.167 134.325 423.561L173.69 429.731C174.741 430.125 175.464 431.044 175.858 432.75L190.645 471.083Z" fill="#D3D3D3"/>
<path d="M185.782 472.133L186.176 472.199L223.766 476.924C222.32 477.515 220.02 477.712 217.457 477.384L185.979 473.446L185.584 473.38L154.106 469.442C151.543 469.114 149.374 468.326 148.06 467.473L185.782 472.133Z" fill="#D3D3D3"/>
<path d="M225.803 453.426L224.949 409.055C224.949 409.055 225.606 405.314 226.92 401.966C227.249 406.824 229.483 441.808 229.746 446.403C230.075 451.392 234.149 451.917 235.003 453.558C235.923 455.133 235.135 455.461 232.112 454.87C229.155 454.214 230.206 454.739 230.863 456.314C231.52 457.955 229.878 457.496 224.094 455.396C219.889 453.886 211.805 455.396 207.731 456.314L225.803 453.426Z" fill="#0E538C"/>
<path d="M485.516 344.533C478.287 346.437 464.947 353.132 462.121 364.618C457.915 381.881 466.327 407.152 453.052 431.963C448.78 439.839 526.457 450.473 526.457 450.473L541.441 363.305C541.441 363.305 522.712 344.402 518.9 343.089C510.948 340.463 499.974 340.726 485.516 344.533Z" fill="#CCE9FF"/>
<path d="M541.507 363.371C544.201 370.329 551.036 411.746 543.413 421.526C542.558 422.642 547.356 424.414 546.501 429.534C546.37 430.387 544.924 434.522 544.924 434.522L538.747 436.163L525.275 420.607C525.275 420.607 530.729 412.14 537.893 380.043C539.995 370.591 540.916 361.796 541.507 363.371Z" fill="#2A94F4"/>
<path d="M490.511 412.862C490.511 412.862 497.017 429.993 512.723 434.588C515.417 435.376 517.126 438.395 515.812 439.38C514.103 440.627 511.869 440.889 507.926 440.889C499.711 440.889 488.539 438.264 480.85 430.519C469.415 419.098 465.801 413.847 466.984 408.136C468.035 402.294 490.511 412.862 490.511 412.862Z" fill="#FCD2B1"/>
<path d="M464.355 358.842C461.004 364.487 459.098 373.545 459.164 386.541C459.164 396.584 467.576 413.059 468.824 418.113C469.021 418.966 469.547 422.576 469.547 422.576L478.813 432.028L497.411 418.966L491.759 409.974L490.051 410.171C490.051 410.171 488.999 405.182 489.262 403.279C489.525 401.375 484.136 375.448 481.442 358.842C479.93 349.193 467.641 353.263 464.355 358.842Z" fill="#2A94F4"/>
<path d="M481.047 409.777L486.502 408.07L488.736 407.48C488.867 409.055 490.182 410.105 490.182 410.105L485.91 410.63L480.981 412.206L475.198 416.341L481.047 409.777Z" fill="#0E538C"/>
<path d="M511.54 434.523L521.003 431.832C521.003 431.832 523.698 435.573 523.172 436.492C522.646 437.411 523.172 442.924 523.172 442.924L518.572 446.994L514.826 445.681C514.826 445.681 514.563 443.975 515.812 443.843C517.126 443.646 514.957 442.727 514.3 442.334C513.643 441.874 508.189 438.986 511.54 434.523Z" fill="#FCD2B1"/>
<path d="M496.951 343.68C495.899 346.765 497.476 350.244 500.499 351.294L505.888 353.263C508.911 354.379 512.197 352.672 513.248 349.587L518.046 335.409C519.097 332.324 517.52 328.846 514.497 327.73L509.108 325.761C506.085 324.645 502.799 326.351 501.748 329.436L496.951 343.68Z" fill="#FF957E"/>
<path d="M520.477 356.151C519.952 358.186 517.849 359.433 515.877 358.842L499.645 354.182C497.674 353.591 496.491 351.491 497.017 349.39L503.654 324.514C504.18 322.479 506.283 321.232 508.254 321.822L524.486 326.417C526.458 327.008 527.641 329.108 527.115 331.209L520.477 356.151Z" fill="#FCD2B1"/>
<path d="M528.889 328.714C529.021 328.583 527.378 326.745 528.232 323.135C529.349 318.278 525.735 316.309 523.04 316.243C521.463 316.178 516.14 318.737 513.314 319.591C510.489 320.444 510.751 319.328 505.625 318.409C502.208 317.753 501.42 319.656 500.237 322.282C499.054 324.973 498.922 335.213 498.922 335.213C499.382 335.869 500.105 336.394 500.565 335.869C501.025 335.344 502.865 327.139 504.377 324.71C505.823 322.282 511.737 326.154 514.957 328.058C518.112 329.961 520.938 330.29 525.998 329.239C526.589 329.896 527.115 330.618 527.115 330.946C527.115 331.602 525.669 336.263 525.669 336.263C525.669 336.263 528.495 334.491 529.284 333.112C529.678 332.653 529.809 330.421 528.889 328.714Z" fill="#FFBE55"/>
<path d="M502.142 344.205C501.945 344.861 501.288 345.321 500.631 345.124L497.148 344.139C496.491 343.942 496.096 343.22 496.294 342.564L498.068 335.934C498.265 335.278 498.922 334.819 499.579 335.015L503.062 336C503.72 336.197 504.114 336.919 503.917 337.575L502.142 344.205Z" fill="#FCD2B1"/>
<path d="M499.974 337.904C499.974 337.904 497.345 347.684 496.491 350.966C495.702 353.919 495.111 360.746 511.212 365.34C520.74 368.031 522.318 360.68 522.975 358.317C523.435 356.479 522.909 350.506 522.186 349.193C522.186 349.128 521.135 353.263 521.135 353.263C521.135 353.263 520.215 348.734 515.68 347.487C508.386 345.386 505.494 349.39 502.34 348.34C499.842 347.487 499.12 342.761 499.974 337.904Z" fill="#FFBE55"/>
<path d="M510.949 352.935L515.943 354.379C516.6 354.576 517.323 354.182 517.455 353.46L517.652 352.738L510.226 350.637L510.029 351.359C509.897 352.081 510.291 352.738 510.949 352.935Z" fill="#FCD2B1"/>
<path d="M590.137 452.376C587.837 459.005 547.355 483.357 533.752 481.913L492.81 483.948C458.046 479.55 441.551 423.627 441.551 423.627C442.931 409.58 477.235 429.928 489.459 436.229C508.78 446.206 521.069 446.731 521.069 446.731C534.015 448.109 548.998 437.739 565.362 437.411C583.302 436.951 593.817 441.94 590.137 452.376Z" fill="#0B4870"/>
<path d="M501.157 445.681C501.157 445.615 501.157 445.615 501.157 445.681V443.843L571.539 442.53V444.368L571.342 444.696C570.488 446.272 568.845 446.534 567.005 446.6L505.757 447.781C503.917 447.847 502.274 447.584 501.354 446.075L501.157 445.681Z" fill="#D3D3D3"/>
<path d="M518.112 445.615C518.112 445.615 518.112 445.681 518.112 445.615L517.915 445.944C517.652 446.337 517.323 446.666 516.929 446.862L506.217 447.059C504.443 447.125 502.865 446.928 501.945 445.681L501.748 445.418L501.683 445.353V444.499L517.98 444.171L518.112 445.615ZM527.641 444.959L562.799 444.303V443.055L527.575 443.777L527.641 444.959ZM518.506 443.449L526.984 407.48C527.181 406.561 528.101 405.773 529.021 405.707L578.44 404.789C579.36 404.789 579.886 405.511 579.688 406.495L571.211 442.465L518.506 443.449Z" fill="#D3D3D3"/>
<path d="M486.633 493.203C491.496 494.056 495.242 488.214 495.242 488.214L507.86 477.975L505.166 471.017L480.587 482.438C480.587 482.438 481.705 492.349 486.633 493.203Z" fill="#FCD2B1"/>
<path d="M495.176 487.82C495.176 487.82 495.176 488.411 494.256 491.102C493.336 493.794 492.153 494.712 490.97 495.106C486.239 496.55 482.887 495.828 471.584 498.06C460.281 500.292 456.863 498.585 453.578 493.203C450.292 487.82 453.709 483.554 459.229 483.16C467.181 482.569 471.65 483.488 475.79 482.832C480.127 482.176 480.39 481.125 482.953 479.484C485.319 477.975 487.553 487.033 485.319 489.133C483.282 490.971 493.533 491.234 495.176 487.82Z" fill="#FFB750"/>
<path d="M492.811 493.006C488.145 494.45 484.728 493.728 473.424 495.96C462.121 498.191 458.704 496.485 455.418 491.102C453.906 488.608 453.841 486.377 454.695 484.67C452.198 486.442 451.343 489.527 453.578 493.203C456.864 498.585 460.281 500.292 471.584 498.06C482.888 495.828 486.305 496.55 490.971 495.106C491.891 494.844 492.811 494.187 493.599 492.678C493.336 492.809 493.074 492.94 492.811 493.006Z" fill="white"/>
<path d="M495.176 488.018V487.886C495.176 487.952 495.111 488.017 495.045 488.083C495.111 488.017 495.176 488.018 495.176 488.018Z" fill="#E9D6B8"/>
<path d="M470.795 492.021C470.467 492.153 470.138 491.431 470.007 490.446C469.81 488.411 469.35 486.442 468.692 484.407C468.364 483.423 468.364 482.57 468.758 482.438C469.152 482.307 469.81 483.029 470.072 484.014C470.73 485.983 471.124 488.017 471.321 489.987C471.453 490.971 471.124 491.89 470.795 492.021ZM474.278 491.365C473.884 491.431 473.555 490.774 473.424 489.855C473.227 487.952 472.767 486.048 472.11 484.21C471.781 483.292 471.781 482.504 472.241 482.438C472.635 482.373 473.293 483.095 473.621 484.014C474.213 485.851 474.673 487.755 474.87 489.593C474.935 490.512 474.673 491.299 474.278 491.365ZM477.958 491.234C477.564 491.299 477.17 490.577 477.038 489.593C476.71 487.624 476.25 485.72 475.527 483.751C475.198 482.766 475.198 481.979 475.593 481.979C476.053 481.979 476.71 482.701 477.038 483.685C477.761 485.589 478.221 487.558 478.484 489.461C478.616 490.38 478.353 491.168 477.958 491.234Z" fill="white"/>
<path d="M487.488 476.465C487.488 476.465 574.037 439.642 578.966 439.577C595.658 439.445 591.846 456.905 583.369 465.175C573.38 474.89 497.411 492.678 497.411 492.678L487.488 476.465Z" fill="#0E538C"/>
<path d="M521.792 482.898L498.134 459.662L508.254 449.357L534.015 477.45L521.792 482.898Z" fill="#FCD2B1"/>
<path d="M526.655 464.65C526.655 464.65 466.524 407.611 462.515 405.905C448.78 400.128 440.303 415.816 440.763 421.264C441.42 428.287 502.471 485.392 502.471 485.392L526.655 464.65Z" fill="#0E538C"/>
<path d="M562.273 484.67C563.653 485.983 563.916 489.986 563.916 489.986C563.916 489.986 543.872 497.863 536.841 497.994C535.001 498.06 531.715 497.272 528.56 496.353C528.035 496.222 526.786 494.778 526.26 494.647C525.274 494.384 525.077 495.303 524.289 495.041C522.186 494.319 520.609 493.728 520.543 493.597C516.271 484.276 517.717 479.681 517.717 479.681C517.717 479.681 526.917 482.438 525.34 480.272C521.989 475.677 531.649 471.017 533.752 473.446C542.427 483.226 558.199 480.797 562.273 484.67Z" fill="#FFB750"/>
<path d="M563.39 486.639C557.213 489.199 544.267 494.384 541.704 494.581C531.124 495.369 523.763 491.496 518.834 489.199C519.294 490.512 519.82 492.021 520.543 493.597C520.609 493.728 522.12 494.319 524.289 495.041C525.143 495.303 525.34 494.319 526.26 494.647C526.786 494.778 527.969 496.222 528.561 496.353C531.715 497.272 535.001 497.994 536.841 497.994C543.873 497.863 563.916 489.986 563.916 489.986C563.916 489.986 563.916 488.149 563.39 486.639ZM549.261 480.6C549.459 480.994 548.67 481.388 547.553 481.65C545.253 482.11 543.018 482.832 540.784 483.751C539.667 484.21 538.681 484.342 538.55 483.948C538.418 483.554 539.141 482.832 540.258 482.372C542.427 481.454 544.727 480.797 546.961 480.338C548.013 480.009 549.064 480.206 549.261 480.6ZM544.727 478.959C544.924 479.353 544.135 479.878 543.018 480.206C540.784 480.863 538.615 481.782 536.447 482.898C535.395 483.423 534.409 483.62 534.278 483.226C534.146 482.832 534.869 481.979 535.921 481.454C538.024 480.403 540.192 479.484 542.427 478.894C543.544 478.434 544.595 478.565 544.727 478.959ZM540.39 477.515C540.521 477.909 539.798 478.5 538.747 478.894C536.578 479.747 534.475 480.797 532.438 482.044C531.452 482.701 530.532 482.898 530.401 482.438C530.269 482.044 530.926 481.125 531.978 480.469C534.015 479.222 536.118 478.172 538.221 477.384C539.272 477.056 540.258 477.121 540.39 477.515Z" fill="white"/>
<g clip-path="url(#clip0_27_7075)">
<path d="M394.634 285.041C394.634 282.073 396.258 279.483 398.669 278.111C397.41 276.569 395.517 275.186 393.43 274.781C390.584 274.227 388.96 275.149 387.91 275.519C386.86 275.888 385.465 276.221 385.465 276.221C385.465 276.221 384.071 275.888 383.02 275.519C381.971 275.149 380.347 274.226 377.501 274.78C374.655 275.333 372.17 277.704 371.16 279.818C369.212 283.897 370.013 289.028 371.39 292.719C372.765 296.411 376.4 301.569 379.22 301.984C381.225 302.279 382.466 300.895 385.465 300.544C388.463 300.895 389.705 302.279 391.71 301.984C394.529 301.569 398.165 296.411 399.54 292.719C399.573 292.628 399.608 292.535 399.642 292.441C396.706 291.265 394.634 288.394 394.634 285.041ZM384.753 274.106C384.753 274.106 387.541 274.475 390.073 271.604C392.605 268.733 391.885 266.016 391.885 266.016C391.885 266.016 389.097 265.646 386.565 268.518C384.032 271.389 384.753 274.106 384.753 274.106Z" fill="white"/>
</g>
<defs>
<clipPath id="clip0_27_7075">
<rect width="29.6429" height="36.0255" fill="white" transform="translate(370 266)"/>
</clipPath>
</defs>
</svg>
