<?xml version="1.0" encoding="utf-8"?>
<!-- Generator: Adobe Illustrator 22.0.1, SVG Export Plug-In . SVG Version: 6.00 Build 0)  -->
<svg version="1.1" id="레이어_1" xmlns="http://www.w3.org/2000/svg" xmlns:xlink="http://www.w3.org/1999/xlink" x="0px"
	 y="0px" viewBox="0 0 1068 831.7" style="enable-background:new 0 0 1068 831.7;" xml:space="preserve">
<style type="text/css">
	.st0{fill:#F2F2F2;}
	.st1{fill:#C788FF;}
	.st2{fill:none;stroke:#2F2E41;stroke-width:2;}
	.st3{opacity:0.4;fill:#FFFFFF;enable-background:new    ;}
	.st4{fill:#3F3D56;}
	.st5{fill:#4C3893;}
	.st6{fill:#684DB3;}
	.st7{fill:#2F2E41;}
	.st8{opacity:0.1;enable-background:new    ;}
	.st9{fill:#E9E9FF;}
	.st10{fill:#CC4DD4;}
	.st11{opacity:0.15;enable-background:new    ;}
</style>
<title>online wishes</title>
<path class="st0" d="M838.1,309.4C793.2,132.8,638,5.3,455.8,0.2c-96.3-2.7-197.7,29.2-271.4,141C52.5,341,192.5,479,290.1,544.7
	c47.2,31.8,89.6,70,126.2,113.5c65.9,78.2,192.8,175.5,343.8,23.1C869.6,570.8,868,427,838.1,309.4z"/>
<path class="st1" d="M1068,348.7c0,45.8-37.2,119-83,119s-83-73.2-83-119s37.2-83,83-83C1030.8,265.7,1068,302.9,1068,348.7z"/>
<path class="st2" d="M988.1,470.7c-10.4,3.6-12.9,17.8-9.3,28.2s11.2,19.1,15,29.4c1.7,5.2,3,10.6,3.7,16c2.2,13,4.4,26.2,2.7,39.2
	c-1.6,12.4-6.6,24.1-12.2,35.2c-10.8,21.6-24,42-39.3,60.7"/>
<path class="st1" d="M993,475.7c-5.3-3.4-10.7-3.4-16,0v-16h16V475.7z"/>
<path class="st2" d="M977,467.4c5,2.6,11,2.5,16-0.1"/>
<ellipse class="st3" cx="1019.5" cy="313.7" rx="17.5" ry="21"/>
<path class="st1" d="M0,335.7c0,45.8,37.2,119,83,119s83-73.2,83-119s-37.2-83-83-83S0,289.9,0,335.7z"/>
<path class="st2" d="M79.9,457.7c10.4,3.6,12.9,17.8,9.3,28.2s-11.2,19.1-15,29.4c-1.7,5.2-3,10.6-3.7,16c-2.2,13-4.4,26.2-2.7,39.2
	c1.6,12.4,6.6,24.1,12.2,35.2c10.8,21.6,24,42,39.3,60.7"/>
<path class="st1" d="M75,462.7c5.3-3.4,10.7-3.4,16,0v-16H75V462.7z"/>
<path class="st2" d="M91,454.4c-5,2.6-11,2.5-16-0.1"/>
<ellipse class="st3" cx="48.5" cy="300.7" rx="17.5" ry="21"/>
<path class="st4" d="M1008,700.7c0,47.2-222.1,131-496,131S42,661.9,42,614.7s196.1,46,470,46S1008,653.5,1008,700.7z"/>
<path class="st5" d="M1008,700.7c0,47.2-222.1,131-496,131S42,661.9,42,614.7s196.1,46,470,46S1008,653.5,1008,700.7z"/>
<path class="st6" d="M1008,700.2c0,47.2-222.1,85.5-496,85.5S42,661.9,42,614.7s196.1,0,470,0S1008,653,1008,700.2z"/>
<path class="st7" d="M436.2,567.1l-10,64.1c0,0-49.5,26.3-14.7,27s198.6,0,198.6,0s31.7,0-18.5-27.8l-10-67.2L436.2,567.1z"/>
<path class="st8" d="M404.5,657.6c7.9-7,21.7-14.3,21.7-14.3l10-64.1l145.3,0.1l10,63.2c11.7,6.5,19,11.5,23.2,15.3
	c6.5-1.5,13.5-6.9-23.2-27.3l-10-67.2l-145.3,3.9l-10,64.1C426.1,631.3,384.6,653.4,404.5,657.6z"/>
<path class="st7" d="M203.8,120.2h608.4c12.7,0,23,10.3,23,23V553c0,12.7-10.3,23-23,23H203.8c-12.7,0-23-10.3-23-23V143.2
	C180.8,130.5,191.1,120.2,203.8,120.2z"/>
<rect x="202.8" y="144.5" class="st9" width="610.4" height="341.5"/>
<circle class="st0" cx="508" cy="133.7" r="3.9"/>
<path class="st7" d="M835.3,513.1v40c0,12.7-10.3,23-23,23c0,0,0,0,0,0H203.8c-12.7,0-23-10.3-23-23c0,0,0,0,0,0v-40H835.3z"/>
<polygon class="st7" points="678.8,700 678.8,707.8 263.1,707.8 263.1,701.6 263.7,700 273.9,672.2 670.3,672.2 "/>
<path class="st7" d="M838.8,692.5c-0.8,3.2-3.6,6.7-10.1,9.9c-23.2,11.6-70.3-3.1-70.3-3.1s-36.3-6.2-36.3-22.4
	c1-0.7,2.1-1.3,3.2-1.9c9.7-5.2,42.1-17.9,99.4,0.5c4.2,1.3,8,3.8,10.9,7.1C837.8,685.4,839.6,688.8,838.8,692.5z"/>
<path class="st8" d="M838.8,692.5c-28.4,10.9-53.7,11.7-79.6-6.3c-13.1-9.1-25-11.3-33.9-11.2c9.7-5.2,42.1-17.9,99.4,0.5
	c4.2,1.3,8,3.8,10.9,7.1C837.8,685.4,839.6,688.8,838.8,692.5z"/>
<ellipse class="st0" cx="803.2" cy="683" rx="10" ry="3.1"/>
<ellipse transform="matrix(0.1602 -0.9871 0.9871 0.1602 -111.0362 958.9689)" class="st0" cx="508" cy="544.7" rx="14.7" ry="14.7"/>
<polygon class="st8" points="678.8,700 678.8,707.8 263.1,707.8 263.1,701.6 263.7,700 "/>
<path class="st2" d="M871.1,304.7c-10.4,3.6-12.9,17.8-9.3,28.2s11.2,19.1,15,29.4c1.7,5.2,3,10.6,3.7,16c2.2,13,4.4,26.2,2.7,39.2
	c-1.6,12.4-6.6,24.1-12.2,35.2c-10.8,21.6-24,42-39.3,60.7"/>
<path class="st10" d="M951,182.7c0,45.8-37.2,119-83,119s-83-73.2-83-119s37.2-83,83-83S951,136.9,951,182.7L951,182.7z"/>
<path class="st10" d="M876,309.7c-5.3-3.4-10.7-3.4-16,0v-16h16V309.7z"/>
<path class="st2" d="M860,301.4c5,2.6,11,2.5,16-0.1"/>
<ellipse class="st3" cx="902.5" cy="147.7" rx="17.5" ry="21"/>
<polygon class="st10" points="603.6,288.6 603.6,375.1 580.7,421.3 580.7,421.3 580,422.7 519.4,418.7 496.1,417.2 442.1,413.6 
	442.1,310.1 496.1,311.6 520.3,312.3 581.5,314 "/>
<polygon class="st8" points="603.6,293.7 603.6,375.1 598,386.4 598,386.4 592.3,397.9 592.3,397.9 580.7,421.3 582,334.7 
	582.3,317.3 593.3,305.1 593.3,305.1 598.1,299.8 "/>
<polygon class="st10" points="606.7,265.6 606.7,295.8 603.6,300.7 598.1,309.6 593.1,317.4 582.3,334.7 582,334.7 437.3,327.3 
	437.3,297.5 437.7,297.1 455,278.4 461.2,271.6 472.5,259.4 "/>
<polygon class="st8" points="582.3,304.9 582.3,334.7 437.3,327.3 437.3,297.5 437.7,297.1 "/>
<polygon class="st11" points="606.7,265.6 606.7,295.8 582.3,334.7 582.3,304.9 "/>
<polygon class="st7" points="598.1,279.5 598.1,299.8 598.1,309.6 598,386.4 598,386.4 592.3,397.9 593.1,317.4 593.3,305.1 
	593.3,305.1 593.5,286.9 455,278.4 461.2,271.6 "/>
<polygon class="st7" points="530.1,280.5 520.4,301.5 520.3,312.3 519.4,418.7 496.1,417.2 496.1,300.1 508.6,280.5 "/>
<path class="st7" d="M498.2,281.9c-5.6,1.9-11.6,2.1-17.4,0.6c-1.1-0.2-2.2-0.7-3-1.4c-1-1.1-1.6-2.3-1.9-3.7
	c-1-2.9-1.6-5.9-1.7-8.9c0.1-3,1.2-6.2,3.7-8c0.5-0.3,1-0.7,1.4-1.1c0.5-0.7,0.9-1.4,1.1-2.2c1.7-5.1,5-10.4,10.3-11.2
	c4.9-0.7,9.3,2.7,13,5.8l8.2,7c2.5-6.7,10-10.1,16.7-7.6c3.4,1.3,6.1,3.9,7.5,7.3c5-5.6,11.3-9.9,18.3-12.6c1.6-0.6,3.4-1.1,4.8-0.2
	c0.9,0.6,1.5,1.5,1.9,2.6c2.2,4.9,3.5,10.2,3.6,15.6c1.2-0.4,2.5,0,3.2,1.1c0.6,1,1,2.2,1.1,3.4c0.2,1.9,0.3,3.8,0.3,5.7
	c0,2-0.2,4.2-1.5,5.7c-1.7,2-4.6,2.2-7.2,2.2c1.2,1.1,0.6,3.3-0.7,4.3s-3.2,1-4.8,0.9c-6.4-0.1-13.2-0.2-18.5-3.8
	c-2.1-1.4-3.9-3.3-6-4.7c-5.2-3.4-11.7-3.6-17.6-3.3C507.6,275.7,503.3,280.2,498.2,281.9z"/>
<path class="st7" d="M497,280.5c0,0-53.4,7.5-60.9,39.8l11.2-1.7l7.9,14.1c0,0,8.3-31.5,32.7-38.9S521,285,521,285s17,4.1,32.3,53.4
	l8.7-12l15.3,3.3c0,0-11.2-38.5-41.4-49.3H497z"/>
</svg>
