<svg width="630" height="630" viewBox="0 0 630 630" fill="none" xmlns="http://www.w3.org/2000/svg">
<path d="M201.171 68.8177C267.846 24.8785 361.542 33.8348 420.485 99.0547C452.712 134.727 465.802 183.795 499.254 218.701C536.916 257.971 581.927 296.169 598.997 349.753C617.14 406.706 601.217 472.002 560.646 515.559C511.272 568.531 438.703 552.609 370.115 551.767C89.2562 548.245 -119.493 360.776 146.132 129.674C168.332 110.231 179.125 83.2855 201.171 68.8177V68.8177Z" fill="#D2D9FD"/>
<path d="M548.552 237.915C547.097 238.374 539.442 244.039 539.442 244.039L530.409 249.857L530.027 246.565C530.027 246.565 526.352 239.216 521.836 239.523C521.836 239.523 527.271 246.182 527.96 250.622C528.649 255.062 528.955 258.124 528.955 258.124L522.984 264.018L532.936 276.802L556.283 259.349C556.283 259.349 550.006 237.456 548.552 237.915Z" fill="#DBA17B"/>
<path d="M553.221 237.915L549.164 270.448L532.936 270.831L529.032 237.915H553.221Z" fill="#FFBE55"/>
<path d="M556.742 238.374H526.123V235.159H529.031V230.107L553.91 233.781L553.986 235.618H556.742V238.757" fill="#0E538C"/>
<path d="M554.676 259.961C560.34 260.497 553.221 244.957 553.221 244.957C553.221 244.957 537.911 243.886 537.758 244.728C537.605 245.57 537.682 246.948 538.906 247.254C540.131 247.56 549.7 248.861 549.7 248.861C549.7 248.861 539.748 249.321 539.902 250.392C540.208 252 541.356 252.153 544.341 252.612C546.868 252.995 552.379 253.148 552.379 253.148C552.379 253.148 541.892 253.378 542.122 254.067C542.351 254.756 541.662 256.899 545.26 256.363C553.451 255.292 554.676 259.961 554.676 259.961V259.961Z" fill="#DBA17B"/>
<path d="M485.781 322.502C485.781 322.502 501.321 432.35 494.125 455.697C486.93 479.045 484.097 500.096 484.097 500.096L447.966 489.532C447.966 489.532 459.908 434.57 461.745 424.006C463.505 413.442 445.057 327.631 445.057 327.631L485.781 322.502Z" fill="#0B4870"/>
<path d="M468.711 330.386L451.64 506.985H417.117C417.117 506.985 428.293 320.052 426.303 318.445C424.312 316.99 468.711 330.386 468.711 330.386V330.386ZM482.337 222.758C482.337 222.758 486.011 282.007 493.896 279.864C501.857 277.797 523.137 262.334 523.137 262.334L536.074 276.572C536.074 276.572 496.651 320.435 480.423 302.522C464.271 284.533 482.337 222.758 482.337 222.758V222.758ZM471.696 536.533L474.069 524.592L448.885 514.487L444.904 532.247L446.282 532.476C451.947 535.079 479.428 547.786 483.715 548.169C488.461 548.628 471.696 536.533 471.696 536.533V536.533Z" fill="#0B4870"/>
<path d="M411.835 362.69L414.591 366.671C414.591 366.671 415.892 369.35 419.107 373.407C419.949 374.479 420.944 375.397 422.093 376.086C423.47 376.928 425.384 378 426.609 378.306C428.14 378.612 428.446 380.603 427.145 381.215C425.843 381.751 421.71 380.985 417.729 377.923C413.749 374.938 415.586 382.516 416.275 385.349C416.887 388.105 418.418 396.831 417.729 397.75C416.734 399.051 415.127 398.132 414.591 395.377C414.055 392.544 411.758 384.277 410.304 384.736C408.85 385.119 412.218 399.281 412.218 399.281C412.218 399.281 413.443 402.19 411.758 402.725C408.773 403.644 406.247 388.334 406.094 386.88C405.941 385.885 404.333 386.267 404.563 387.339C404.792 388.487 408.237 401.348 405.252 402.343C402.879 403.108 403.108 389.789 400.888 387.492C398.669 385.196 401.807 397.597 399.511 398.209C398.669 398.439 397.98 398.515 397.214 391.09C396.449 383.512 397.673 362.767 397.673 362.767L412.065 362.92" fill="#FFE3CA"/>
<path d="M461.821 202.855C461.515 200.482 462.74 190.608 462.74 190.608C462.74 190.608 471.773 189.919 472.615 181.039C473.457 172.083 473.533 151.414 473.533 151.414L457.382 142.841L438.857 155.931L434.646 165.729L440.158 189.077V200.789L461.821 202.855Z" fill="#DBA17B"/>
<path d="M462.74 190.608C462.74 190.608 456.692 190.454 451.028 186.244C451.028 186.244 453.477 192.904 462.51 192.827L462.74 190.608Z" fill="#C68C6B"/>
<path d="M434.953 175.527C437.402 180.962 438.857 188.923 438.857 188.923C440.158 191.373 440.617 183.565 440.617 183.565C440.617 183.565 441.766 176.063 440.694 173.154C440.694 173.154 436.101 174.609 435.106 166.418C434.57 162.361 440.694 160.447 442.378 165.346L446.206 165.729C446.206 165.729 446.512 150.419 455.315 153.252C455.315 153.252 461.668 157.156 465.496 154.783C469.323 152.41 469.017 151.567 469.017 151.567C469.017 151.567 470.854 155.625 475.754 152.945C480.653 150.266 481.265 145.597 479.581 143.377C478.586 142.075 477.667 140.621 476.06 140.315C474.452 140.009 472.692 140.697 471.696 141.922C472.921 140.162 472.079 137.559 470.242 136.334C468.481 135.186 466.108 135.262 464.118 136.028C462.128 136.793 460.444 138.171 458.836 139.549C457.688 136.334 454.243 134.038 450.875 134.344C447.43 134.65 444.445 137.406 443.832 140.774C441.995 138.478 438.474 137.942 435.795 139.243C433.116 140.544 431.432 143.3 430.896 146.209C430.36 149.118 430.972 152.103 432.12 154.859C430.054 153.711 427.221 154.553 425.843 156.467C424.466 158.38 424.466 161.06 425.461 163.203C426.456 165.346 428.37 166.954 430.436 168.026C428.905 169.25 428.37 171.7 429.365 173.461C430.36 175.221 432.656 176.14 434.493 175.451" fill="#0E538C"/>
<path d="M404.027 226.356C404.027 226.356 410.227 197.803 440.158 200.789L467.563 203.544C467.563 203.544 486.394 211.506 483.715 233.934C481.112 256.363 479.811 276.879 480.5 280.783C481.188 284.763 487.772 320.052 485.781 322.502C466.032 346.538 415.586 308.187 415.586 308.187L404.027 226.356V226.356Z" fill="#FFBE55"/>
<path d="M440.158 200.789L433.192 367.589L412.447 356.337L414.591 208.367C414.591 208.367 420.179 198.798 440.158 200.789V200.789Z" fill="#0E538C"/>
<path d="M396.908 365.676L404.027 226.28C406.247 217.706 410.993 211.123 417.117 205.611V367.513L396.908 365.676V365.676ZM461.821 202.855C461.821 202.855 480.499 212.118 479.657 243.427C478.739 274.735 490.91 363.226 490.91 363.226L506.526 360.088C506.526 360.088 488.461 276.19 487.695 261.492C486.93 246.489 488.231 225.284 478.126 210.663C470.854 200.176 461.821 202.855 461.821 202.855V202.855Z" fill="#0E538C"/>
<path d="M440.158 200.789C440.158 200.789 434.034 214.567 434.646 219.543C435.259 224.595 437.402 235.159 437.402 235.159C437.402 235.159 432.886 237.915 433.269 240.288C433.575 242.661 437.173 280.17 437.173 280.17L440.158 200.789ZM417.117 367.589C419.03 333.908 418.571 268.535 420.485 234.776Z" fill="#0B4870"/>
<path d="M471.849 523.75C471.543 523.597 478.203 498.412 478.203 498.412L456.08 491.982L451.411 515.559L471.849 523.75ZM420.868 507.062H446.052V526.812H420.868V507.062Z" fill="#DBA17B"/>
<path d="M448.502 537.529L446.205 525.587H419.03L421.863 543.193L423.317 543.27C429.517 543.576 459.754 545.184 463.888 543.959C468.634 542.504 448.502 537.529 448.502 537.529Z" fill="#0B4870"/>
<path d="M235.695 150.036L242.125 171.623C242.432 172.618 242.738 173.614 242.661 174.609C242.585 177.671 239.752 180.044 236.767 180.58C233.781 181.115 230.719 180.35 227.811 179.508C227.045 182.57 223.371 183.871 220.232 184.484C206.3 187.086 191.526 185.249 178.666 179.278C184.178 171.317 188.694 162.744 192.062 153.634C203.009 154.093 213.955 154.629 224.902 155.089C226.815 155.165 228.806 155.242 230.643 154.629C232.48 153.94 234.088 152.409 234.241 150.496" fill="#0E538C"/>
<path d="M108.623 244.728L105.408 240.977C105.408 240.977 103.112 239.063 99.8202 234.776C98.9781 233.705 98.3658 232.403 97.9065 231.102C97.3706 229.495 96.7582 227.351 96.8348 226.05C96.9113 224.442 94.9976 223.677 94.079 224.825C93.1604 225.973 93.0073 230.337 94.9976 235.006C96.9879 239.676 89.8688 236.001 87.2661 234.623C84.6634 233.322 76.3961 229.648 75.3244 230.107C73.7935 230.796 74.2527 232.557 76.932 233.858C79.6112 235.159 87.1896 239.446 86.5006 240.747C85.7351 242.049 72.5687 235.236 72.5687 235.236C72.5687 235.236 69.966 233.322 69.0474 234.853C67.3633 237.609 81.9842 243.886 83.3621 244.422C84.3572 244.804 83.5918 246.335 82.5201 245.8C81.4484 245.34 69.5067 238.68 67.7461 241.436C66.4447 243.58 79.6877 246.718 81.3718 249.474C83.0559 252.23 71.5735 246.106 70.3487 248.173C69.8894 248.938 69.6598 249.627 76.8554 252.153C84.1276 254.756 105.102 258.736 105.102 258.736L108.47 244.345" fill="#FF957E"/>
<path d="M167.796 210.74C167.796 210.74 155.854 245.264 152.18 245.57C126.995 247.866 99.5906 236.996 99.5906 236.996L92.7012 256.44C92.7012 256.44 164.045 288.361 179.355 257.588C195.66 224.978 194.818 219.849 194.818 219.849L167.796 210.74V210.74Z" fill="#FCD2B1"/>
<path d="M169.403 405.94C182.187 464.654 266.238 519.233 266.238 519.233L280.553 501.704C280.553 501.704 212.96 441.459 210.127 414.667C207.219 387.875 229.648 345.849 229.648 345.849L206.377 335.974L169.403 405.94Z" fill="#0B4870"/>
<path d="M197.803 192.139C198.186 189.689 197.267 179.584 197.267 179.584C197.267 179.584 188.005 178.589 187.469 169.403C186.933 160.218 187.469 139.09 187.469 139.09L204.31 130.823L222.835 144.831L220.003 190.684L197.803 192.139Z" fill="#FFE3CA"/>
<path d="M221.533 152.027C221.533 152.027 206.377 150.572 203.774 136.87L187.392 152.027C187.392 152.027 182.417 141.846 191.526 132.43C200.635 123.015 206.836 124.928 210.434 124.928C213.725 124.928 230.566 128.526 235.542 147.587C235.925 148.965 236.231 152.409 236.46 153.94L221.533 152.027Z" fill="#0E538C"/>
<path d="M197.344 179.661C197.344 179.661 203.544 179.738 209.515 175.527C209.515 175.527 206.759 182.264 197.573 181.881L197.344 179.661V179.661Z" fill="#FCD2B1"/>
<path d="M178.283 295.557C178.283 298.848 179.431 303.365 179.431 303.365L244.498 322.119C244.498 322.119 249.168 292.724 237.303 276.343C231.868 268.841 233.092 258.277 235.312 249.244L242.967 218.395L232.71 189.383L191.756 192.139C191.756 192.139 168.026 189.766 159.758 221.151L174.992 244.039L175.145 252.689L178.283 295.557V295.557Z" fill="#FFBE55"/>
<path d="M241.742 284.074C242.431 284.074 254.22 310.484 243.58 326.176C242.584 327.631 240.135 331.228 236.843 336.357C221.074 360.547 185.096 417.423 183.871 425.767C182.417 435.871 153.328 541.892 153.328 541.892L131.665 538.447L149.347 418.188L178.283 295.556L241.742 284.074V284.074ZM204.157 135.798C204.157 135.798 200.789 142.305 202.243 147.204L187.545 151.032C187.545 150.955 184.177 132.354 204.157 135.798ZM235.695 152.563C235.695 152.563 237.379 173.69 221.074 177.441L222.146 151.95L235.695 152.563V152.563Z" fill="#0E538C"/>
<path d="M168.944 251.005L132.43 266.391L72.6453 267.693L43.5566 218.318L105.026 214.185L131.665 261.951L168.715 247.56L168.944 251.005Z" fill="#FFBE55"/>
<path d="M162.361 214.721L152.104 239.752L175.068 251.158L177.212 229.265L162.361 214.721Z" fill="#FFBE55"/>
<path d="M206.607 187.546L198.263 191.143L199.947 207.984L210.511 189.077L206.607 187.546Z" fill="#FFE3CA"/>
<path d="M129.674 538.447C129.674 538.447 110.614 543.5 115.36 544.954C120.106 546.408 153.098 542.811 153.098 542.811L154.17 539.06L129.674 538.447V538.447Z" fill="#0E538C"/>
<path d="M153.098 542.81L159.835 524.668H130.593L129.674 538.447L153.098 542.81Z" fill="#0E538C"/>
<path d="M266.468 520.458C266.468 520.458 261.645 539.595 265.243 536.151C268.764 532.706 281.778 502.163 281.778 502.163L279.022 499.407L266.468 520.458Z" fill="#0B4870"/>
<path d="M281.701 502.163L269.07 487.465L254.909 512.956L266.468 520.458L281.701 502.163Z" fill="#0B4870"/>
<path d="M223.906 163.586C223.83 162.055 223.83 160.447 224.366 159.069C224.901 157.615 226.126 156.39 227.657 156.237C229.418 156.084 231.102 157.538 231.408 159.222C231.714 160.983 230.643 162.744 229.112 163.662C227.581 164.504 225.667 164.504 223.983 163.815" fill="#FFE3CA"/>
<path d="M213.496 296.781C213.496 296.781 212.654 212.041 215.639 205.611C215.639 205.611 218.778 189.689 230.949 189.383L225.514 189.842C225.514 189.842 214.491 189.077 211.276 210.74C208.137 232.403 208.29 297.47 208.29 297.47L213.496 296.781V296.781ZM189.918 299.767C189.918 299.767 186.627 202.396 189.23 192.139H185.938C185.938 192.139 183.029 200.482 183.565 223.83C183.948 237.838 183.565 299.767 183.565 299.767H189.918Z" fill="#0E538C"/>
<path d="M151.108 256.593C151.108 256.593 135.186 266.697 131.665 266.621C128.22 266.544 118.192 266.315 119.264 267.693C120.335 269.071 131.665 270.984 131.665 270.984L151.108 256.593Z" fill="#FFE3CA"/>
<path d="M152.256 277.874C152.256 277.874 227.657 298.159 237.991 265.396C248.938 230.643 249.091 239.676 249.091 239.676L225.437 216.864C225.437 216.864 212.73 256.976 209.132 257.894C189.306 262.947 166.801 259.731 158.839 258.277C157.921 257.512 156.926 256.669 155.701 255.521C154.706 254.603 153.864 253.454 153.251 252.23C152.486 250.699 151.567 248.708 151.414 247.407C151.184 245.8 149.194 245.34 148.505 246.565C147.816 247.79 148.276 252.153 151.031 256.44C151.031 256.44 133.042 267.999 131.588 270.755L152.256 277.874V277.874Z" fill="#FFE3CA"/>
<path d="M232.709 189.383C232.709 189.383 249.933 192.674 250.622 219.773C251.311 246.871 240.364 267.616 240.364 267.616L211.123 252.383L232.709 189.383" fill="#FFBE55"/>
<path d="M382.899 456.846H303.901C300.226 456.846 297.241 453.86 297.241 450.186C297.241 446.512 300.226 443.526 303.901 443.526H382.823C386.497 443.526 389.483 446.512 389.483 450.186C389.559 453.86 386.574 456.846 382.899 456.846Z" fill="#D3D3D3"/>
<path d="M327.04 540.995V534.258H395.015V540.995H327.04Z" fill="#0B4870"/>
<path d="M333.295 539.672C333.908 543.193 331.535 546.485 328.013 547.021C324.492 547.633 321.201 545.26 320.665 541.739C320.052 538.218 322.425 534.926 325.947 534.39C329.468 533.778 332.759 536.151 333.295 539.672ZM357.332 452.482H364.068V536.993H357.332V452.482ZM401.271 539.672C401.883 543.193 399.51 546.485 395.989 547.021C392.468 547.633 389.176 545.26 388.64 541.739C388.028 538.218 390.401 534.926 393.922 534.39C397.444 533.778 400.735 536.151 401.271 539.672Z" fill="#0B4870"/>
<path d="M403.568 456.846H329.009C323.956 456.846 320.282 451.87 321.736 446.894L357.332 324.109C358.25 320.818 361.236 318.521 364.604 318.521H439.163C444.215 318.521 447.89 323.497 446.435 328.473L410.84 451.258C409.921 454.626 406.936 456.846 403.568 456.846Z" fill="#D3D3D3"/>
<path d="M393.31 456.846H328.32C323.267 456.846 319.593 451.87 321.048 446.894L356.643 324.109C357.561 320.818 360.547 318.521 363.915 318.521H428.905C433.958 318.521 437.632 323.497 436.178 328.473L400.582 451.258C399.664 454.626 396.678 456.846 393.31 456.846Z" fill="#F2F2F2"/>
<path d="M403.567 456.846H324.568C320.894 456.846 317.909 453.86 317.909 450.186C317.909 446.512 320.894 443.526 324.568 443.526H403.491C407.165 443.526 410.15 446.512 410.15 450.186C410.227 453.86 407.242 456.846 403.567 456.846Z" fill="#D3D3D3"/>
<path d="M338.271 352.586L320.741 399.204L324.875 408.314L348.529 404.18L355.265 354.346L338.271 352.586Z" fill="#FCD2B1"/>
<path d="M348.911 329.927C348.911 329.927 335.056 337.199 331.994 361.083L350.289 371.111L348.911 329.927V329.927Z" fill="#2A94F4"/>
<path d="M371.264 320.818L349.447 330.004L332.224 406.629L389.789 429.288L420.485 341.869C420.485 341.869 415.509 323.65 386.727 318.981L371.264 320.818V320.818Z" fill="#2A94F4"/>
<path d="M429.441 410.763C429.441 409.768 428.829 403.72 428.522 402.725L419.03 342.022C417.193 333.678 407.854 329.468 400.429 333.601C394.917 336.663 392.468 343.17 394.611 349.064L405.864 401.194L429.441 410.763Z" fill="#FFE3CA"/>
<path d="M416.504 397.826L352.28 392.851L349.064 404.18L410.916 425.078C420.408 428.293 430.13 420.791 429.441 410.763C428.982 403.874 423.47 398.362 416.504 397.826V397.826Z" fill="#FFE3CA"/>
<path d="M412.6 331.764C412.6 331.764 420.791 335.286 424.312 356.566L395.377 365.446C395.377 365.446 376.469 344.242 396.678 330.08L412.6 331.764Z" fill="#2A94F4"/>
<path d="M332.147 404.869C334.52 411.146 346.385 411.452 352.739 409.079C359.016 406.706 365.522 403.108 363.149 396.755C360.776 390.478 350.289 386.727 343.4 388.258C335.056 390.171 329.774 398.515 332.147 404.869Z" fill="#FFE3CA"/>
<path d="M367.13 413.442L321.277 407.548L321.966 402.343L367.819 408.237C369.273 408.39 370.268 409.691 370.039 411.146C369.809 412.6 368.508 413.595 367.13 413.442V413.442Z" fill="#F2F2F2"/>
<path d="M327.324 408.313L266.544 400.505C263.023 400.046 260.267 397.367 259.808 393.846L253.454 349.753C252.919 345.849 256.21 342.481 260.114 343.017L315.919 350.213C318.292 350.519 320.129 352.356 320.435 354.652L327.324 408.313V408.313Z" fill="#F2F2F2"/>
<path d="M254.679 524.745L238.91 531.252L228.958 532.017C224.366 532.323 220.538 535.691 219.619 540.131L219.16 542.198L273.204 548.934L274.276 527.194L254.679 524.745V524.745Z" fill="#0B4870"/>
<path d="M274.276 527.194L279.558 503.541L260.038 500.861L254.679 524.745L274.276 527.194Z" fill="#FFE3CA"/>
<path d="M389.788 429.288C389.788 429.288 388.257 442.378 364.757 444.139H308.264L281.624 518.468L253.607 513.951L281.624 404.792L345.849 411.911L389.788 429.288V429.288Z" fill="#0B4870"/>
<path d="M209.439 482.03L192.521 479.504L183.565 474.988C179.431 472.921 174.456 473.839 171.317 477.131L169.863 478.662L212.73 512.191L224.825 494.125L209.439 482.03Z" fill="#0E538C"/>
<path d="M224.978 494.202L239.675 475.524L224.212 463.199L209.438 482.03L224.978 494.202Z" fill="#FFE3CA"/>
<path d="M332.223 406.629L288.667 393.616C286.83 393.08 285.069 392.391 283.232 391.779C279.481 390.324 269.989 388.334 262.64 399.587C253.225 414.055 215.486 468.405 215.486 468.405L238.527 485.399L288.82 421.327C293.03 415.509 299.767 412.064 306.962 412.064L345.849 411.988L332.223 406.629Z" fill="#0E538C"/>
<path d="M388.258 296.934C389.023 295.48 402.496 271.444 390.171 265.396C390.171 265.396 388.564 252.689 374.402 254.067C360.241 255.445 364.068 259.578 355.035 257.512C346.003 255.445 337.506 260.114 338.194 267.693C338.883 275.271 344.625 278.486 355.035 276.649C365.446 274.812 373.713 276.19 373.713 276.19L382.44 278.716L388.258 296.934V296.934Z" fill="#FFBE55"/>
<path d="M389.941 322.961L388.87 292.418L367.742 299.92L369.426 324.416C369.809 330.08 372.948 334.52 378.612 334.137L380.373 334.061C386.037 333.525 390.324 328.626 389.941 322.961Z" fill="#FFE3CA"/>
<path d="M387.033 296.628C387.033 296.628 391.013 322.119 369.273 323.574L368.278 311.479L387.033 296.628Z" fill="#FCD2B1"/>
<path d="M369.121 317.909H369.886C380.756 317.373 389.1 308.187 388.564 297.317L387.492 275.118C387.339 272.286 384.966 270.142 382.134 270.295L356.26 271.52C351.285 271.75 347.381 276.037 347.61 281.012L348.452 299.154C349.065 310.024 358.251 318.368 369.121 317.909Z" fill="#FFE3CA"/>
<path d="M383.588 290.657C383.741 294.332 386.88 297.164 390.554 296.934C394.228 296.781 397.061 293.643 396.831 289.968C396.678 286.294 393.539 283.462 389.865 283.691C386.267 283.844 383.435 286.983 383.588 290.657V290.657Z" fill="#FFE3CA"/>
<path d="M380.449 272.898L381.751 297.623C381.904 299.843 380.985 302.14 379.072 303.364C377.923 304.207 377.005 305.278 374.938 304.972C369.044 304.13 371.799 299.767 359.781 300.379C348.835 300.991 349.677 307.039 349.677 307.039C349.677 307.039 351.82 318.598 366.824 319.134C381.827 319.669 389.329 310.177 387.568 297.547L386.114 271.443L380.449 272.898V272.898Z" fill="#FFBE55"/>
<path d="M348.375 277.108C348.375 277.108 355.341 278.18 365.523 275.73C375.627 273.204 383.665 281.395 383.665 281.395C383.665 281.395 385.808 285.146 386.344 285.069C386.88 284.993 389.942 283.768 389.942 283.768L389.789 272.362L382.363 266.544L361.772 265.702L349.6 268.381L348.375 277.108V277.108Z" fill="#FFBE55"/>
</svg>
