<?xml version="1.0" encoding="utf-8"?>
<!-- Generator: Adobe Illustrator 22.0.1, SVG Export Plug-In . SVG Version: 6.00 Build 0)  -->
<svg version="1.1" id="레이어_1" xmlns="http://www.w3.org/2000/svg" xmlns:xlink="http://www.w3.org/1999/xlink" x="0px"
	 y="0px" viewBox="0 0 920.1 412" style="enable-background:new 0 0 920.1 412;" xml:space="preserve">
<style type="text/css">
	.st0{fill:#E6E6E6;}
	.st1{fill:#CA63FF;}
	.st2{fill:#3F3D56;}
</style>
<path class="st0" d="M436.5,410h195.6c7.7,0,7.7-12,0-12H436.5C428.8,398,428.8,410,436.5,410z"/>
<path class="st1" d="M383.7,149.2H188.8c-4.3,0-7.8,3.5-7.8,7.8v38.7c9.7,0.2,16,8.3,17.6,18v35.1h0.7c0.2,0,0.4,0.2,0.4,0.4v18.7
	c0,0.2-0.2,0.4-0.4,0.4h-0.7v112.9c0,2.5,0,7,0,7h185.2c4.3,0,7.8-3.5,7.8-7.8V157C391.5,152.7,388,149.2,383.7,149.2z"/>
<path class="st1" d="M745.9,21.8v211.9H405v-93.3c0-8.8-7.2-16-16-16h-63.9V21.8H745.9z"/>
<path class="st2" d="M766.9,263.6H405.3v-1.5h360.1V12.6c0-6.1-5-11.1-11.1-11.1H312.1c-6.1,0-11.1,5-11.1,11.1v110.9h-1.5V12.6
	c0-6.9,5.6-12.5,12.6-12.6h442.3c6.9,0,12.5,5.6,12.6,12.6V263.6z"/>
<path class="st2" d="M732.7,308.6H405.3v-1.5h327.3c18.1,0,32.8-14.7,32.8-32.8v-10.8H405.3v-1.5h361.6v12.3
	C766.9,293.3,751.6,308.6,732.7,308.6z"/>
<path class="st2" d="M635.5,381c-18.2-17.5-30.3-40.4-34.1-72.4H466.9c-1.4,29.9-13.3,52.3-34.8,72.3l-2.3,0.1
	c22.2-20.1,34.4-42.7,35.6-73.1l0-0.7h137.2l0.1,0.7c3.8,32.5,16,55.5,34.7,73.1L635.5,381z"/>
<path class="st2" d="M388.6,411.5H181.5V410h207.2c8.8,0,16-7.2,16-16V140.8c0-8.8-7.2-16-16-16H181.5c-8.8,0-16,7.2-16,16v54.7H164
	v-54.7c0-9.6,7.8-17.4,17.5-17.5h207.2c9.6,0,17.4,7.8,17.5,17.5v253.3C406.1,403.7,398.3,411.5,388.6,411.5z"/>
<path class="st2" d="M285,142c-2.8,0-5-2.2-5-5s2.2-5,5-5c2.8,0,5,2.2,5,5C290.1,139.7,287.8,142,285,142z M285,133.1
	c-2.1,0-3.8,1.7-3.8,3.8s1.7,3.8,3.8,3.8s3.8-1.7,3.8-3.8c0,0,0,0,0,0C288.9,134.9,287.2,133.1,285,133.1L285,133.1z"/>
<path class="st2" d="M285,405.9c-3.5,0-6.4-2.9-6.4-6.4c0-3.5,2.9-6.4,6.4-6.4c3.5,0,6.4,2.9,6.4,6.4
	C291.4,403,288.6,405.9,285,405.9z M285,394.6c-2.7,0-4.9,2.2-4.9,4.9s2.2,4.9,4.9,4.9s4.9-2.2,4.9-4.9c0,0,0,0,0,0
	C290,396.8,287.8,394.6,285,394.6z"/>
<path class="st2" d="M179.4,412h-68.6c-10.7,0-19.5-8.7-19.5-19.5V214.9c0-10.7,8.7-19.5,19.5-19.5h68.6c10.7,0,19.5,8.7,19.5,19.5
	v31.8c0.7,0.3,1.2,1,1.2,1.8l0,20.7c0,0.8-0.5,1.5-1.2,1.8v121.6C198.8,403.2,190.1,411.9,179.4,412z M110.8,196.9
	c-9.9,0-18,8.1-18,18v177.6c0,9.9,8.1,18,18,18h68.6c9.9,0,18-8.1,18-18V269.6h0.7c0.2,0,0.4-0.2,0.4-0.4l0-20.7
	c0-0.2-0.2-0.4-0.4-0.4h-0.7v-33.1c0-9.9-8.1-18-18-18H110.8z"/>
<path class="st1" d="M180.1,201h-9c1.4,3.4-0.2,7.3-3.6,8.7c-0.8,0.3-1.6,0.5-2.5,0.5h-39.3c-3.7,0-6.6-3-6.6-6.6
	c0-0.9,0.2-1.7,0.5-2.5h-8.4c-7.7,0-14,6.3-14,14v177.3c0,7.7,6.3,14,14,14c0,0,0,0,0,0h68.9c7.7,0,14-6.3,14-14l0,0l0,0V215
	C194.1,207.3,187.9,201,180.1,201z"/>
<path class="st2" d="M919.2,411.7H0.9c-0.5,0-0.9-0.4-0.9-0.9s0.4-0.9,0.9-0.9c0,0,0,0,0,0h918.4c0.5,0,0.9,0.4,0.9,0.9
	S919.7,411.7,919.2,411.7C919.2,411.7,919.2,411.7,919.2,411.7z"/>
<path class="st2" d="M636,411.2H431.5c-8.6,0-15.5-6.9-15.5-15.5c0-8.6,6.9-15.5,15.5-15.5H636c8.6,0,15.5,6.9,15.5,15.5
	C651.5,404.3,644.6,411.2,636,411.2z M431.5,381.7c-7.7,0-14,6.3-14,14s6.3,14,14,14l0,0H636c7.7,0,14-6.3,14-14s-6.3-14-14-14
	H431.5z"/>
</svg>
