<?xml version="1.0" encoding="utf-8"?>
<!-- Generator: Adobe Illustrator 22.0.1, SVG Export Plug-In . SVG Version: 6.00 Build 0)  -->
<svg version="1.1" id="Layer_1" xmlns="http://www.w3.org/2000/svg" xmlns:xlink="http://www.w3.org/1999/xlink" x="0px" y="0px"
	 viewBox="0 0 800 600" style="enable-background:new 0 0 800 600;" xml:space="preserve">
<style type="text/css">
	.st0{fill:#BB81C1;}
</style>
<rect x="545" y="252.8" class="st0" width="164" height="102"/>
<rect x="318.7" y="187.8" class="st0" width="201" height="114.2"/>
<rect x="199.7" y="233.5" class="st0" width="96" height="125.6"/>
<rect x="142.7" y="281" class="st0" width="45" height="80"/>
<title>Apple Icon Set</title>
<desc>Created with Sketch.</desc>
<g id="iMac" transform="translate(528.000000, 365.000000)">
	<path id="apple_logo" d="M-107.1-45.9c0.5-0.5,0.8-1.3,0.7-2.1c-0.7,0-1.4,0.4-1.9,1c-0.4,0.5-0.8,1.3-0.7,2
		C-108.3-44.9-107.6-45.4-107.1-45.9 M-104.6-36.6c-0.5,0.8-1.1,1.6-2,1.6s-1.1-0.5-2.1-0.5s-1.3,0.5-2.1,0.5
		c-0.9,0-1.5-0.9-2.1-1.6c-1.1-1.6-2-4.6-0.8-6.5c0.6-1,1.6-1.6,2.7-1.6c0.8,0,1.6,0.6,2.1,0.6s1.5-0.7,2.5-0.6
		c0.4,0,1.6,0.2,2.4,1.3c-0.1,0-1.4,0.8-1.4,2.5c0,2,1.7,2.6,1.7,2.6C-103.7-38.4-104-37.5-104.6-36.6z"/>
	<path id="Rectangle-18" d="M-213.3-187.5h208c4.1,0,7.5,3.4,7.5,7.5v144c0,4.1-3.4,7.5-7.5,7.5h-208c-4.1,0-7.5-3.4-7.5-7.5v-144
		C-220.8-184.1-217.4-187.5-213.3-187.5z M-221.8-36c0,4.7,3.8,8.5,8.5,8.5h208c4.7,0,8.5-3.8,8.5-8.5v-144c0-4.7-3.8-8.5-8.5-8.5
		h-208c-4.7,0-8.5,3.8-8.5,8.5V-36z"/>
	<polygon id="Line" points="-220.9,-54 -221.4,-53 2.2,-53 2.7,-54 	"/>
	<path id="Rectangle-19" d="M-8.3-176.8L-8.5-63l-200.8-0.2l0.2-113.8L-8.3-176.8z M-209.5-63l201.2,0.2L-8.1-177l-201.2-0.2
		L-209.5-63z"/>
	<path id="Path" d="M-147.3,8h75.8c1.1,0,2.2-0.9,2.2-2V3c0-0.6-0.4-0.9-0.9-1c-0.2,0-0.4,0-0.6,0l0.1,1c0.1,0,0.2,0,0.3,0
		s0.1,3,0.1,3c0,0.5-0.6,1-1.2,1h-75.8c-0.5,0-1-0.5-1-1h-1C-149.3,7.1-148.4,8-147.3,8z"/>
	<path id="Path_1_" d="M-71.3,7h-75.8c-0.6,0-1.2-0.5-1.2-1V3c0.2,0,0.3,0,0.4,0l0.2-1c-0.3,0-0.5,0-0.7,0c-0.5,0.1-0.9,0.4-0.9,1v3
		c0,1.1,1.1,2,2.2,2h75.8c1.1,0,2-0.9,2-2h-1C-70.3,6.5-70.8,7-71.3,7z"/>
	<path id="Path_2_" d="M-133.3-27.7c0,0.2,0,0.5,0,0.8c0,0.9-0.1,1.9-0.1,3c-0.2,3.1-0.4,6.1-0.8,9c-0.6,4.2-1.4,7.5-2.5,9.8
		c-0.3,0.5-1.6,1.5-3.6,2.7c-0.6,0.3-1.2,0.7-1.8,1c-1.2,0.7-2.6,1.3-3.9,2c-0.5,0.2-0.9,0.4-1.3,0.6c-0.2,0.1-0.4,0.2-0.5,0.2
		c-2,0.9-1.7,2.2,0.5,2.2h76c2.2,0,2.5-1.3,0.5-2.2c-0.1,0-0.3-0.1-0.5-0.2c-0.4-0.2-0.8-0.4-1.3-0.6c-1.3-0.6-2.7-1.3-3.9-1.9
		c-0.8-0.4-1.5-0.8-2.1-1.2c-1.9-1.1-3-2-3.3-2.6c-1-2.2-1.7-5.6-2.1-9.9c-0.4-4-0.5-8.2-0.4-12c0-0.5,0-0.8,0-1h-1c0,0.2,0,0.5,0,1
		c-0.1,3.8,0,8,0.4,12.1c0.4,4.4,1.1,7.9,2.2,10.2c0.4,0.8,1.7,1.8,3.7,3c0.6,0.4,1.4,0.8,2.1,1.2c1.3,0.7,2.6,1.3,3.9,2
		c0.5,0.2,0.9,0.4,1.3,0.6c0.2,0.1,0.4,0.2,0.5,0.2c0.3,0.1,0.6,0.3,0.7,0.4c0.1-0.2,0.1-0.2,0-0.2c-0.2,0-0.4,0.1-0.8,0.1h-76
		c-0.4,0-0.6,0-0.8-0.1c-0.1,0,0,0,0,0.1c0.2,0,0.4-0.2,0.8-0.3c0.1,0,0.3-0.1,0.5-0.2c0.4-0.2,0.8-0.4,1.3-0.6
		c1.3-0.6,2.7-1.3,3.9-2c0.6-0.3,1.3-0.7,1.8-1c2.2-1.3,3.6-2.3,4-3.1c1.1-2.3,2-5.8,2.6-10.1c0.4-2.9,0.7-6,0.8-9
		c0.1-1.1,0.1-2.1,0.1-3c0-0.3,0-0.6,0-0.8c0-0.1,0-0.2,0-0.3h-1C-133.3-28-133.3-27.9-133.3-27.7z"/>
	<path id="Oval" d="M-108.3-181c0.6,0,1-0.4,1-1s-0.4-1-1-1s-1,0.4-1,1S-108.9-181-108.3-181z"/>
</g>
<g id="Mac-mini" transform="translate(304.000000, 426.000000)">
	<path id="Rectangle-17" d="M-226.6-123h44c6.9,0,12.5,5.6,12.5,12.5v44c0,6.9-5.6,12.5-12.5,12.5h-44c-6.9,0-12.5-5.6-12.5-12.5
		v-44C-239.1-117.4-233.5-123-226.6-123z M-240.1-66.5c0,7.5,6,13.5,13.5,13.5h44c7.5,0,13.5-6,13.5-13.5v-44
		c0-7.5-6-13.5-13.5-13.5h-44c-7.5,0-13.5,6-13.5,13.5V-66.5z"/>
	<path id="apple_logo_1_" d="M-201.7-96.5c0.7-0.8,1.1-1.9,1-3c-1,0-2.1,0.6-2.8,1.4c-0.6,0.7-1.2,1.8-1,2.9
		C-203.5-95-202.4-95.7-201.7-96.5 M-198.1-82.9c-0.8,1.2-1.6,2.3-2.9,2.3s-1.7-0.8-3.1-0.8c-1.5,0-1.9,0.7-3.1,0.8
		c-1.3,0-2.2-1.3-3-2.4c-1.6-2.4-2.9-6.7-1.2-9.6c0.8-1.4,2.3-2.4,3.9-2.4c1.2,0,2.4,0.8,3.1,0.8c0.8,0,2.2-1,3.6-0.9
		c0.6,0,2.4,0.3,3.5,1.9c-0.1,0.1-2.1,1.2-2.1,3.6c0,2.9,2.5,3.8,2.6,3.8C-196.8-85.5-197.2-84.2-198.1-82.9z"/>
</g>
<g id="Macbook" transform="translate(304.000000, 284.000000)">
	<path id="Rectangle-13_3_" d="M340,82.5l-0.2-0.2v1.5c0,0.7-0.6,1.3-1.3,1.3h-32c-0.7,0-1.3-0.6-1.3-1.3v-1.5l-0.2,0.2H340z
		 M304.8,82.1v0.2v1.5c0,0.9,0.8,1.7,1.7,1.7h32c0.9,0,1.7-0.8,1.7-1.7v-1.5v-0.2H340h-35H304.8z"/>
	<path id="Rectangle-11_2_" d="M405-39.7c4.1,0,7.5,3.4,7.5,7.5v106c0,4.1-3.4,7.5-7.5,7.5c-0.3,0-0.5,0.2-0.5,0.5s0.2,0.5,0.5,0.5
		c4.7,0,8.5-3.8,8.5-8.5v-106c0-4.7-3.8-8.5-8.5-8.5h-10c-0.3,0-0.5,0.2-0.5,0.5s0.2,0.5,0.5,0.5H405z"/>
	<path id="Rectangle-11_3_" d="M240-40.7c-4.7,0-8.5,3.8-8.5,8.5v106c0,4.7,3.8,8.5,8.5,8.5c0.3,0,0.5-0.2,0.5-0.5s-0.2-0.5-0.5-0.5
		c-4.1,0-7.5-3.4-7.5-7.5v-106c0-4.1,3.4-7.5,7.5-7.5h10c0.3,0,0.5-0.2,0.5-0.5s-0.2-0.5-0.5-0.5H240z"/>
	<polygon id="Rectangle-14_1_" points="239,81.3 405,81.3 405,82.3 239,82.3 	"/>
	<path id="Rectangle-12_1_" d="M405-31l-0.2,101.8L241,70.6l0.2-101.8L405-31z M240.8,70.8L405,71l0.2-102.2L241-31.4L240.8,70.8z"
		/>
	<path id="Path-9_1_" d="M217.4,81.3c-2.3,0-2.6,1.3-0.4,2.2c0,0,0.1,0.1,0.3,0.1c0.2,0.1,0.5,0.2,0.8,0.3c0.9,0.4,1.9,0.7,2.9,1.1
		c2.4,0.9,4.8,1.6,7,2.3c0.9,0.3,2,0.5,3,0.7c2.1,0.4,4.3,0.6,6.6,0.7c0.8,0,1.5,0.1,2.2,0.1c0.4,0,0.7,0,0.8,0
		c0.3,0,0.5-0.2,0.5-0.5s-0.2-0.5-0.5-0.5c-0.1,0-0.4,0-0.8,0c-0.6,0-1.4,0-2.1-0.1c-2.2-0.1-4.4-0.4-6.5-0.7c-1.1-0.2-2-0.4-3-0.7
		c-2.2-0.6-4.5-1.4-6.9-2.2c-1-0.4-2-0.7-2.9-1.1c-0.3-0.1-0.6-0.2-0.8-0.3c-0.1-0.1-0.2-0.1-0.3-0.1c-0.4-0.2-0.7-0.3-0.8-0.4
		c-0.1,0,0,0-0.1,0.1c0,0.1,0,0.1,0,0.1c0.2-0.1,0.5-0.1,0.9-0.1h22.1c0.3,0,0.5-0.2,0.5-0.5s-0.2-0.5-0.5-0.5H217.4z"/>
	<path id="Path-9-Copy_1_" d="M427.3,82.3c0.4,0,0.7,0,0.9,0.1c0.1,0,0,0,0-0.1s0-0.2-0.1-0.1c-0.2,0.1-0.4,0.3-0.8,0.4
		c-0.1,0-0.2,0.1-0.3,0.1c-0.2,0.1-0.5,0.2-0.8,0.3c-0.9,0.3-1.9,0.7-2.9,1.1c-2.4,0.9-4.7,1.6-6.9,2.2c-0.9,0.2-1.9,0.5-3,0.7
		c-2.1,0.4-4.3,0.6-6.5,0.7c-0.8,0-1.5,0.1-2.1,0.1c-0.4,0-0.7,0-0.8,0c-0.3,0-0.5,0.2-0.5,0.5s0.2,0.5,0.5,0.5c0.2,0,0.4,0,0.8,0
		c0.7,0,1.4,0,2.2-0.1c2.2-0.1,4.5-0.4,6.6-0.7c1.1-0.2,2.1-0.4,3-0.7c2.2-0.6,4.6-1.4,7-2.3c1-0.4,2-0.8,2.9-1.1
		c0.3-0.1,0.6-0.2,0.8-0.3c0.1-0.1,0.2-0.1,0.3-0.1c2.2-0.9,1.9-2.2-0.4-2.2h-21.8c-0.3,0-0.5,0.2-0.5,0.5s0.2,0.5,0.5,0.5H427.3z"
		/>
	<rect id="Rectangle-15_3_" x="240" y="87.8" width="165" height="1"/>
	<rect id="Rectangle-15-Copy_1_" x="240" y="-40.7" width="165" height="1"/>
	<path id="Oval_2_" d="M323-34.2c0.6,0,1-0.4,1-1s-0.4-1-1-1s-1,0.4-1,1S322.4-34.2,323-34.2z"/>
</g>
<g id="iPad" transform="translate(203.000000, 119.000000)">
	<path id="Combined-Shape_1_" d="M48.7,246.5c0-2.2-1.8-4-4-4s-4,1.8-4,4s1.8,4,4,4S48.7,248.7,48.7,246.5z M41.7,246.5
		c0-1.7,1.3-3,3-3s3,1.3,3,3s-1.3,3-3,3S41.7,248.2,41.7,246.5z M-3.3,114.9l0.4-0.4v126l-0.4-0.4h96l-0.4,0.4v-126l0.4,0.4H-3.3z
		 M92.7,114.5v126h-96v-126H92.7z M-8.3,248.5c0,2.2,1.8,4,4,4h98c2.2,0,4-1.8,4-4v-142c0-2.2-1.8-4-4-4h-98c-2.2,0-4,1.8-4,4V248.5
		z M-4.3,101.5h98c2.8,0,5,2.2,5,5v142c0,2.8-2.2,5-5,5h-98c-2.8,0-5-2.2-5-5v-142C-9.3,103.7-7.1,101.5-4.3,101.5z M45.7,109.5
		c0.6,0,1-0.4,1-1s-0.4-1-1-1s-1,0.4-1,1S45.1,109.5,45.7,109.5z"/>
</g>
<g id="iPhone-Front" transform="translate(51.000000, 165.000000)">
	<path id="Combined-Shape_5_" d="M91.7,116.4l0.4-0.4v80l-0.4-0.4h45l-0.4,0.4v-80l0.4,0.4H91.7z M136.7,116v80h-45v-80H136.7z
		 M104.7,111c0.6,0,1-0.4,1-1s-0.4-1-1-1s-1,0.4-1,1S104.1,111,104.7,111z M113.2,108c0.3,0,0.5-0.2,0.5-0.5s-0.2-0.5-0.5-0.5
		s-0.5,0.2-0.5,0.5S112.9,108,113.2,108z M108.7,110.5c0-0.3,0.2-0.5,0.5-0.5h8c0.3,0,0.5,0.2,0.5,0.5l0,0c0,0.3-0.2,0.5-0.5,0.5h-8
		C108.9,111,108.7,110.8,108.7,110.5L108.7,110.5z M117.2,201.5c0-2.2-1.8-4-4-4s-4,1.8-4,4s1.8,4,4,4S117.2,203.7,117.2,201.5z
		 M110.2,201.5c0-1.7,1.3-3,3-3s3,1.3,3,3s-1.3,3-3,3S110.2,203.2,110.2,201.5z M89.7,200c0,3.9,3.1,7,7,7h34c3.9,0,7-3.1,7-7v-90
		c0-3.9-3.1-7-7-7h-34c-3.9,0-7,3.1-7,7V200z M96.7,102h34c4.4,0,8,3.6,8,8v90c0,4.4-3.6,8-8,8h-34c-4.4,0-8-3.6-8-8v-90
		C88.7,105.6,92.3,102,96.7,102z M87.7,116.5c0-0.3,0.2-0.5,0.5-0.5h0.5v4h-0.5c-0.3,0-0.5-0.2-0.5-0.5V116.5L87.7,116.5L87.7,116.5
		z M87.7,125.5c0-0.3,0.2-0.5,0.5-0.5h0.5v8h-0.5c-0.3,0-0.5-0.2-0.5-0.5V125.5L87.7,125.5L87.7,125.5z M87.7,135.5
		c0-0.3,0.2-0.5,0.5-0.5h0.5v8h-0.5c-0.3,0-0.5-0.2-0.5-0.5V135.5L87.7,135.5L87.7,135.5z"/>
</g>
</svg>
