<?xml version="1.0" encoding="utf-8"?>
<!-- Generator: Adobe Illustrator 22.0.1, SVG Export Plug-In . SVG Version: 6.00 Build 0)  -->
<svg version="1.1" id="레이어_1" xmlns="http://www.w3.org/2000/svg" xmlns:xlink="http://www.w3.org/1999/xlink" x="0px"
	 y="0px" viewBox="0 0 1100.5 691.7" style="enable-background:new 0 0 1100.5 691.7;" xml:space="preserve">
<style type="text/css">
	.st0{fill:#3F3D56;}
	.st1{fill:#D0CDE1;}
	.st2{fill:#CA63FF;}
	.st3{opacity:0.1;enable-background:new    ;}
</style>
<title>two_factor_authentication</title>
<path class="st0" d="M984.5,284.1h-1.9v-50.9c0-16.3-13.2-29.5-29.5-29.5h0H845.3c-16.3,0-29.5,13.2-29.5,29.5c0,0,0,0,0,0v279.3
	c0,16.3,13.2,29.5,29.5,29.5c0,0,0,0,0,0h107.9c16.3,0,29.5-13.2,29.5-29.5c0,0,0,0,0,0V320.3h1.9V284.1z"/>
<path class="st1" d="M976.4,234.9v278.9c0,12.2-9.9,22-22,22H846c-12.2,0-22-9.9-22-22c0,0,0,0,0,0V234.9c0-12.2,9.8-22,22-22h13.2
	c-2.2,5.4,0.4,11.5,5.8,13.6c1.2,0.5,2.6,0.8,3.9,0.8h61.8c5.8,0,10.4-4.7,10.5-10.4c0-1.4-0.3-2.7-0.8-4h14.1
	C966.5,212.9,976.4,222.8,976.4,234.9z"/>
<rect x="829.9" y="355.7" class="st2" width="126" height="34"/>
<path class="st0" d="M960.9,383.7h-122c-1.7,0-3-1.3-3-3v-30c0-1.7,1.3-3,3-3h122c1.7,0,3,1.3,3,3v30
	C963.8,382.4,962.5,383.7,960.9,383.7z M838.9,349.7c-0.6,0-1,0.4-1,1v30c0,0.6,0.4,1,1,1h122c0.6,0,1-0.4,1-1v-30c0-0.6-0.4-1-1-1
	H838.9z"/>
<rect x="843.9" y="374.7" class="st0" width="16" height="2"/>
<rect x="865.9" y="374.7" class="st0" width="16" height="2"/>
<path class="st0" d="M659.1,680.1H220c-6.6,0-12-5.4-12-12V383.8c0-6.6,5.4-12,12-12h439.1c6.6,0,12,5.4,12,12v284.3
	C671.1,674.7,665.7,680.1,659.1,680.1z"/>
<rect x="887.9" y="374.7" class="st0" width="16" height="2"/>
<rect x="909.9" y="374.7" class="st0" width="16" height="2"/>
<rect x="931.9" y="374.7" class="st0" width="16" height="2"/>
<path class="st3" d="M976.4,485.5v28.4c0,12.2-9.9,22-22,22H846c-12.2,0-22-9.9-22-22c0,0,0,0,0,0V383.4L976.4,485.5z"/>
<rect x="222.4" y="389.7" class="st1" width="434.6" height="276.3"/>
<path class="st3" d="M625.1,666H220c-1.3,0-2.3-1.1-2.3-2.4V394.2c0-1.3,1-2.4,2.3-2.4h5.1L625.1,666z"/>
<rect x="539.8" y="451.3" class="st0" width="399.1" height="2"/>
<path class="st0" d="M550.6,4.3H341.1V0h-95v4.3H35.8c-7.8,0-14.2,6.3-14.2,14.2c0,0,0,0,0,0v286.9c0,7.8,6.3,14.2,14.2,14.2h514.8
	c7.8,0,14.2-6.3,14.2-14.2V18.5C564.8,10.7,558.4,4.3,550.6,4.3C550.6,4.3,550.6,4.3,550.6,4.3z"/>
<rect x="40.6" y="29.4" class="st1" width="505.2" height="285"/>
<circle class="st2" cx="292.7" cy="16.4" r="5.2"/>
<path class="st0" d="M190.9,135.7h-12c-1.7,0-3-1.3-3-3v-12c0-1.7,1.3-3,3-3h12c1.7,0,3,1.3,3,3v12
	C193.8,134.4,192.5,135.7,190.9,135.7z M178.9,119.7c-0.6,0-1,0.4-1,1v12c0,0.6,0.4,1,1,1h12c0.6,0,1-0.4,1-1v-12c0-0.6-0.4-1-1-1
	H178.9z"/>
<rect x="176.9" y="133.7" class="st0" width="228" height="2"/>
<rect x="345.9" y="188.7" class="st2" width="53" height="16"/>
<path class="st0" d="M402.9,200.7h-49c-1.7,0-3-1.3-3-3v-12c0-1.7,1.3-3,3-3h49c1.7,0,3,1.3,3,3v12
	C405.8,199.4,404.5,200.7,402.9,200.7z M353.9,184.7c-0.6,0-1,0.4-1,1v12c0,0.6,0.4,1,1,1h49c0.6,0,1-0.4,1-1v-12c0-0.6-0.4-1-1-1
	H353.9z"/>
<rect x="392.9" y="564.3" class="st0" width="16" height="2"/>
<rect x="414.9" y="564.3" class="st0" width="16" height="2"/>
<rect x="436.9" y="564.3" class="st0" width="16" height="2"/>
<rect x="458.9" y="564.3" class="st0" width="16" height="2"/>
<rect x="480.9" y="564.3" class="st0" width="16" height="2"/>
<path class="st0" d="M657.9,670.3H221.4c-2.1,0-3.7-2.2-3.7-4.8V391.8c0-2.7,1.7-4.8,3.7-4.8h436.6c2.1,0,3.7,2.2,3.7,4.8v273.7
	C661.7,668.2,660,670.3,657.9,670.3z M221.4,391.8v273.7h436.6l0-273.7H221.4z"/>
<circle class="st0" cx="234.4" cy="519.3" r="6"/>
<circle class="st0" cx="234.4" cy="555.8" r="6"/>
<circle class="st0" cx="234.4" cy="537.5" r="6"/>
<path class="st0" d="M512.6,577.5l-135,1.5c-1.7,0-3-1.3-3-3l-0.4-34c0-1.7,1.3-3,3-3l135-1.5c1.7,0,3,1.3,3,3l0.4,34
	C515.6,576.2,514.3,577.5,512.6,577.5z M377.2,541c-0.6,0-1,0.5-1,1l0.4,34c0,0.6,0.5,1,1,1l135-1.5c0.6,0,1-0.5,1-1l-0.4-34
	c0-0.6-0.5-1-1-1L377.2,541z"/>
<circle class="st2" cx="546.4" cy="561.3" r="18"/>
<path class="st0" d="M552.4,577.3c-10.5,0-19-8.5-19-19s8.5-19,19-19s19,8.5,19,19l0,0C571.4,568.8,562.9,577.3,552.4,577.3z
	 M552.4,541.3c-9.4,0-17,7.6-17,17c0,9.4,7.6,17,17,17s17-7.6,17-17C569.4,548.9,561.8,541.3,552.4,541.3z"/>
<polygon class="st0" points="552.7,565.4 543,555.7 545.8,552.9 552.1,559.2 569.8,534.1 573,536.4 "/>
<polygon class="st3" points="433.8,314.3 40.6,314.3 40.6,50.9 "/>
<path class="st0" d="M578.9,309.2h-49.3v-3.6c0-0.4-0.3-0.7-0.7-0.7H512c-0.4,0-0.7,0.3-0.7,0.7c0,0,0,0,0,0v3.6h-10.6v-3.6
	c0-0.4-0.3-0.7-0.7-0.7h0h-16.9c-0.4,0-0.7,0.3-0.7,0.7c0,0,0,0,0,0v3.6h-10.6v-3.6c0-0.4-0.3-0.7-0.7-0.7l0,0h-16.9
	c-0.4,0-0.7,0.3-0.7,0.7l0,0v3.6H443v-3.6c0-0.4-0.3-0.7-0.7-0.7l0,0h-16.9c-0.4,0-0.7,0.3-0.7,0.7c0,0,0,0,0,0v3.6h-10.6v-3.6
	c0-0.4-0.3-0.7-0.7-0.7l0,0h-16.9c-0.4,0-0.7,0.3-0.7,0.7l0,0v3.6h-10.6v-3.6c0-0.4-0.3-0.7-0.7-0.7c0,0,0,0,0,0h-16.9
	c-0.4,0-0.7,0.3-0.7,0.7l0,0v3.6h-10.6v-3.6c0-0.4-0.3-0.7-0.7-0.7l0,0H223.3c-0.4,0-0.7,0.3-0.7,0.7l0,0v3.6H212v-3.6
	c0-0.4-0.3-0.7-0.7-0.7h0h-16.9c-0.4,0-0.7,0.3-0.7,0.7c0,0,0,0,0,0v3.6h-10.6v-3.6c0-0.4-0.3-0.7-0.7-0.7c0,0,0,0,0,0h-16.9
	c-0.4,0-0.7,0.3-0.7,0.7l0,0v3.6h-10.6v-3.6c0-0.4-0.3-0.7-0.7-0.7c0,0,0,0,0,0h-16.9c-0.4,0-0.7,0.3-0.7,0.7l0,0v3.6h-10.6v-3.6
	c0-0.4-0.3-0.7-0.7-0.7c0,0,0,0,0,0h-16.9c-0.4,0-0.7,0.3-0.7,0.7l0,0v3.6H96.5v-3.6c0-0.4-0.3-0.7-0.7-0.7c0,0,0,0,0,0H78.9
	c-0.4,0-0.7,0.3-0.7,0.7l0,0v3.6H67.6v-3.6c0-0.4-0.3-0.7-0.7-0.7c0,0,0,0,0,0H50c-0.4,0-0.7,0.3-0.7,0.7l0,0v3.6H16.9
	c-9.3,0-16.9,7.6-16.9,16.9v7.6c0,9.3,7.6,16.9,16.9,16.9h562c9.3,0,16.9-7.6,16.9-16.9v-7.6C595.9,316.7,588.3,309.2,578.9,309.2
	C578.9,309.2,578.9,309.2,578.9,309.2z"/>
<path class="st0" d="M424.9,217.7h-264c-1.7,0-3-1.3-3-3v-110c0-1.7,1.3-3,3-3h264c1.7,0,3,1.3,3,3v110
	C427.8,216.4,426.5,217.7,424.9,217.7z M160.9,103.7c-0.6,0-1,0.4-1,1v110c0,0.6,0.4,1,1,1h264c0.6,0,1-0.4,1-1v-110
	c0-0.6-0.4-1-1-1H160.9z"/>
<path class="st0" d="M190.9,165.7h-12c-1.7,0-3-1.3-3-3v-12c0-1.7,1.3-3,3-3h12c1.7,0,3,1.3,3,3v12
	C193.8,164.4,192.5,165.7,190.9,165.7z M178.9,149.7c-0.6,0-1,0.4-1,1v12c0,0.6,0.4,1,1,1h12c0.6,0,1-0.4,1-1v-12c0-0.6-0.4-1-1-1
	H178.9z"/>
<rect x="176.9" y="163.7" class="st0" width="228" height="2"/>
<rect x="264.9" y="269.7" class="st0" width="617" height="2"/>
<circle class="st0" cx="264.9" cy="269.7" r="14"/>
<circle class="st0" cx="881.9" cy="271.7" r="11"/>
<circle class="st0" cx="938.9" cy="452.3" r="11"/>
<circle class="st0" cx="539.8" cy="453.3" r="11"/>
</svg>
