<svg width="246" height="350" viewBox="0 0 246 350" fill="none" xmlns="http://www.w3.org/2000/svg">
<g filter="url(#filter0_d_47_12692)">
<mask id="path-1-inside-1_47_12692" fill="white">
<path fill-rule="evenodd" clip-rule="evenodd" d="M15 31C15 19.9543 23.9543 11 35 11H211C222.046 11 231 19.9543 231 31V181C231 182.105 230.096 182.979 229.013 183.197C224.442 184.119 221 188.158 221 193C221 197.842 224.442 201.881 229.013 202.803C230.096 203.021 231 203.895 231 205V311C231 322.046 222.046 331 211 331H35C23.9543 331 15 322.046 15 311V205C15 203.895 15.9045 203.021 16.9872 202.803C21.5581 201.881 25 197.842 25 193C25 188.158 21.5581 184.119 16.9872 183.197C15.9045 182.979 15 182.105 15 181V31Z"/>
</mask>
<path fill-rule="evenodd" clip-rule="evenodd" d="M15 31C15 19.9543 23.9543 11 35 11H211C222.046 11 231 19.9543 231 31V181C231 182.105 230.096 182.979 229.013 183.197C224.442 184.119 221 188.158 221 193C221 197.842 224.442 201.881 229.013 202.803C230.096 203.021 231 203.895 231 205V311C231 322.046 222.046 331 211 331H35C23.9543 331 15 322.046 15 311V205C15 203.895 15.9045 203.021 16.9872 202.803C21.5581 201.881 25 197.842 25 193C25 188.158 21.5581 184.119 16.9872 183.197C15.9045 182.979 15 182.105 15 181V31Z" fill="white"/>
<path d="M16.9872 183.197L15.0107 193L16.9872 183.197ZM16.9872 202.803L15.0107 193L16.9872 202.803ZM229.013 202.803L227.036 212.605L229.013 202.803ZM229.013 183.197L230.989 193L229.013 183.197ZM35 1C18.4315 1 5 14.4315 5 31H25C25 25.4772 29.4772 21 35 21V1ZM211 1H35V21H211V1ZM241 31C241 14.4315 227.569 1 211 1V21C216.523 21 221 25.4772 221 31H241ZM241 181V31H221V181H241ZM231 193C231 192.994 231 192.99 231 192.988C231.001 192.987 231.001 192.987 231 192.988C231 192.991 230.999 192.995 230.997 193C230.994 193.009 230.992 193.009 230.996 193.004C230.998 193.002 231.001 192.999 231.003 192.997C231.004 192.996 231.005 192.995 231.006 192.995C231.007 192.994 231.007 192.994 231.007 192.994C231.007 192.994 231.005 192.995 231.001 192.997C230.997 192.998 230.993 192.999 230.989 193L227.036 173.395C217.89 175.239 211 183.304 211 193H231ZM230.989 193C230.993 193.001 230.997 193.002 231.001 193.003C231.005 193.005 231.007 193.006 231.007 193.006C231.007 193.006 231.007 193.006 231.006 193.005C231.005 193.005 231.004 193.004 231.003 193.003C231.001 193.001 230.998 192.998 230.996 192.996C230.992 192.991 230.994 192.991 230.997 193C230.999 193.005 231 193.009 231 193.012C231.001 193.013 231.001 193.013 231 193.012C231 193.01 231 193.006 231 193H211C211 202.696 217.89 210.761 227.036 212.605L230.989 193ZM241 311V205H221V311H241ZM211 341C227.569 341 241 327.569 241 311H221C221 316.523 216.523 321 211 321V341ZM35 341H211V321H35V341ZM5 311C5 327.569 18.4315 341 35 341V321C29.4772 321 25 316.523 25 311H5ZM5 205V311H25V205H5ZM15 193C15 193.006 14.9997 193.01 14.9996 193.012C14.9995 193.013 14.9994 193.013 14.9996 193.012C15.0001 193.009 15.0012 193.005 15.0029 193C15.0061 192.991 15.008 192.991 15.0037 192.996C15.0017 192.998 14.9993 193.001 14.9968 193.003C14.9955 193.004 14.9945 193.005 14.9938 193.005C14.993 193.006 14.9926 193.006 14.9926 193.006C14.9927 193.006 14.9947 193.005 14.9986 193.003C15.0027 193.002 15.0071 193.001 15.0107 193L18.9637 212.605C28.1097 210.761 35 202.696 35 193H15ZM15.0107 193C15.0071 192.999 15.0027 192.998 14.9986 192.997C14.9947 192.995 14.9927 192.994 14.9926 192.994C14.9926 192.994 14.993 192.994 14.9938 192.995C14.9945 192.995 14.9955 192.996 14.9968 192.997C14.9993 192.999 15.0017 193.002 15.0037 193.004C15.008 193.009 15.0061 193.009 15.0029 193C15.0012 192.995 15.0001 192.991 14.9996 192.988C14.9994 192.987 14.9995 192.987 14.9996 192.988C14.9997 192.99 15 192.994 15 193H35C35 183.304 28.1097 175.239 18.9637 173.395L15.0107 193ZM5 31V181H25V31H5ZM18.9637 173.395C21.3298 173.872 25 176.202 25 181H5C5 188.007 10.4791 192.086 15.0107 193L18.9637 173.395ZM25 205C25 209.798 21.3298 212.128 18.9637 212.605L15.0107 193C10.4791 193.914 5 197.993 5 205H25ZM227.036 212.605C224.67 212.128 221 209.798 221 205H241C241 197.993 235.521 193.914 230.989 193L227.036 212.605ZM221 181C221 176.202 224.67 173.872 227.036 173.395L230.989 193C235.521 192.086 241 188.007 241 181H221Z" fill="#2672FF" mask="url(#path-1-inside-1_47_12692)"/>
<path d="M35.696 35.16C35.696 34.8613 35.76 34.5973 35.888 34.368C36.016 34.1387 36.1893 33.96 36.408 33.832C36.632 33.6987 36.8827 33.632 37.16 33.632C37.3573 33.632 37.5413 33.6613 37.712 33.72C37.8827 33.7787 38.0293 33.8533 38.152 33.944C38.28 34.0347 38.3707 34.1307 38.424 34.232V33.712C38.312 33.584 38.1387 33.4747 37.904 33.384C37.6747 33.288 37.4267 33.24 37.16 33.24C36.8027 33.24 36.4827 33.3227 36.2 33.488C35.9173 33.6533 35.6907 33.88 35.52 34.168C35.3547 34.456 35.272 34.7867 35.272 35.16C35.272 35.528 35.3547 35.8587 35.52 36.152C35.6907 36.44 35.9173 36.6667 36.2 36.832C36.4827 36.9973 36.8027 37.08 37.16 37.08C37.4267 37.08 37.6747 37.0347 37.904 36.944C38.1387 36.8533 38.312 36.7413 38.424 36.608V36.088C38.3707 36.184 38.28 36.28 38.152 36.376C38.0293 36.4667 37.8827 36.5413 37.712 36.6C37.5413 36.6587 37.3573 36.688 37.16 36.688C36.8827 36.688 36.632 36.624 36.408 36.496C36.1893 36.3627 36.016 36.1813 35.888 35.952C35.76 35.7227 35.696 35.4587 35.696 35.16ZM47.3314 30.76V37H47.7474V30.76H47.3314ZM56.5311 35.16C56.5311 35.528 56.6137 35.8587 56.7791 36.152C56.9444 36.44 57.1684 36.6667 57.4511 36.832C57.7391 36.9973 58.0617 37.08 58.4191 37.08C58.7764 37.08 59.0964 36.9973 59.3791 36.832C59.6671 36.6667 59.8937 36.44 60.0591 36.152C60.2244 35.8587 60.3071 35.528 60.3071 35.16C60.3071 34.7867 60.2244 34.456 60.0591 34.168C59.8937 33.88 59.6671 33.6533 59.3791 33.488C59.0964 33.3227 58.7764 33.24 58.4191 33.24C58.0617 33.24 57.7391 33.3227 57.4511 33.488C57.1684 33.6533 56.9444 33.88 56.7791 34.168C56.6137 34.456 56.5311 34.7867 56.5311 35.16ZM56.9551 35.16C56.9551 34.8613 57.0191 34.5973 57.1471 34.368C57.2751 34.1387 57.4484 33.96 57.6671 33.832C57.8911 33.6987 58.1417 33.632 58.4191 33.632C58.6964 33.632 58.9444 33.6987 59.1631 33.832C59.3871 33.96 59.5631 34.1413 59.6911 34.376C59.8191 34.6053 59.8831 34.8667 59.8831 35.16C59.8831 35.4587 59.8191 35.7227 59.6911 35.952C59.5631 36.1813 59.3871 36.3627 59.1631 36.496C58.9444 36.624 58.6964 36.688 58.4191 36.688C58.1417 36.688 57.8911 36.624 57.6671 36.496C57.4484 36.3627 57.2751 36.1813 57.1471 35.952C57.0191 35.7227 56.9551 35.4587 56.9551 35.16ZM69.5055 35.656V33.32H69.0895V35.704C69.0895 36.1253 69.1908 36.4613 69.3935 36.712C69.5962 36.9573 69.8895 37.08 70.2735 37.08C70.5508 37.08 70.7908 37.0053 70.9935 36.856C71.1962 36.7067 71.3482 36.4987 71.4495 36.232V37H71.8655V33.32H71.4495V35.56C71.4495 35.768 71.4015 35.9573 71.3055 36.128C71.2148 36.2987 71.0868 36.4347 70.9215 36.536C70.7615 36.6373 70.5775 36.688 70.3695 36.688C70.0708 36.688 69.8522 36.5973 69.7135 36.416C69.5748 36.2293 69.5055 35.976 69.5055 35.656ZM83.7926 30.76V37H84.2086V30.76H83.7926ZM80.6486 35.16C80.6486 35.5547 80.7286 35.896 80.8886 36.184C81.0486 36.472 81.2619 36.6933 81.5286 36.848C81.8006 37.0027 82.0992 37.08 82.4246 37.08C82.7446 37.08 83.0192 36.9973 83.2486 36.832C83.4779 36.6613 83.6566 36.432 83.7846 36.144C83.9179 35.8507 83.9846 35.5227 83.9846 35.16C83.9846 34.792 83.9179 34.464 83.7846 34.176C83.6566 33.888 83.4779 33.6613 83.2486 33.496C83.0192 33.3253 82.7446 33.24 82.4246 33.24C82.0992 33.24 81.8006 33.3173 81.5286 33.472C81.2619 33.6267 81.0486 33.848 80.8886 34.136C80.7286 34.4187 80.6486 34.76 80.6486 35.16ZM81.0726 35.16C81.0726 34.84 81.1339 34.5653 81.2566 34.336C81.3846 34.1067 81.5552 33.9333 81.7686 33.816C81.9872 33.6933 82.2246 33.632 82.4806 33.632C82.7099 33.632 82.9232 33.6987 83.1206 33.832C83.3232 33.9653 83.4859 34.1467 83.6086 34.376C83.7312 34.6053 83.7926 34.8667 83.7926 35.16C83.7926 35.4533 83.7312 35.7147 83.6086 35.944C83.4859 36.1733 83.3232 36.3547 83.1206 36.488C82.9232 36.6213 82.7099 36.688 82.4806 36.688C82.2246 36.688 81.9872 36.6293 81.7686 36.512C81.5552 36.3893 81.3846 36.2133 81.2566 35.984C81.1339 35.7547 81.0726 35.48 81.0726 35.16ZM103.884 38.76V33.32H103.468V38.76H103.884ZM107.028 35.16C107.028 34.76 106.948 34.4187 106.788 34.136C106.633 33.848 106.42 33.6267 106.148 33.472C105.881 33.3173 105.583 33.24 105.252 33.24C104.943 33.24 104.671 33.3253 104.436 33.496C104.201 33.6613 104.017 33.888 103.884 34.176C103.756 34.464 103.692 34.792 103.692 35.16C103.692 35.5227 103.756 35.8507 103.884 36.144C104.017 36.432 104.201 36.6613 104.436 36.832C104.671 36.9973 104.943 37.08 105.252 37.08C105.583 37.08 105.881 37.0027 106.148 36.848C106.42 36.6933 106.633 36.472 106.788 36.184C106.948 35.896 107.028 35.5547 107.028 35.16ZM106.612 35.16C106.612 35.48 106.548 35.7547 106.42 35.984C106.292 36.2133 106.121 36.3893 105.908 36.512C105.695 36.6293 105.457 36.688 105.196 36.688C104.972 36.688 104.759 36.6213 104.556 36.488C104.353 36.3547 104.191 36.1733 104.068 35.944C103.945 35.7147 103.884 35.4533 103.884 35.16C103.884 34.8667 103.945 34.6053 104.068 34.376C104.191 34.1467 104.353 33.9653 104.556 33.832C104.759 33.6987 104.972 33.632 105.196 33.632C105.457 33.632 105.695 33.6933 105.908 33.816C106.121 33.9333 106.292 34.1067 106.42 34.336C106.548 34.5653 106.612 34.84 106.612 35.16ZM115.873 35.16C115.873 34.8613 115.937 34.5973 116.065 34.368C116.193 34.1387 116.366 33.96 116.585 33.832C116.809 33.6987 117.06 33.632 117.337 33.632C117.534 33.632 117.718 33.6613 117.889 33.72C118.06 33.7787 118.206 33.8533 118.329 33.944C118.457 34.0347 118.548 34.1307 118.601 34.232V33.712C118.489 33.584 118.316 33.4747 118.081 33.384C117.852 33.288 117.604 33.24 117.337 33.24C116.98 33.24 116.66 33.3227 116.377 33.488C116.094 33.6533 115.868 33.88 115.697 34.168C115.532 34.456 115.449 34.7867 115.449 35.16C115.449 35.528 115.532 35.8587 115.697 36.152C115.868 36.44 116.094 36.6667 116.377 36.832C116.66 36.9973 116.98 37.08 117.337 37.08C117.604 37.08 117.852 37.0347 118.081 36.944C118.316 36.8533 118.489 36.7413 118.601 36.608V36.088C118.548 36.184 118.457 36.28 118.329 36.376C118.206 36.4667 118.06 36.5413 117.889 36.6C117.718 36.6587 117.534 36.688 117.337 36.688C117.06 36.688 116.809 36.624 116.585 36.496C116.366 36.3627 116.193 36.1813 116.065 35.952C115.937 35.7227 115.873 35.4587 115.873 35.16ZM137.147 33.32L138.843 37.216L140.539 33.32H140.067L138.843 36.32L137.619 33.32H137.147ZM148.603 35.16C148.603 35.528 148.685 35.8587 148.851 36.152C149.016 36.44 149.24 36.6667 149.523 36.832C149.811 36.9973 150.133 37.08 150.491 37.08C150.848 37.08 151.168 36.9973 151.451 36.832C151.739 36.6667 151.965 36.44 152.131 36.152C152.296 35.8587 152.379 35.528 152.379 35.16C152.379 34.7867 152.296 34.456 152.131 34.168C151.965 33.88 151.739 33.6533 151.451 33.488C151.168 33.3227 150.848 33.24 150.491 33.24C150.133 33.24 149.811 33.3227 149.523 33.488C149.24 33.6533 149.016 33.88 148.851 34.168C148.685 34.456 148.603 34.7867 148.603 35.16ZM149.027 35.16C149.027 34.8613 149.091 34.5973 149.219 34.368C149.347 34.1387 149.52 33.96 149.739 33.832C149.963 33.6987 150.213 33.632 150.491 33.632C150.768 33.632 151.016 33.6987 151.235 33.832C151.459 33.96 151.635 34.1413 151.763 34.376C151.891 34.6053 151.955 34.8667 151.955 35.16C151.955 35.4587 151.891 35.7227 151.763 35.952C151.635 36.1813 151.459 36.3627 151.235 36.496C151.016 36.624 150.768 36.688 150.491 36.688C150.213 36.688 149.963 36.624 149.739 36.496C149.52 36.3627 149.347 36.1813 149.219 35.952C149.091 35.7227 149.027 35.4587 149.027 35.16ZM161.577 35.656V33.32H161.161V35.704C161.161 36.1253 161.262 36.4613 161.465 36.712C161.668 36.9573 161.961 37.08 162.345 37.08C162.622 37.08 162.862 37.0053 163.065 36.856C163.268 36.7067 163.42 36.4987 163.521 36.232V37H163.937V33.32H163.521V35.56C163.521 35.768 163.473 35.9573 163.377 36.128C163.286 36.2987 163.158 36.4347 162.993 36.536C162.833 36.6373 162.649 36.688 162.441 36.688C162.142 36.688 161.924 36.5973 161.785 36.416C161.646 36.2293 161.577 35.976 161.577 35.656ZM173.104 35.16C173.104 34.8613 173.168 34.5973 173.296 34.368C173.424 34.1387 173.597 33.96 173.816 33.832C174.04 33.6987 174.291 33.632 174.568 33.632C174.765 33.632 174.949 33.6613 175.12 33.72C175.291 33.7787 175.437 33.8533 175.56 33.944C175.688 34.0347 175.779 34.1307 175.832 34.232V33.712C175.72 33.584 175.547 33.4747 175.312 33.384C175.083 33.288 174.835 33.24 174.568 33.24C174.211 33.24 173.891 33.3227 173.608 33.488C173.325 33.6533 173.099 33.88 172.928 34.168C172.763 34.456 172.68 34.7867 172.68 35.16C172.68 35.528 172.763 35.8587 172.928 36.152C173.099 36.44 173.325 36.6667 173.608 36.832C173.891 36.9973 174.211 37.08 174.568 37.08C174.835 37.08 175.083 37.0347 175.312 36.944C175.547 36.8533 175.72 36.7413 175.832 36.608V36.088C175.779 36.184 175.688 36.28 175.56 36.376C175.437 36.4667 175.291 36.5413 175.12 36.6C174.949 36.6587 174.765 36.688 174.568 36.688C174.291 36.688 174.04 36.624 173.816 36.496C173.597 36.3627 173.424 36.1813 173.296 35.952C173.168 35.7227 173.104 35.4587 173.104 35.16ZM185.155 30.76H184.739V37H185.155V30.76ZM187.099 34.632V37H187.515V34.584C187.515 34.296 187.47 34.0533 187.379 33.856C187.289 33.6533 187.155 33.5013 186.979 33.4C186.803 33.2933 186.587 33.24 186.331 33.24C186.075 33.24 185.849 33.3067 185.651 33.44C185.454 33.5733 185.297 33.7547 185.179 33.984C185.067 34.208 185.011 34.4667 185.011 34.76H185.155C185.155 34.552 185.201 34.3627 185.291 34.192C185.387 34.0213 185.515 33.8853 185.675 33.784C185.841 33.6827 186.027 33.632 186.235 33.632C186.539 33.632 186.758 33.72 186.891 33.896C187.03 34.072 187.099 34.3173 187.099 34.632ZM198.003 37.08C198.371 37.08 198.691 37.0053 198.963 36.856C199.24 36.7013 199.483 36.464 199.691 36.144L199.355 35.928C199.189 36.1893 199 36.3813 198.787 36.504C198.579 36.6267 198.333 36.688 198.051 36.688C197.784 36.688 197.549 36.624 197.347 36.496C197.149 36.368 196.995 36.1867 196.883 35.952C196.776 35.7173 196.723 35.4427 196.723 35.128C196.723 34.8187 196.779 34.552 196.891 34.328C197.003 34.0987 197.157 33.9227 197.355 33.8C197.557 33.672 197.795 33.608 198.067 33.608C198.301 33.608 198.512 33.664 198.699 33.776C198.885 33.888 199.032 34.0427 199.139 34.24C199.251 34.4373 199.307 34.6613 199.307 34.912C199.307 34.9547 199.299 35 199.283 35.048C199.272 35.0907 199.261 35.1253 199.251 35.152L199.427 34.904H196.563V35.264H199.739C199.744 35.2373 199.747 35.2053 199.747 35.168C199.752 35.1307 199.755 35.096 199.755 35.064C199.755 34.7067 199.683 34.392 199.539 34.12C199.4 33.8427 199.203 33.6267 198.947 33.472C198.696 33.3173 198.403 33.24 198.067 33.24C197.72 33.24 197.413 33.3227 197.147 33.488C196.88 33.648 196.672 33.872 196.523 34.16C196.373 34.448 196.299 34.7787 196.299 35.152C196.299 35.5253 196.371 35.8587 196.515 36.152C196.664 36.44 196.867 36.6667 197.123 36.832C197.379 36.9973 197.672 37.08 198.003 37.08ZM208.953 33.32H208.537V37H208.953V33.32ZM210.177 33.808L210.409 33.464C210.323 33.384 210.227 33.328 210.121 33.296C210.019 33.2587 209.91 33.24 209.793 33.24C209.601 33.24 209.425 33.3067 209.265 33.44C209.11 33.5733 208.987 33.7547 208.897 33.984C208.806 34.208 208.761 34.4667 208.761 34.76H208.953C208.953 34.552 208.977 34.3627 209.025 34.192C209.073 34.0213 209.15 33.8853 209.257 33.784C209.369 33.6827 209.515 33.632 209.697 33.632C209.793 33.632 209.875 33.648 209.945 33.68C210.019 33.7067 210.097 33.7493 210.177 33.808Z" fill="#BDD0F3"/>
<line x1="44.5" y1="193.5" x2="201.5" y2="193.5" stroke="#BDD0F3" stroke-linecap="round" stroke-dasharray="5 5"/>
</g>
<defs>
<filter id="filter0_d_47_12692" x="0" y="0" width="246" height="350" filterUnits="userSpaceOnUse" color-interpolation-filters="sRGB">
<feFlood flood-opacity="0" result="BackgroundImageFix"/>
<feColorMatrix in="SourceAlpha" type="matrix" values="0 0 0 0 0 0 0 0 0 0 0 0 0 0 0 0 0 0 127 0" result="hardAlpha"/>
<feOffset dy="4"/>
<feGaussianBlur stdDeviation="7.5"/>
<feComposite in2="hardAlpha" operator="out"/>
<feColorMatrix type="matrix" values="0 0 0 0 0 0 0 0 0 0 0 0 0 0 0 0 0 0 0.25 0"/>
<feBlend mode="normal" in2="BackgroundImageFix" result="effect1_dropShadow_47_12692"/>
<feBlend mode="normal" in="SourceGraphic" in2="effect1_dropShadow_47_12692" result="shape"/>
</filter>
</defs>
</svg>
